%TF.GenerationSoftware,KiCad,Pcbnew,9.0.0*%
%TF.CreationDate,2026-05-26T16:01:00+03:00*%
%TF.ProjectId,sharpCONSOLE,73686172-7043-44f4-9e53-4f4c452e6b69,rev?*%
%TF.SameCoordinates,Original*%
%TF.FileFunction,Profile,NP*%
%FSLAX46Y46*%
G04 Gerber Fmt 4.6, Leading zero omitted, Abs format (unit mm)*
G04 Created by KiCad (PCBNEW 9.0.0) date 2026-05-26 16:01:00*
%MOMM*%
%LPD*%
G01*
G04 APERTURE LIST*
%TA.AperFunction,Profile*%
%ADD10C,0.050000*%
%TD*%
%ADD11C,0.050000*%
G04 APERTURE END LIST*
D10*
X72170000Y-122680000D02*
X69170000Y-122680000D01*
X100620000Y-109620000D02*
G75*
G02*
X101620000Y-108620000I1000000J0D01*
G01*
X110720000Y-111120000D02*
G75*
G02*
X109720000Y-112120000I-1000000J0D01*
G01*
X100620000Y-111120000D02*
X100620000Y-109620000D01*
D11*
X111670000Y-57180000D02*
X111647944Y-57181043D01*
X111625867Y-57182166D01*
X111603771Y-57183371D01*
X111581656Y-57184657D01*
X111559521Y-57186024D01*
X111537368Y-57187472D01*
X111515195Y-57189002D01*
X111493004Y-57190614D01*
X111470794Y-57192307D01*
X111448566Y-57194081D01*
X111426320Y-57195937D01*
X111404056Y-57197875D01*
X111381774Y-57199895D01*
X111359475Y-57201997D01*
X111337158Y-57204181D01*
X111314824Y-57206446D01*
X111292473Y-57208794D01*
X111270106Y-57211224D01*
X111247722Y-57213737D01*
X111225322Y-57216331D01*
X111202906Y-57219008D01*
X111180474Y-57221768D01*
X111158026Y-57224610D01*
X111135563Y-57227535D01*
X111113084Y-57230542D01*
X111090591Y-57233632D01*
X111068082Y-57236805D01*
X111045560Y-57240061D01*
X111023022Y-57243399D01*
X111000471Y-57246821D01*
X110977906Y-57250325D01*
X110955327Y-57253913D01*
X110932735Y-57257584D01*
X110910129Y-57261338D01*
X110887510Y-57265175D01*
X110864879Y-57269096D01*
X110842235Y-57273100D01*
X110819579Y-57277187D01*
X110796911Y-57281358D01*
X110774231Y-57285612D01*
X110751540Y-57289950D01*
X110728837Y-57294372D01*
X110706123Y-57298877D01*
X110683398Y-57303466D01*
X110660663Y-57308138D01*
X110637917Y-57312895D01*
X110615161Y-57317735D01*
X110592396Y-57322659D01*
X110569620Y-57327667D01*
X110546836Y-57332760D01*
X110524042Y-57337936D01*
X110501240Y-57343196D01*
X110478428Y-57348540D01*
X110455609Y-57353969D01*
X110432782Y-57359481D01*
X110409946Y-57365078D01*
X110387103Y-57370759D01*
X110364253Y-57376524D01*
X110341396Y-57382373D01*
X110318532Y-57388307D01*
X110295662Y-57394325D01*
X110272786Y-57400428D01*
X110249903Y-57406615D01*
X110227015Y-57412886D01*
X110204121Y-57419242D01*
X110181223Y-57425682D01*
X110158319Y-57432207D01*
X110135411Y-57438816D01*
X110112499Y-57445510D01*
X110089582Y-57452288D01*
X110066662Y-57459150D01*
X110043739Y-57466098D01*
X110020812Y-57473130D01*
X109997882Y-57480246D01*
X109974950Y-57487447D01*
X109952015Y-57494733D01*
X109929079Y-57502103D01*
X109906140Y-57509558D01*
X109883201Y-57517097D01*
X109860260Y-57524721D01*
X109837318Y-57532430D01*
X109814375Y-57540223D01*
X109791433Y-57548101D01*
X109768490Y-57556064D01*
X109745547Y-57564111D01*
X109722605Y-57572242D01*
X109699664Y-57580459D01*
X109676725Y-57588759D01*
X109653786Y-57597145D01*
X109630850Y-57605615D01*
X109607915Y-57614169D01*
X109584983Y-57622808D01*
X109562054Y-57631531D01*
X109539127Y-57640339D01*
X109516204Y-57649232D01*
X109493284Y-57658208D01*
X109470369Y-57667270D01*
X109447457Y-57676415D01*
X109424550Y-57685645D01*
X109401648Y-57694959D01*
X109378751Y-57704358D01*
X109355859Y-57713841D01*
X109332973Y-57723408D01*
X109310093Y-57733059D01*
X109287220Y-57742795D01*
X109264353Y-57752614D01*
X109241493Y-57762518D01*
X109218641Y-57772506D01*
X109195796Y-57782577D01*
X109172959Y-57792733D01*
X109150130Y-57802972D01*
X109127310Y-57813296D01*
X109104498Y-57823703D01*
X109081696Y-57834194D01*
X109058903Y-57844769D01*
X109036120Y-57855427D01*
X109013348Y-57866169D01*
X108990585Y-57876995D01*
X108967834Y-57887904D01*
X108945093Y-57898896D01*
X108922364Y-57909972D01*
X108899647Y-57921131D01*
X108876941Y-57932374D01*
X108854248Y-57943699D01*
X108831568Y-57955108D01*
X108808901Y-57966600D01*
X108786247Y-57978175D01*
X108763606Y-57989832D01*
X108740980Y-58001572D01*
X108718368Y-58013396D01*
X108695770Y-58025301D01*
X108673187Y-58037290D01*
X108650620Y-58049361D01*
X108628068Y-58061514D01*
X108605532Y-58073750D01*
X108583012Y-58086068D01*
X108560509Y-58098468D01*
X108538023Y-58110950D01*
X108515554Y-58123514D01*
X108493102Y-58136161D01*
X108470668Y-58148888D01*
X108448252Y-58161698D01*
X108425855Y-58174589D01*
X108403476Y-58187562D01*
X108381117Y-58200616D01*
X108358777Y-58213752D01*
X108336456Y-58226969D01*
X108314156Y-58240267D01*
X108291876Y-58253646D01*
X108269617Y-58267106D01*
X108247379Y-58280646D01*
X108225162Y-58294268D01*
X108202967Y-58307970D01*
X108180794Y-58321752D01*
X108158643Y-58335615D01*
X108136514Y-58349558D01*
X108114409Y-58363581D01*
X108103365Y-58370623D01*
X108092327Y-58377684D01*
X108081294Y-58384766D01*
X108070268Y-58391867D01*
X108059248Y-58398989D01*
X108048234Y-58406130D01*
X108037225Y-58413292D01*
X108026223Y-58420473D01*
X108015227Y-58427674D01*
X108004237Y-58434895D01*
X107993254Y-58442136D01*
X107982276Y-58449397D01*
X107971305Y-58456677D01*
X107960340Y-58463977D01*
X107949382Y-58471298D01*
X107938430Y-58478637D01*
X107927484Y-58485997D01*
X107916545Y-58493376D01*
X107905613Y-58500776D01*
X107894687Y-58508194D01*
X107883767Y-58515633D01*
X107872855Y-58523091D01*
X107861949Y-58530569D01*
X107851049Y-58538066D01*
X107840157Y-58545584D01*
X107829271Y-58553120D01*
X107818392Y-58560677D01*
X107807520Y-58568252D01*
X107796655Y-58575848D01*
X107785797Y-58583463D01*
X107774945Y-58591098D01*
X107764101Y-58598751D01*
X107753264Y-58606425D01*
X107742434Y-58614118D01*
X107731611Y-58621831D01*
X107720796Y-58629562D01*
X107709987Y-58637314D01*
X107699186Y-58645084D01*
X107688392Y-58652875D01*
X107677606Y-58660684D01*
X107666827Y-58668513D01*
X107656055Y-58676361D01*
X107645291Y-58684229D01*
X107634534Y-58692115D01*
X107623785Y-58700021D01*
X107613044Y-58707947D01*
X107602309Y-58715891D01*
X107591583Y-58723855D01*
X107580864Y-58731838D01*
X107570154Y-58739840D01*
X107559450Y-58747862D01*
X107548755Y-58755902D01*
X107538068Y-58763962D01*
X107527388Y-58772041D01*
X107516716Y-58780138D01*
X107506052Y-58788255D01*
X107495397Y-58796391D01*
X107484749Y-58804546D01*
X107474109Y-58812720D01*
X107463478Y-58820914D01*
X107452854Y-58829125D01*
X107442239Y-58837357D01*
X107431632Y-58845606D01*
X107421033Y-58853875D01*
X107410443Y-58862163D01*
X107399860Y-58870470D01*
X107389287Y-58878795D01*
X107378721Y-58887139D01*
X107368164Y-58895503D01*
X107357616Y-58903885D01*
X107347076Y-58912285D01*
X107336544Y-58920705D01*
X107326022Y-58929143D01*
X107315507Y-58937600D01*
X107305002Y-58946076D01*
X107294505Y-58954570D01*
X107284017Y-58963083D01*
X107273538Y-58971615D01*
X107263067Y-58980165D01*
X107252606Y-58988734D01*
X107242153Y-58997321D01*
X107231709Y-59005927D01*
X107221274Y-59014552D01*
X107210848Y-59023195D01*
X107200432Y-59031857D01*
X107190024Y-59040537D01*
X107179625Y-59049235D01*
X107169236Y-59057952D01*
X107158855Y-59066688D01*
X107148484Y-59075441D01*
X107138122Y-59084213D01*
X107127769Y-59093004D01*
X107117426Y-59101813D01*
X107107092Y-59110640D01*
X107096768Y-59119485D01*
X107086452Y-59128349D01*
X107076147Y-59137231D01*
X107065851Y-59146131D01*
X107055564Y-59155050D01*
X107045287Y-59163986D01*
X107035020Y-59172941D01*
X107024762Y-59181914D01*
X107014514Y-59190905D01*
X107004275Y-59199914D01*
X106994046Y-59208941D01*
X106983827Y-59217986D01*
X106973618Y-59227049D01*
X106963419Y-59236131D01*
X106953230Y-59245230D01*
X106943050Y-59254347D01*
X106932881Y-59263482D01*
X106922721Y-59272636D01*
X106912572Y-59281806D01*
X106902432Y-59290996D01*
X106892303Y-59300202D01*
X106882183Y-59309427D01*
X106872074Y-59318669D01*
X106861975Y-59327929D01*
X106851887Y-59337207D01*
X106841808Y-59346503D01*
X106831740Y-59355816D01*
X106821682Y-59365147D01*
X106811635Y-59374496D01*
X106801598Y-59383862D01*
X106791571Y-59393246D01*
X106781555Y-59402648D01*
X106771550Y-59412067D01*
X106761554Y-59421504D01*
X106751570Y-59430958D01*
X106741596Y-59440430D01*
X106731633Y-59449919D01*
X106721680Y-59459427D01*
X106711738Y-59468950D01*
X106701806Y-59478493D01*
X106691886Y-59488051D01*
X106681976Y-59497628D01*
X106672078Y-59507222D01*
X106662189Y-59516833D01*
X106652313Y-59526461D01*
X106642446Y-59536107D01*
X106632591Y-59545770D01*
X106622746Y-59555451D01*
X106612914Y-59565148D01*
X106603091Y-59574863D01*
X106593280Y-59584594D01*
X106583480Y-59594344D01*
X106573692Y-59604110D01*
X106563914Y-59613893D01*
X106554148Y-59623693D01*
X106544392Y-59633511D01*
X106534649Y-59643345D01*
X106524916Y-59653197D01*
X106515195Y-59663065D01*
X106505485Y-59672951D01*
X106495787Y-59682853D01*
X106486099Y-59692773D01*
X106476424Y-59702708D01*
X106466759Y-59712662D01*
X106457107Y-59722631D01*
X106447466Y-59732618D01*
X106437837Y-59742621D01*
X106428219Y-59752642D01*
X106418613Y-59762679D01*
X106409018Y-59772733D01*
X106399436Y-59782803D01*
X106389865Y-59792890D01*
X106380306Y-59802994D01*
X106370758Y-59813115D01*
X106361223Y-59823251D01*
X106351699Y-59833405D01*
X106342188Y-59843575D01*
X106332687Y-59853762D01*
X106323200Y-59863965D01*
X106313723Y-59874185D01*
X106304260Y-59884421D01*
X106294808Y-59894674D01*
X106285369Y-59904942D01*
X106275940Y-59915229D01*
X106266525Y-59925530D01*
X106257121Y-59935849D01*
X106247731Y-59946182D01*
X106238351Y-59956534D01*
X106228985Y-59966900D01*
X106219630Y-59977284D01*
X106210289Y-59987683D01*
X106200958Y-59998099D01*
X106191642Y-60008531D01*
X106182336Y-60018979D01*
X106173044Y-60029443D01*
X106163763Y-60039924D01*
X106154496Y-60050420D01*
X106145241Y-60060933D01*
X106135999Y-60071461D01*
X106126768Y-60082006D01*
X106117551Y-60092566D01*
X106108346Y-60103143D01*
X106099154Y-60113734D01*
X106089974Y-60124343D01*
X106080808Y-60134967D01*
X106071654Y-60145608D01*
X106062513Y-60156263D01*
X106053384Y-60166935D01*
X106044269Y-60177622D01*
X106035165Y-60188326D01*
X106026076Y-60199044D01*
X106016999Y-60209780D01*
X106007935Y-60220530D01*
X105998883Y-60231296D01*
X105989846Y-60242077D01*
X105980820Y-60252876D01*
X105971809Y-60263688D01*
X105962809Y-60274517D01*
X105953824Y-60285360D01*
X105944850Y-60296221D01*
X105935891Y-60307095D01*
X105926944Y-60317987D01*
X105918011Y-60328892D01*
X105909091Y-60339814D01*
X105900185Y-60350750D01*
X105891290Y-60361703D01*
X105882411Y-60372670D01*
X105873543Y-60383654D01*
X105864690Y-60394652D01*
X105855850Y-60405666D01*
X105847023Y-60416694D01*
X105838209Y-60427739D01*
X105829410Y-60438797D01*
X105820623Y-60449873D01*
X105811851Y-60460961D01*
X105803091Y-60472067D01*
X105794346Y-60483186D01*
X105785613Y-60494322D01*
X105776895Y-60505471D01*
X105768189Y-60516637D01*
X105759499Y-60527816D01*
X105750821Y-60539012D01*
X105742157Y-60550222D01*
X105733507Y-60561448D01*
X105724871Y-60572687D01*
X105716248Y-60583942D01*
X105707639Y-60595211D01*
X105699044Y-60606497D01*
X105690463Y-60617795D01*
X105681895Y-60629110D01*
X105673343Y-60640439D01*
X105664803Y-60651783D01*
X105656278Y-60663141D01*
X105647766Y-60674515D01*
X105639269Y-60685902D01*
X105630785Y-60697305D01*
X105622316Y-60708722D01*
X105613860Y-60720154D01*
X105605420Y-60731600D01*
X105596992Y-60743062D01*
X105588580Y-60754536D01*
X105580180Y-60766027D01*
X105570000Y-60780000D01*
D10*
X73170000Y-65680000D02*
X73170000Y-77679575D01*
X73170000Y-77679575D02*
G75*
G02*
X72170425Y-78680000I-1000000J-425D01*
G01*
X135670000Y-57180000D02*
G75*
G02*
X138170000Y-59680000I0J-2500000D01*
G01*
X69170000Y-78680000D02*
X69170000Y-81180000D01*
X75670000Y-138180000D02*
G75*
G02*
X73170000Y-135680000I0J2500000D01*
G01*
X110720000Y-111120000D02*
X110720000Y-109620000D01*
X75670000Y-63180000D02*
X96770000Y-63180000D01*
X72170000Y-122680000D02*
G75*
G02*
X73170000Y-123679998I0J-1000000D01*
G01*
D11*
X105570000Y-60780000D02*
X105563286Y-60788936D01*
X105556558Y-60797855D01*
X105549857Y-60806707D01*
X105543143Y-60815542D01*
X105536454Y-60824311D01*
X105529752Y-60833064D01*
X105523075Y-60841753D01*
X105516384Y-60850425D01*
X105509716Y-60859035D01*
X105503035Y-60867629D01*
X105496376Y-60876162D01*
X105489703Y-60884680D01*
X105483052Y-60893137D01*
X105476388Y-60901580D01*
X105469744Y-60909964D01*
X105463086Y-60918332D01*
X105456448Y-60926644D01*
X105449797Y-60934941D01*
X105443164Y-60943183D01*
X105436517Y-60951409D01*
X105429888Y-60959581D01*
X105423246Y-60967739D01*
X105416621Y-60975843D01*
X105409982Y-60983933D01*
X105403359Y-60991972D01*
X105396722Y-60999995D01*
X105390101Y-61007968D01*
X105383466Y-61015927D01*
X105376846Y-61023837D01*
X105370212Y-61031732D01*
X105363592Y-61039578D01*
X105356958Y-61047411D01*
X105350337Y-61055197D01*
X105343702Y-61062968D01*
X105337080Y-61070693D01*
X105330444Y-61078404D01*
X105323820Y-61086070D01*
X105317182Y-61093723D01*
X105310555Y-61101331D01*
X105303914Y-61108925D01*
X105297283Y-61116476D01*
X105290639Y-61124014D01*
X105284004Y-61131509D01*
X105277355Y-61138990D01*
X105270716Y-61146430D01*
X105264062Y-61153857D01*
X105257418Y-61161243D01*
X105250758Y-61168616D01*
X105244108Y-61175949D01*
X105237442Y-61183268D01*
X105230785Y-61190549D01*
X105224113Y-61197817D01*
X105217448Y-61205046D01*
X105210768Y-61212262D01*
X105204096Y-61219441D01*
X105197408Y-61226607D01*
X105190727Y-61233736D01*
X105184031Y-61240853D01*
X105177341Y-61247933D01*
X105170635Y-61255000D01*
X105163936Y-61262033D01*
X105157221Y-61269052D01*
X105150511Y-61276037D01*
X105143785Y-61283009D01*
X105137064Y-61289948D01*
X105130328Y-61296873D01*
X105123596Y-61303766D01*
X105116848Y-61310646D01*
X105110105Y-61317493D01*
X105103345Y-61324328D01*
X105096589Y-61331131D01*
X105089817Y-61337921D01*
X105083047Y-61344681D01*
X105076262Y-61351427D01*
X105069480Y-61358143D01*
X105062681Y-61364847D01*
X105055884Y-61371520D01*
X105049072Y-61378181D01*
X105042261Y-61384813D01*
X105035434Y-61391432D01*
X105028608Y-61398022D01*
X105021765Y-61404600D01*
X105014924Y-61411150D01*
X105008066Y-61417687D01*
X105001208Y-61424197D01*
X104994335Y-61430694D01*
X104987461Y-61437164D01*
X104980570Y-61443621D01*
X104973679Y-61450052D01*
X104966772Y-61456471D01*
X104959864Y-61462863D01*
X104952939Y-61469243D01*
X104946013Y-61475598D01*
X104939070Y-61481940D01*
X104932125Y-61488257D01*
X104925164Y-61494562D01*
X104918200Y-61500842D01*
X104911220Y-61507110D01*
X104904237Y-61513353D01*
X104897238Y-61519584D01*
X104890235Y-61525792D01*
X104883216Y-61531987D01*
X104876193Y-61538159D01*
X104869153Y-61544319D01*
X104862110Y-61550455D01*
X104855049Y-61556580D01*
X104847984Y-61562682D01*
X104840902Y-61568773D01*
X104833816Y-61574840D01*
X104826713Y-61580897D01*
X104819604Y-61586930D01*
X104812478Y-61592953D01*
X104805348Y-61598953D01*
X104798199Y-61604942D01*
X104791045Y-61610910D01*
X104783874Y-61616866D01*
X104776697Y-61622800D01*
X104769502Y-61628724D01*
X104762301Y-61634627D01*
X104755082Y-61640518D01*
X104747856Y-61646389D01*
X104740613Y-61652248D01*
X104733363Y-61658087D01*
X104726095Y-61663915D01*
X104718819Y-61669724D01*
X104711526Y-61675521D01*
X104704225Y-61681298D01*
X104696906Y-61687064D01*
X104689579Y-61692811D01*
X104682233Y-61698547D01*
X104674879Y-61704264D01*
X104667507Y-61709970D01*
X104660127Y-61715657D01*
X104652728Y-61721333D01*
X104645320Y-61726990D01*
X104637893Y-61732637D01*
X104630457Y-61738266D01*
X104623003Y-61743883D01*
X104615538Y-61749483D01*
X104608055Y-61755072D01*
X104600563Y-61760643D01*
X104593051Y-61766203D01*
X104585529Y-61771746D01*
X104577988Y-61777279D01*
X104570436Y-61782794D01*
X104562865Y-61788298D01*
X104555283Y-61793785D01*
X104547682Y-61799262D01*
X104540070Y-61804722D01*
X104532438Y-61810171D01*
X104524795Y-61815604D01*
X104517133Y-61821027D01*
X104509458Y-61826433D01*
X104501764Y-61831828D01*
X104494057Y-61837208D01*
X104486331Y-61842577D01*
X104478593Y-61847930D01*
X104470834Y-61853273D01*
X104463063Y-61858600D01*
X104455272Y-61863916D01*
X104447467Y-61869218D01*
X104439642Y-61874509D01*
X104431804Y-61879784D01*
X104423946Y-61885050D01*
X104416074Y-61890300D01*
X104408181Y-61895540D01*
X104400275Y-61900765D01*
X104392348Y-61905980D01*
X104384406Y-61911180D01*
X104376444Y-61916370D01*
X104368467Y-61921546D01*
X104360469Y-61926711D01*
X104352456Y-61931862D01*
X104344422Y-61937003D01*
X104336373Y-61942130D01*
X104328303Y-61947246D01*
X104320217Y-61952349D01*
X104312110Y-61957442D01*
X104303987Y-61962521D01*
X104295843Y-61967589D01*
X104287681Y-61972645D01*
X104279499Y-61977690D01*
X104271300Y-61982721D01*
X104263080Y-61987743D01*
X104254842Y-61992751D01*
X104246583Y-61997749D01*
X104238306Y-62002735D01*
X104230008Y-62007710D01*
X104221692Y-62012672D01*
X104213354Y-62017624D01*
X104204998Y-62022564D01*
X104196620Y-62027493D01*
X104188223Y-62032411D01*
X104179804Y-62037317D01*
X104171366Y-62042212D01*
X104162907Y-62047096D01*
X104154428Y-62051969D01*
X104145926Y-62056830D01*
X104137405Y-62061681D01*
X104128862Y-62066521D01*
X104120299Y-62071349D01*
X104111713Y-62076167D01*
X104103106Y-62080973D01*
X104094478Y-62085769D01*
X104085828Y-62090554D01*
X104077156Y-62095328D01*
X104068462Y-62100092D01*
X104059746Y-62104844D01*
X104051009Y-62109586D01*
X104042248Y-62114318D01*
X104033465Y-62119038D01*
X104024660Y-62123748D01*
X104015832Y-62128448D01*
X104006981Y-62133137D01*
X103998108Y-62137815D01*
X103989211Y-62142483D01*
X103980291Y-62147141D01*
X103971348Y-62151788D01*
X103962381Y-62156425D01*
X103953391Y-62161051D01*
X103944377Y-62165667D01*
X103935339Y-62170273D01*
X103926277Y-62174868D01*
X103917192Y-62179453D01*
X103908082Y-62184029D01*
X103898948Y-62188593D01*
X103889789Y-62193148D01*
X103880606Y-62197693D01*
X103871398Y-62202227D01*
X103862166Y-62206751D01*
X103852907Y-62211266D01*
X103843625Y-62215770D01*
X103834317Y-62220264D01*
X103824984Y-62224749D01*
X103815625Y-62229223D01*
X103806241Y-62233687D01*
X103796830Y-62238142D01*
X103787395Y-62242586D01*
X103777932Y-62247021D01*
X103768444Y-62251446D01*
X103758929Y-62255861D01*
X103749389Y-62260266D01*
X103739821Y-62264662D01*
X103730227Y-62269047D01*
X103720606Y-62273424D01*
X103710959Y-62277789D01*
X103701283Y-62282146D01*
X103691581Y-62286493D01*
X103681851Y-62290830D01*
X103672095Y-62295157D01*
X103662309Y-62299476D01*
X103652498Y-62303783D01*
X103632789Y-62312371D01*
X103612967Y-62320921D01*
X103593032Y-62329432D01*
X103572981Y-62337905D01*
X103552814Y-62346341D01*
X103532530Y-62354738D01*
X103512128Y-62363098D01*
X103491605Y-62371421D01*
X103470962Y-62379706D01*
X103450197Y-62387953D01*
X103429309Y-62396164D01*
X103408296Y-62404337D01*
X103387158Y-62412473D01*
X103365893Y-62420572D01*
X103344499Y-62428634D01*
X103322977Y-62436659D01*
X103301324Y-62444647D01*
X103279539Y-62452598D01*
X103257621Y-62460513D01*
X103235569Y-62468391D01*
X103213382Y-62476232D01*
X103191057Y-62484037D01*
X103168594Y-62491805D01*
X103145992Y-62499537D01*
X103123249Y-62507232D01*
X103100364Y-62514891D01*
X103077336Y-62522513D01*
X103054162Y-62530098D01*
X103030843Y-62537647D01*
X103007376Y-62545160D01*
X102983760Y-62552636D01*
X102959994Y-62560076D01*
X102936076Y-62567479D01*
X102912005Y-62574846D01*
X102887779Y-62582176D01*
X102863397Y-62589470D01*
X102838858Y-62596727D01*
X102814160Y-62603948D01*
X102789302Y-62611132D01*
X102764282Y-62618279D01*
X102739099Y-62625390D01*
X102713750Y-62632464D01*
X102688236Y-62639501D01*
X102662553Y-62646502D01*
X102636701Y-62653465D01*
X102610678Y-62660392D01*
X102584483Y-62667282D01*
X102558113Y-62674134D01*
X102531568Y-62680950D01*
X102504845Y-62687728D01*
X102477944Y-62694469D01*
X102450861Y-62701172D01*
X102423597Y-62707839D01*
X102396148Y-62714467D01*
X102368514Y-62721058D01*
X102340693Y-62727612D01*
X102312683Y-62734127D01*
X102284482Y-62740605D01*
X102256089Y-62747044D01*
X102227501Y-62753446D01*
X102198717Y-62759809D01*
X102169736Y-62766134D01*
X102140555Y-62772421D01*
X102111173Y-62778668D01*
X102081587Y-62784878D01*
X102051797Y-62791048D01*
X102021800Y-62797179D01*
X101991594Y-62803271D01*
X101961177Y-62809324D01*
X101930548Y-62815338D01*
X101899704Y-62821312D01*
X101868643Y-62827246D01*
X101837365Y-62833141D01*
X101805866Y-62838995D01*
X101774144Y-62844809D01*
X101742198Y-62850583D01*
X101710026Y-62856317D01*
X101677625Y-62862010D01*
X101644994Y-62867662D01*
X101612130Y-62873272D01*
X101579031Y-62878842D01*
X101545695Y-62884370D01*
X101512120Y-62889857D01*
X101478304Y-62895302D01*
X101444245Y-62900705D01*
X101409940Y-62906066D01*
X101375387Y-62911384D01*
X101340584Y-62916660D01*
X101305529Y-62921893D01*
X101270219Y-62927083D01*
X101234652Y-62932230D01*
X101198825Y-62937334D01*
X101162737Y-62942394D01*
X101126385Y-62947409D01*
X101089767Y-62952381D01*
X101052879Y-62957309D01*
X101015720Y-62962191D01*
X100978288Y-62967029D01*
X100940579Y-62971822D01*
X100902591Y-62976570D01*
X100864321Y-62981272D01*
X100825768Y-62985928D01*
X100786928Y-62990538D01*
X100747799Y-62995102D01*
X100708378Y-62999619D01*
X100668662Y-63004089D01*
X100628649Y-63008512D01*
X100588336Y-63012888D01*
X100547721Y-63017216D01*
X100506800Y-63021495D01*
X100465570Y-63025727D01*
X100424030Y-63029910D01*
X100382175Y-63034044D01*
X100340003Y-63038129D01*
X100297512Y-63042164D01*
X100254697Y-63046149D01*
X100211557Y-63050084D01*
X100168088Y-63053969D01*
X100124287Y-63057803D01*
X100080151Y-63061586D01*
X100035677Y-63065318D01*
X99990861Y-63068997D01*
X99945701Y-63072625D01*
X99900193Y-63076200D01*
X99854335Y-63079723D01*
X99808122Y-63083192D01*
X99761552Y-63086607D01*
X99714621Y-63089969D01*
X99667325Y-63093277D01*
X99619662Y-63096530D01*
X99571628Y-63099728D01*
X99523219Y-63102870D01*
X99474432Y-63105957D01*
X99425263Y-63108988D01*
X99375709Y-63111962D01*
X99325765Y-63114880D01*
X99275429Y-63117740D01*
X99224697Y-63120542D01*
X99173564Y-63123286D01*
X99122027Y-63125972D01*
X99070082Y-63128598D01*
X99017726Y-63131166D01*
X98964953Y-63133673D01*
X98911761Y-63136120D01*
X98858145Y-63138506D01*
X98804101Y-63140832D01*
X98749626Y-63143095D01*
X98694714Y-63145297D01*
X98639361Y-63147436D01*
X98583564Y-63149512D01*
X98527318Y-63151525D01*
X98470618Y-63153473D01*
X98413461Y-63155358D01*
X98355842Y-63157177D01*
X98297755Y-63158931D01*
X98239198Y-63160619D01*
X98180164Y-63162240D01*
X98120650Y-63163795D01*
X98060650Y-63165282D01*
X98000160Y-63166701D01*
X97939175Y-63168051D01*
X97877690Y-63169333D01*
X97815700Y-63170545D01*
X97753200Y-63171687D01*
X97690185Y-63172758D01*
X97626649Y-63173757D01*
X97562588Y-63174685D01*
X97497997Y-63175541D01*
X97432869Y-63176323D01*
X97367200Y-63177032D01*
X97300984Y-63177667D01*
X97234215Y-63178226D01*
X97166888Y-63178711D01*
X97098998Y-63179119D01*
X97030537Y-63179451D01*
X96961501Y-63179705D01*
X96891884Y-63179881D01*
X96821680Y-63179979D01*
X96770000Y-63180000D01*
D10*
X73170000Y-135680000D02*
X73169998Y-123679998D01*
X69170000Y-81180000D02*
X71670000Y-81178816D01*
X138170000Y-135680000D02*
G75*
G02*
X135670000Y-138180000I-2500000J0D01*
G01*
X105670000Y-112120000D02*
X109720000Y-112120000D01*
X111670000Y-57180000D02*
X135670000Y-57180000D01*
X109720000Y-108620000D02*
G75*
G02*
X110720000Y-109620000I0J-1000000D01*
G01*
X69170000Y-120180000D02*
X71669291Y-120181212D01*
X69170000Y-122680000D02*
X69170000Y-120180000D01*
X75670000Y-138180000D02*
X135670000Y-138180000D01*
X72170000Y-78680000D02*
X69170000Y-78680000D01*
X71669291Y-120181212D02*
X71670000Y-81178816D01*
X73170000Y-65680000D02*
G75*
G02*
X75670000Y-63180000I2500000J0D01*
G01*
X138170000Y-135680000D02*
X138170000Y-59680000D01*
X101620000Y-108620000D02*
X109720000Y-108620000D01*
X136370000Y-61480000D02*
G75*
G02*
X131370000Y-61480000I-2500000J0D01*
G01*
X131370000Y-61480000D02*
G75*
G02*
X136370000Y-61480000I2500000J0D01*
G01*
X101620000Y-112120000D02*
G75*
G02*
X100620000Y-111120000I0J1000000D01*
G01*
X105670000Y-112120000D02*
X101620000Y-112120000D01*
M02*
