%TF.GenerationSoftware,KiCad,Pcbnew,9.0.0*%
%TF.CreationDate,2026-05-26T16:00:55+03:00*%
%TF.ProjectId,sharpCONSOLE,73686172-7043-44f4-9e53-4f4c452e6b69,rev?*%
%TF.SameCoordinates,Original*%
%TF.FileFunction,Plated,1,4,PTH,Drill*%
%TF.FilePolarity,Positive*%
%FSLAX46Y46*%
G04 Gerber Fmt 4.6, Leading zero omitted, Abs format (unit mm)*
G04 Created by KiCad (PCBNEW 9.0.0) date 2026-05-26 16:00:55*
%MOMM*%
%LPD*%
G01*
G04 APERTURE LIST*
%TA.AperFunction,ViaDrill*%
%ADD10C,0.300000*%
%TD*%
%TA.AperFunction,ComponentDrill*%
%ADD11C,0.300000*%
%TD*%
%TA.AperFunction,ComponentDrill*%
%ADD12C,0.800000*%
%TD*%
%TA.AperFunction,ComponentDrill*%
%ADD13C,1.000000*%
%TD*%
G04 APERTURE END LIST*
D10*
X70493391Y-79939512D03*
X70496793Y-121437074D03*
X72600000Y-118700000D03*
X72900000Y-82600000D03*
X73100000Y-121200000D03*
X74200000Y-68700000D03*
X74200000Y-79900000D03*
X74400000Y-119600000D03*
X74400000Y-125200000D03*
X74700000Y-122700000D03*
X74800000Y-132200000D03*
X74900000Y-128300000D03*
X75300000Y-82000000D03*
X75300000Y-85400000D03*
X75300000Y-87900000D03*
X75375000Y-72050000D03*
X75375000Y-74050000D03*
X75375000Y-76050000D03*
X75375000Y-78050000D03*
X75400000Y-70050000D03*
X75500000Y-121000000D03*
X75800000Y-126700000D03*
X75800000Y-130000000D03*
X75900000Y-102800000D03*
X75900000Y-103700000D03*
X75945286Y-100233163D03*
X75953753Y-101147594D03*
X75994355Y-106241115D03*
X76000000Y-68900000D03*
X76000000Y-97700000D03*
X76000000Y-105300000D03*
X76000000Y-110400000D03*
X76003206Y-98594740D03*
X76009493Y-111295954D03*
X76123797Y-112934310D03*
X76142848Y-113810640D03*
X76219050Y-115448996D03*
X76238101Y-116172921D03*
X76400000Y-108300000D03*
X76400000Y-117900000D03*
X76500000Y-125000000D03*
X76700000Y-90100000D03*
X76700000Y-91000000D03*
X76800000Y-71100000D03*
X76800000Y-73100000D03*
X76900000Y-75000000D03*
X76900000Y-92700000D03*
X76900000Y-93600000D03*
X77000000Y-132200000D03*
X77100000Y-119245220D03*
X77200000Y-128300000D03*
X77300000Y-127000000D03*
X77800000Y-68500000D03*
X78000000Y-130500000D03*
X78200000Y-107400000D03*
X78200000Y-109200000D03*
X78375000Y-70050000D03*
X78375000Y-72050000D03*
X78375000Y-74050000D03*
X78375000Y-76050000D03*
X78375000Y-78050000D03*
X78400000Y-129300000D03*
X78486371Y-121324180D03*
X78487500Y-117200000D03*
X78500000Y-122600000D03*
X78587500Y-124952087D03*
X78600000Y-79900000D03*
X78600000Y-83600000D03*
X78600000Y-86700000D03*
X78700000Y-98100000D03*
X78700000Y-100000000D03*
X78700000Y-123600000D03*
X78900000Y-67300000D03*
X79058258Y-64356871D03*
X79200000Y-133900000D03*
X79300000Y-65800000D03*
X80300000Y-107000000D03*
X80300000Y-109700000D03*
X80347500Y-89030000D03*
X80400000Y-131200000D03*
X80500000Y-102300000D03*
X80540000Y-86710000D03*
X80540001Y-82135000D03*
X80540001Y-84800000D03*
X80600000Y-98200000D03*
X80600000Y-135000000D03*
X80800000Y-136800000D03*
X81200000Y-90300000D03*
X81290000Y-68080000D03*
X81290000Y-70880000D03*
X81400000Y-95200000D03*
X81403905Y-96108837D03*
X81500000Y-83160000D03*
X82000000Y-100500000D03*
X82100000Y-129600000D03*
X82400000Y-104100000D03*
X82400000Y-106500000D03*
X82400000Y-110100000D03*
X82439999Y-84185000D03*
X82690000Y-66680000D03*
X82690000Y-69480000D03*
X82690000Y-72280000D03*
X82900000Y-93600000D03*
X83000000Y-119300000D03*
X83100000Y-97700000D03*
X83158058Y-83141942D03*
X83200000Y-90200000D03*
X83300000Y-116300000D03*
X83300000Y-129100000D03*
X83300000Y-130600000D03*
X83400000Y-92500000D03*
X83530000Y-85330000D03*
X83540000Y-88460000D03*
X83580000Y-84170000D03*
X83800000Y-98900000D03*
X83850000Y-110675000D03*
X83900000Y-102000000D03*
X83900000Y-104700000D03*
X83900000Y-105800000D03*
X83900000Y-112500000D03*
X84090000Y-68080000D03*
X84090000Y-70880000D03*
X84100000Y-134900000D03*
X84400000Y-90400000D03*
X84450001Y-121300000D03*
X84469296Y-129063154D03*
X84481394Y-124935513D03*
X84487500Y-127000000D03*
X84491291Y-117144133D03*
X84550000Y-97650000D03*
X84700000Y-99900000D03*
X84800000Y-93200000D03*
X84800000Y-122600000D03*
X85200000Y-64700000D03*
X85270000Y-81580000D03*
X85300000Y-103900000D03*
X85300000Y-114075000D03*
X85310511Y-85323234D03*
X85444526Y-98526501D03*
X85490000Y-66680000D03*
X85490000Y-69480000D03*
X85490000Y-72280000D03*
X85700000Y-92700000D03*
X85900000Y-100700000D03*
X86305437Y-119205600D03*
X86350002Y-99450002D03*
X86370000Y-81580000D03*
X86500000Y-131500000D03*
X86700000Y-93600000D03*
X86890000Y-68080000D03*
X86890000Y-70880000D03*
X86900000Y-98600000D03*
X86950000Y-136900000D03*
X87100000Y-88600000D03*
X87200000Y-89500000D03*
X87300000Y-90400000D03*
X87400000Y-109800000D03*
X87470000Y-81580000D03*
X87700000Y-97600000D03*
X87800000Y-103900000D03*
X87850000Y-102500000D03*
X87900000Y-64700000D03*
X88000000Y-95380000D03*
X88200000Y-92600000D03*
X88290000Y-66680000D03*
X88290000Y-69480000D03*
X88290000Y-72280000D03*
X88425000Y-78500000D03*
X88450000Y-81450000D03*
X88490000Y-95870000D03*
X88675000Y-113725000D03*
X88775000Y-102500000D03*
X88800000Y-124400000D03*
X89000000Y-116500000D03*
X89200000Y-108300000D03*
X89300000Y-92600000D03*
X89400000Y-90350000D03*
X89690000Y-68080000D03*
X89690000Y-70880000D03*
X89900000Y-101000000D03*
X89925000Y-78650000D03*
X89925000Y-109775000D03*
X90175000Y-112475000D03*
X90200000Y-82100000D03*
X90225000Y-80950000D03*
X90500000Y-99300000D03*
X90600000Y-96100000D03*
X90750000Y-81375000D03*
X90800000Y-64800000D03*
X90875000Y-78675000D03*
X90900000Y-104075000D03*
X90900000Y-106775000D03*
X91000000Y-100400000D03*
X91090000Y-66680000D03*
X91090000Y-69480000D03*
X91090000Y-72280000D03*
X91400000Y-88200000D03*
X91400000Y-108500000D03*
X91500000Y-122500000D03*
X91600000Y-98200000D03*
X91700000Y-93200000D03*
X91800000Y-115900000D03*
X91870000Y-81480000D03*
X91877385Y-103700000D03*
X91900000Y-112600000D03*
X92000000Y-87400000D03*
X92300000Y-127100000D03*
X92317894Y-117162156D03*
X92325000Y-119222808D03*
X92348195Y-124975886D03*
X92371525Y-121300000D03*
X92399998Y-129100000D03*
X92490000Y-68080000D03*
X92490000Y-70880000D03*
X92670000Y-83080000D03*
X92920000Y-81380000D03*
X93000000Y-110000000D03*
X93100000Y-101700000D03*
X93200000Y-93600000D03*
X93300000Y-64300000D03*
X93300000Y-136600000D03*
X93350000Y-135250000D03*
X93400000Y-89300000D03*
X93500000Y-111600000D03*
X93600000Y-74200000D03*
X93600000Y-114400000D03*
X93600000Y-118000000D03*
X93951393Y-90351393D03*
X93961231Y-104196393D03*
X94576180Y-108297520D03*
X94761225Y-104200003D03*
X95106475Y-106877697D03*
X95300000Y-110000000D03*
X95400000Y-136700000D03*
X95500000Y-99100000D03*
X95500000Y-101100000D03*
X95500000Y-103000000D03*
X95500000Y-112400000D03*
X95600000Y-104900000D03*
X95600000Y-114400000D03*
X95765932Y-92838068D03*
X95825654Y-91600000D03*
X95900000Y-67100000D03*
X95900000Y-72400000D03*
X95900000Y-96500000D03*
X95960000Y-78210000D03*
X96000000Y-69400000D03*
X96000000Y-75300000D03*
X96072982Y-106253317D03*
X96200000Y-131000000D03*
X96250000Y-93475000D03*
X96307619Y-92249357D03*
X96450000Y-135450000D03*
X96700000Y-64600000D03*
X96800000Y-132100000D03*
X96996722Y-107014547D03*
X97160000Y-90300000D03*
X97200000Y-103400000D03*
X97350000Y-76800000D03*
X97400000Y-99100000D03*
X97400000Y-101100000D03*
X97600000Y-67075000D03*
X97623434Y-119200000D03*
X97628223Y-115891148D03*
X97649999Y-129100000D03*
X97775059Y-104884812D03*
X97800000Y-106200000D03*
X97800000Y-131100000D03*
X97900000Y-72900000D03*
X97900000Y-85200000D03*
X97950000Y-89725000D03*
X97990000Y-90975000D03*
X98275000Y-136250000D03*
X98300000Y-132550000D03*
X98700000Y-130400000D03*
X98792500Y-102100000D03*
X98900000Y-126000000D03*
X98921181Y-104328857D03*
X98925000Y-65950000D03*
X98950000Y-75100000D03*
X98950000Y-135100000D03*
X98950000Y-135825000D03*
X98950000Y-136575000D03*
X98975000Y-131450000D03*
X98975000Y-132175000D03*
X98975000Y-132925000D03*
X99000000Y-129500000D03*
X99200000Y-137225000D03*
X99295047Y-97900560D03*
X99300000Y-84200000D03*
X99350000Y-133550000D03*
X99500000Y-100500000D03*
X99500000Y-128700000D03*
X99700000Y-103100000D03*
X99700000Y-127000000D03*
X99775000Y-132925000D03*
X99800000Y-119500000D03*
X99875000Y-136950000D03*
X99900000Y-124966008D03*
X99919427Y-96532056D03*
X100000000Y-68000000D03*
X100000000Y-94400000D03*
X100013512Y-99046682D03*
X100075000Y-70125000D03*
X100161388Y-105894084D03*
X100200000Y-82800000D03*
X100300000Y-73750000D03*
X100400000Y-117500000D03*
X100500000Y-120400000D03*
X100575000Y-132925000D03*
X100600000Y-128400000D03*
X100600000Y-136975000D03*
X100700000Y-95350000D03*
X100728116Y-83245306D03*
X100780000Y-124620000D03*
X100900000Y-64400000D03*
X100900000Y-121400000D03*
X100900000Y-126000000D03*
X101200000Y-101100000D03*
X101279378Y-99397362D03*
X101300000Y-82300000D03*
X101325000Y-137000000D03*
X101700000Y-128500000D03*
X101900000Y-81700000D03*
X101903121Y-85159375D03*
X101925000Y-137350000D03*
X102000000Y-70100000D03*
X102000000Y-94600000D03*
X102030000Y-72160000D03*
X102250000Y-135275000D03*
X102250000Y-136000000D03*
X102250000Y-136750000D03*
X102262991Y-98593365D03*
X102300000Y-125700000D03*
X102550000Y-81050000D03*
X102700000Y-119200000D03*
X102800000Y-102000000D03*
X102850000Y-136375000D03*
X102900000Y-84100000D03*
X102950000Y-113900000D03*
X103141808Y-128955692D03*
X103200000Y-80400000D03*
X103275000Y-126800000D03*
X103400000Y-66000000D03*
X103500000Y-99300000D03*
X103500000Y-126175000D03*
X103700000Y-105300000D03*
X103895253Y-120271392D03*
X103900000Y-83000000D03*
X103900000Y-94200000D03*
X103900000Y-100300000D03*
X103953359Y-96123381D03*
X103953359Y-96790526D03*
X104000000Y-122000000D03*
X104000000Y-124300000D03*
X104096834Y-85128907D03*
X104200000Y-101200000D03*
X104238301Y-68800000D03*
X104400000Y-103700000D03*
X104400000Y-104600000D03*
X104400000Y-136900000D03*
X104595253Y-120271392D03*
X104600000Y-125600000D03*
X104625000Y-126962500D03*
X104720000Y-65170000D03*
X104740000Y-64410000D03*
X104950049Y-80908835D03*
X104954078Y-96559591D03*
X105200000Y-123100000D03*
X105370253Y-120271392D03*
X105575000Y-64725000D03*
X105600000Y-64050000D03*
X105600000Y-65400000D03*
X105800000Y-125700000D03*
X105800000Y-137000000D03*
X105927231Y-98682388D03*
X105943328Y-81076236D03*
X106000000Y-107700000D03*
X106070254Y-120271392D03*
X106300000Y-113000000D03*
X106301705Y-101252366D03*
X106308947Y-79994613D03*
X106318908Y-83641969D03*
X106620000Y-72780000D03*
X106620000Y-74047258D03*
X106670000Y-71280000D03*
X106684034Y-75328466D03*
X106720000Y-68980000D03*
X106720000Y-70241881D03*
X106725092Y-95160073D03*
X106790000Y-76770000D03*
X106795253Y-120271392D03*
X106850000Y-78125000D03*
X106850000Y-115825000D03*
X107000000Y-127100000D03*
X107200000Y-103600000D03*
X107200000Y-137000000D03*
X107217106Y-105374340D03*
X107299997Y-84000000D03*
X107300000Y-99400000D03*
X107340408Y-98612348D03*
X107400000Y-80600000D03*
X107400000Y-121200000D03*
X107600000Y-106800000D03*
X107699640Y-96277337D03*
X107717825Y-94281937D03*
X107760073Y-95160073D03*
X107800000Y-103400000D03*
X107802278Y-101203953D03*
X108000000Y-126300000D03*
X108029655Y-105203277D03*
X108100000Y-84700000D03*
X108100000Y-98700000D03*
X108117768Y-128408082D03*
X108388710Y-129021466D03*
X108500000Y-136175000D03*
X108597721Y-100370021D03*
X108600000Y-125600000D03*
X108670235Y-80009847D03*
X108787500Y-95160073D03*
X108800000Y-102000000D03*
X108800000Y-113050000D03*
X108900000Y-67700000D03*
X109073593Y-129123069D03*
X109100000Y-107000000D03*
X109129095Y-96437331D03*
X109175000Y-135075000D03*
X109175000Y-135800000D03*
X109175000Y-136550000D03*
X109300000Y-83150000D03*
X109316186Y-99574578D03*
X109350707Y-97750707D03*
X109400000Y-85962949D03*
X109400000Y-87225000D03*
X109400000Y-137250000D03*
X109636681Y-124203407D03*
X109671489Y-94142978D03*
X109796241Y-96557075D03*
X109800000Y-101300000D03*
X109900000Y-86600001D03*
X109900000Y-87850000D03*
X110000000Y-115850000D03*
X110027657Y-85225872D03*
X110074999Y-136875000D03*
X110225000Y-64125000D03*
X110295253Y-120271392D03*
X110641117Y-88475000D03*
X110700000Y-112700000D03*
X110800000Y-84500000D03*
X110800000Y-136875000D03*
X110925000Y-64125000D03*
X111100000Y-83200000D03*
X111100000Y-106400000D03*
X111200000Y-108200000D03*
X111300000Y-102200000D03*
X111430819Y-103975650D03*
X111550000Y-136875000D03*
X111600000Y-110500000D03*
X111625000Y-64125000D03*
X111660000Y-129700000D03*
X111700000Y-95400000D03*
X111969668Y-99087523D03*
X111969668Y-101191598D03*
X112050000Y-115150000D03*
X112200000Y-137275000D03*
X112264427Y-129245573D03*
X112266394Y-94835020D03*
X112300000Y-130150000D03*
X112400000Y-135075000D03*
X112400000Y-135800000D03*
X112400000Y-136550000D03*
X112450000Y-131700000D03*
X112475000Y-112275000D03*
X112500000Y-79125000D03*
X112600000Y-109300000D03*
X112700000Y-65500000D03*
X112700000Y-68300000D03*
X112700000Y-71100000D03*
X112700000Y-73900000D03*
X113025000Y-136175000D03*
X113100000Y-131900000D03*
X113294961Y-95649643D03*
X113400000Y-97900000D03*
X113550000Y-133350000D03*
X113580066Y-84752598D03*
X113600000Y-101500000D03*
X113820000Y-119600000D03*
X113835000Y-114099619D03*
X113900000Y-105400000D03*
X113950000Y-81475000D03*
X114100000Y-64100000D03*
X114100000Y-66900000D03*
X114100000Y-69700000D03*
X114100000Y-72500000D03*
X114100000Y-75300000D03*
X114100000Y-78100000D03*
X114100000Y-99500000D03*
X114100000Y-137000000D03*
X114185000Y-113499619D03*
X114400000Y-96800000D03*
X114400000Y-108200000D03*
X114420000Y-119690000D03*
X114485000Y-114099619D03*
X114500000Y-112900000D03*
X114550000Y-129650000D03*
X114835000Y-113499619D03*
X114900000Y-101600000D03*
X114900000Y-104900000D03*
X114990000Y-119900000D03*
X115000000Y-109700000D03*
X115000000Y-135700000D03*
X115051927Y-128663399D03*
X115185000Y-114099619D03*
X115200000Y-112900000D03*
X115485000Y-113499619D03*
X115500000Y-65500000D03*
X115500000Y-68300000D03*
X115500000Y-71100000D03*
X115500000Y-73900000D03*
X115500000Y-79500000D03*
X115500000Y-120210000D03*
X115575000Y-87925000D03*
X115900000Y-137100000D03*
X115923768Y-128365087D03*
X116200000Y-88500000D03*
X116500000Y-81450000D03*
X116700000Y-84450000D03*
X116700000Y-86974698D03*
X116870624Y-94199396D03*
X116900000Y-64100000D03*
X116900000Y-66900000D03*
X116900000Y-69700000D03*
X116900000Y-75300000D03*
X116900000Y-78100000D03*
X117000000Y-89100000D03*
X117000000Y-135800000D03*
X117220985Y-128770159D03*
X117775000Y-86987442D03*
X118000000Y-120200000D03*
X118039411Y-129359805D03*
X118300000Y-65500000D03*
X118300000Y-68300000D03*
X118300000Y-79500000D03*
X118300000Y-94800000D03*
X118300000Y-137100000D03*
X118400000Y-88300000D03*
X118498836Y-110520170D03*
X118510000Y-127500000D03*
X118580493Y-133650000D03*
X118700000Y-104900000D03*
X118700000Y-115700000D03*
X118800000Y-107600000D03*
X118800000Y-120800000D03*
X118886762Y-109677071D03*
X118900000Y-100900000D03*
X119025000Y-86991321D03*
X119100000Y-128900000D03*
X119250000Y-102800000D03*
X119250000Y-103700000D03*
X119500000Y-95800000D03*
X119555357Y-121366581D03*
X119609493Y-122633418D03*
X119700000Y-64100000D03*
X119700000Y-66900000D03*
X119700000Y-69700000D03*
X119700000Y-75300000D03*
X119700000Y-80900000D03*
X119700000Y-106200000D03*
X119800000Y-97600000D03*
X119834999Y-99300000D03*
X119834999Y-100200000D03*
X119834999Y-101200000D03*
X119840000Y-133520000D03*
X119900000Y-94300000D03*
X119900000Y-110643259D03*
X120035000Y-103225000D03*
X120075000Y-86900000D03*
X120233098Y-134349967D03*
X120279999Y-98779999D03*
X120300000Y-81500000D03*
X120300000Y-84450000D03*
X120400000Y-121800000D03*
X120597978Y-133816724D03*
X120600000Y-107600000D03*
X120600000Y-111200000D03*
X120700000Y-86100000D03*
X120700000Y-104900000D03*
X120850000Y-102750000D03*
X120900000Y-101600000D03*
X120900000Y-103700000D03*
X120904999Y-98154999D03*
X121100000Y-65500000D03*
X121100000Y-68300000D03*
X121100000Y-71100000D03*
X121100000Y-73900000D03*
X121100000Y-76700000D03*
X121200000Y-99300000D03*
X121230915Y-127624246D03*
X121300000Y-95700000D03*
X121300000Y-119200000D03*
X121400000Y-133700000D03*
X121479999Y-97579999D03*
X121500000Y-79000000D03*
X121587656Y-81421348D03*
X121688131Y-127217832D03*
X121700000Y-100400000D03*
X121700000Y-119800000D03*
X122000000Y-102200000D03*
X122100000Y-119200000D03*
X122300000Y-97550000D03*
X122330000Y-94480000D03*
X122500000Y-64100000D03*
X122500000Y-66900000D03*
X122500000Y-69700000D03*
X122860000Y-96380000D03*
X123040000Y-93770000D03*
X123141367Y-127875000D03*
X123200000Y-133700000D03*
X123425000Y-127105000D03*
X123580000Y-92960000D03*
X123900000Y-65500000D03*
X123900000Y-68300000D03*
X123900000Y-133750000D03*
X124200000Y-88830000D03*
X124350000Y-129150000D03*
X124380000Y-96540000D03*
X124400000Y-137000000D03*
X124540000Y-128290000D03*
X124675000Y-131550000D03*
X125000000Y-119100000D03*
X125034999Y-107860001D03*
X125035000Y-108510000D03*
X125035000Y-109210000D03*
X125035000Y-109860001D03*
X125050000Y-89480000D03*
X125100000Y-118400000D03*
X125200000Y-93700000D03*
X125200000Y-96000000D03*
X125300000Y-64100000D03*
X125300000Y-66900000D03*
X125375000Y-98550000D03*
X125375000Y-99250000D03*
X125375000Y-100025000D03*
X125375000Y-100725000D03*
X125375000Y-101450000D03*
X125375000Y-102150000D03*
X125375000Y-102850000D03*
X125375000Y-103550000D03*
X125375000Y-104250000D03*
X125375000Y-104950000D03*
X125400000Y-112800000D03*
X125400000Y-113600000D03*
X125400000Y-114400000D03*
X125560000Y-91210000D03*
X125600000Y-126200000D03*
X125634998Y-108860001D03*
X125634999Y-109510000D03*
X125635000Y-108210000D03*
X125840000Y-88780000D03*
X125900000Y-95200000D03*
X126000000Y-126700000D03*
X126382264Y-67354842D03*
X126385000Y-68635000D03*
X126400000Y-127200000D03*
X126420000Y-69870000D03*
X126500000Y-71050000D03*
X126550000Y-72300000D03*
X126590000Y-89450000D03*
X126590000Y-92670000D03*
X126600000Y-73500000D03*
X126700000Y-65500000D03*
X126700000Y-125300000D03*
X126922124Y-132893992D03*
X126948396Y-136750523D03*
X127100000Y-125800000D03*
X127215000Y-119275000D03*
X127225000Y-81670000D03*
X127250000Y-120000000D03*
X127253404Y-118144984D03*
X127300000Y-95100000D03*
X127350000Y-84425000D03*
X127400000Y-87200000D03*
X127500000Y-126300000D03*
X127600000Y-89600000D03*
X127700000Y-94400000D03*
X127720383Y-82756594D03*
X127900000Y-96100000D03*
X127900000Y-97300000D03*
X127984379Y-108444845D03*
X127984379Y-109244844D03*
X128000000Y-84400000D03*
X128250000Y-96700000D03*
X128250000Y-97900000D03*
X128484379Y-108844845D03*
X128500000Y-88400000D03*
X128500000Y-94500000D03*
X128600000Y-96100000D03*
X128600000Y-97300000D03*
X128650000Y-84400000D03*
X128751000Y-128994835D03*
X128900000Y-133600000D03*
X128950000Y-96700000D03*
X128950000Y-97900000D03*
X128984379Y-108444845D03*
X128984379Y-109244845D03*
X129050000Y-130100000D03*
X129100000Y-132300000D03*
X129300000Y-96100000D03*
X129300000Y-97300000D03*
X129439567Y-82611190D03*
X129600000Y-132900000D03*
X129700000Y-96700000D03*
X129712500Y-84800000D03*
X129712500Y-86100000D03*
X129712500Y-87400000D03*
X129750000Y-64475000D03*
X129775000Y-65850000D03*
X129800000Y-77500000D03*
X129800000Y-117900000D03*
X129820000Y-80500000D03*
X129900000Y-65150000D03*
X129900000Y-131100000D03*
X129975000Y-136800000D03*
X130000000Y-72700000D03*
X130000000Y-97300000D03*
X130025000Y-96100000D03*
X130113235Y-111736765D03*
X130375000Y-96700000D03*
X130494867Y-106874864D03*
X130500000Y-78900000D03*
X130500000Y-112500000D03*
X130700000Y-97300000D03*
X130700000Y-117900000D03*
X130712499Y-90407066D03*
X130712500Y-89473856D03*
X130725000Y-96100000D03*
X130800000Y-131100000D03*
X130990000Y-74440000D03*
X131000000Y-93200000D03*
X131125000Y-96700000D03*
X131175000Y-88075000D03*
X131300000Y-77500000D03*
X131300000Y-80480000D03*
X131400000Y-72700000D03*
X131574997Y-110450002D03*
X131574998Y-109100000D03*
X131574999Y-108450002D03*
X131574999Y-109800000D03*
X131600000Y-131000000D03*
X131611479Y-130092687D03*
X131800000Y-100800000D03*
X131810000Y-70160000D03*
X131825000Y-103575000D03*
X131825000Y-104350000D03*
X131830000Y-68140000D03*
X131900000Y-94450000D03*
X131900000Y-133000000D03*
X132000000Y-113700000D03*
X132100000Y-86625000D03*
X132100000Y-124400000D03*
X132174998Y-108800000D03*
X132174999Y-109450001D03*
X132174999Y-110100000D03*
X132200000Y-88100000D03*
X132200000Y-97500000D03*
X132300000Y-99300000D03*
X132400000Y-73000000D03*
X132495925Y-123607057D03*
X132500000Y-132300000D03*
X132550000Y-82529999D03*
X132638421Y-123034157D03*
X132660000Y-67810000D03*
X132680975Y-124180976D03*
X132700000Y-133700000D03*
X132925000Y-136700000D03*
X133100000Y-90700000D03*
X133100000Y-95900000D03*
X133100000Y-102100000D03*
X133140000Y-123590000D03*
X133200002Y-122997753D03*
X133220000Y-93970000D03*
X133280000Y-98670000D03*
X133300000Y-80700000D03*
X133300000Y-100600000D03*
X133300000Y-131300000D03*
X133300000Y-132400000D03*
X133400000Y-82525000D03*
X133448750Y-78701250D03*
X133500000Y-134900000D03*
X133530000Y-68140000D03*
X133570000Y-70150000D03*
X133600000Y-113400000D03*
X133610000Y-74250000D03*
X133610000Y-74870000D03*
X133775000Y-131825000D03*
X133950000Y-81450000D03*
X133975000Y-132525000D03*
X134000000Y-131100000D03*
X134000000Y-133800000D03*
X134050000Y-86600000D03*
X134100000Y-126600000D03*
X134230000Y-74250000D03*
X134230000Y-74870000D03*
X134319999Y-81000000D03*
X134390000Y-67800000D03*
X135100000Y-133400000D03*
X135200000Y-113200000D03*
X135234999Y-78834999D03*
X135270000Y-68130000D03*
X135300000Y-81100000D03*
X135300000Y-92650000D03*
X135330000Y-70140000D03*
X135400000Y-102600000D03*
X135400000Y-111300000D03*
X135400000Y-115100000D03*
X135442686Y-73046646D03*
X135500000Y-76200000D03*
X135800000Y-77120000D03*
X135862643Y-79360511D03*
X136000000Y-86900000D03*
X136039704Y-89206286D03*
X136100000Y-81400000D03*
X136300000Y-133400000D03*
X136400000Y-64100000D03*
X136438678Y-72705259D03*
X136575000Y-130975000D03*
X136650000Y-132375000D03*
X136800000Y-75025000D03*
X136800000Y-76425000D03*
X136850000Y-131675000D03*
X136930000Y-81380000D03*
X137100000Y-67300000D03*
X137200000Y-64100000D03*
X137200000Y-64900000D03*
X137200000Y-73900000D03*
X137200000Y-85800000D03*
X137200000Y-133800000D03*
X137300000Y-79400000D03*
X137300000Y-131100000D03*
X137300000Y-132200000D03*
D11*
%TO.C,ESP2*%
X116770000Y-72180000D03*
X116770000Y-73580000D03*
X117470000Y-71480000D03*
X117470000Y-72880000D03*
X117470000Y-74280000D03*
X118170000Y-72180000D03*
X118170000Y-73580000D03*
X118870000Y-71480000D03*
X118870000Y-72880000D03*
X118870000Y-74280000D03*
X119570000Y-72180000D03*
X119570000Y-73580000D03*
D12*
%TO.C,audio_socket1*%
X132580000Y-66260000D03*
X134580001Y-66260000D03*
D13*
%TO.C,J6*%
X73246854Y-84211874D03*
X73250000Y-86760001D03*
X73250000Y-89300001D03*
X73250000Y-91840001D03*
X73250000Y-94380001D03*
X73250000Y-96920000D03*
X73250000Y-99460000D03*
X73250000Y-102000001D03*
X73250000Y-104540001D03*
X73250000Y-107080001D03*
X73250000Y-109620001D03*
X73250000Y-112160000D03*
X73250000Y-114700000D03*
X73250000Y-117150001D03*
%TO.C,J1*%
X135340000Y-129115000D03*
X135340000Y-131655000D03*
M02*
