M48
; DRILL file {KiCad 9.0.0} date 2026-05-04T13:27:36+0300
; FORMAT={-:-/ absolute / metric / decimal}
; #@! TF.CreationDate,2026-05-04T13:27:36+03:00
; #@! TF.GenerationSoftware,Kicad,Pcbnew,9.0.0
; #@! TF.FileFunction,Plated,1,4,PTH
FMAT,2
METRIC
; #@! TA.AperFunction,Plated,PTH,ComponentDrill
T1C0.200
; #@! TA.AperFunction,Plated,PTH,ViaDrill
T2C0.300
; #@! TA.AperFunction,Plated,PTH,ComponentDrill
T3C0.800
; #@! TA.AperFunction,Plated,PTH,ComponentDrill
T4C1.000
%
G90
G05
T1
X116.77Y-72.18
X116.77Y-73.58
X117.47Y-71.48
X117.47Y-72.88
X117.47Y-74.28
X118.17Y-72.18
X118.17Y-73.58
X118.87Y-71.48
X118.87Y-72.88
X118.87Y-74.28
X119.57Y-72.18
X119.57Y-73.58
T2
X76.39Y-96.02
X76.4Y-95.21
X76.4Y-108.3
X76.43Y-92.69
X76.43Y-93.5
X76.44Y-90.1
X76.44Y-90.9
X76.8Y-68.9
X76.862Y-74.024
X76.864Y-78.049
X76.869Y-72.041
X76.88Y-76.043
X77.3Y-118.5
X77.4Y-127.4
X77.4Y-129.1
X78.2Y-107.4
X78.2Y-109.2
X78.2Y-123.5
X78.5Y-122.6
X79.0Y-115.8
X79.14Y-81.785
X80.148Y-70.067
X80.202Y-72.051
X80.21Y-74.049
X80.21Y-78.049
X80.237Y-76.047
X80.3Y-107.0
X80.3Y-109.7
X80.33Y-90.52
X81.29Y-68.08
X81.29Y-70.88
X81.4Y-95.2
X81.404Y-96.109
X81.5Y-83.16
X81.52Y-85.32
X82.4Y-106.5
X82.4Y-110.1
X82.69Y-66.68
X82.69Y-69.48
X82.69Y-72.28
X83.3Y-119.6
X83.3Y-126.4
X83.3Y-129.1
X83.53Y-85.33
X83.54Y-88.46
X83.58Y-84.17
X83.85Y-110.675
X84.09Y-68.08
X84.09Y-70.88
X84.1Y-115.7
X84.55Y-97.65
X84.8Y-122.6
X84.9Y-123.6
X85.27Y-81.58
X85.3Y-114.075
X85.445Y-98.527
X85.49Y-66.68
X85.49Y-69.48
X85.49Y-72.28
X85.52Y-88.31
X86.35Y-99.45
X86.37Y-81.58
X86.7Y-93.775
X86.89Y-68.08
X86.89Y-70.88
X87.4Y-109.8
X87.47Y-81.58
X87.85Y-102.5
X88.0Y-95.38
X88.29Y-66.68
X88.29Y-69.48
X88.29Y-72.28
X88.33Y-90.49
X88.425Y-78.5
X88.45Y-81.45
X88.49Y-95.87
X88.675Y-113.725
X88.775Y-102.5
X89.2Y-108.3
X89.69Y-68.08
X89.69Y-70.88
X89.925Y-78.65
X89.925Y-109.775
X90.175Y-112.475
X90.225Y-80.95
X90.75Y-81.375
X90.875Y-78.675
X90.9Y-104.075
X90.9Y-106.775
X91.09Y-66.68
X91.09Y-69.48
X91.09Y-72.28
X91.5Y-122.5
X91.535Y-123.633
X91.858Y-115.742
X91.87Y-81.48
X91.877Y-103.7
X91.9Y-112.6
X91.91Y-87.4
X92.49Y-68.08
X92.49Y-70.88
X92.67Y-83.08
X92.92Y-81.38
X93.3Y-130.1
X93.416Y-89.316
X93.429Y-128.427
X93.617Y-118.656
X93.951Y-90.351
X93.961Y-106.396
X94.761Y-106.4
X95.766Y-92.838
X95.826Y-91.6
X95.96Y-78.21
X96.25Y-93.475
X96.308Y-92.249
X97.08Y-85.18
X97.16Y-90.3
X97.49Y-76.59
X97.6Y-67.075
X97.95Y-89.725
X97.99Y-90.975
X98.275Y-136.25
X98.3Y-132.55
X98.67Y-75.43
X98.75Y-85.18
X98.775Y-103.425
X98.8Y-129.1
X98.925Y-65.95
X98.95Y-125.45
X98.95Y-135.1
X98.95Y-135.825
X98.95Y-136.575
X98.956Y-116.522
X98.975Y-95.575
X98.975Y-131.45
X98.975Y-132.175
X98.975Y-132.925
X99.2Y-119.7
X99.2Y-137.225
X99.35Y-133.55
X99.405Y-95.154
X99.7Y-127.0
X99.775Y-132.925
X99.812Y-83.537
X99.825Y-94.725
X99.875Y-136.95
X99.89Y-74.2
X100.075Y-70.125
X100.575Y-132.925
X100.6Y-136.975
X100.625Y-82.725
X100.67Y-85.22
X100.78Y-124.62
X101.325Y-137.0
X101.362Y-81.987
X101.925Y-137.35
X101.975Y-96.625
X101.975Y-97.6
X101.975Y-98.625
X101.975Y-99.65
X102.03Y-72.16
X102.15Y-102.0
X102.162Y-81.188
X102.25Y-135.275
X102.25Y-136.0
X102.25Y-136.75
X102.3Y-129.3
X102.675Y-101.5
X102.85Y-136.375
X102.887Y-80.462
X102.95Y-113.9
X103.12Y-85.18
X103.142Y-128.956
X103.238Y-68.82
X103.238Y-70.96
X103.275Y-126.8
X103.4Y-132.6
X103.5Y-126.175
X103.75Y-104.425
X103.895Y-120.271
X104.2Y-103.725
X104.595Y-120.271
X104.72Y-65.17
X104.74Y-64.41
X104.95Y-80.909
X105.37Y-120.271
X105.575Y-64.725
X105.6Y-64.05
X105.6Y-65.4
X105.75Y-80.9
X105.86Y-85.2
X106.07Y-120.271
X106.3Y-113.0
X106.325Y-79.975
X106.34Y-103.78
X106.62Y-73.48
X106.62Y-74.73
X106.67Y-71.28
X106.67Y-72.18
X106.72Y-69.63
X106.76Y-68.16
X106.79Y-76.77
X106.795Y-120.271
X106.85Y-78.125
X106.85Y-115.825
X107.48Y-124.61
X107.495Y-120.271
X107.5Y-96.0
X107.643Y-100.145
X107.92Y-103.74
X108.0Y-94.7
X108.118Y-128.408
X108.195Y-120.271
X108.221Y-100.698
X108.325Y-125.55
X108.389Y-129.021
X108.5Y-136.175
X108.575Y-79.9
X108.72Y-85.16
X108.8Y-95.9
X108.8Y-101.25
X108.8Y-113.05
X108.9Y-67.7
X109.074Y-129.123
X109.175Y-135.075
X109.175Y-135.8
X109.175Y-136.55
X109.19Y-80.68
X109.29Y-81.8
X109.4Y-137.25
X109.637Y-124.203
X109.781Y-85.965
X109.8Y-85.1
X110.0Y-115.85
X110.075Y-136.875
X110.225Y-64.125
X110.283Y-86.588
X110.295Y-120.271
X110.641Y-88.475
X110.767Y-87.225
X110.8Y-136.875
X110.925Y-64.125
X111.2Y-108.2
X111.266Y-87.85
X111.5Y-112.5
X111.55Y-136.875
X111.625Y-64.125
X111.66Y-129.7
X111.92Y-89.1
X112.102Y-115.148
X112.2Y-137.275
X112.264Y-129.246
X112.3Y-130.15
X112.4Y-135.075
X112.4Y-135.8
X112.4Y-136.55
X112.45Y-131.7
X112.5Y-81.67
X112.6Y-109.3
X112.65Y-101.3
X112.7Y-65.5
X112.7Y-68.3
X112.7Y-71.1
X112.7Y-73.9
X113.025Y-136.175
X113.1Y-131.9
X113.325Y-79.1
X113.55Y-133.35
X113.575Y-89.1
X113.82Y-119.6
X113.835Y-114.1
X113.95Y-84.4
X114.1Y-64.1
X114.1Y-66.9
X114.1Y-69.7
X114.1Y-72.5
X114.1Y-75.3
X114.1Y-78.1
X114.185Y-113.5
X114.4Y-108.2
X114.42Y-119.69
X114.485Y-114.1
X114.5Y-112.9
X114.5Y-129.8
X114.835Y-113.5
X114.9Y-110.7
X114.96Y-128.683
X114.99Y-119.9
X115.185Y-114.1
X115.2Y-112.9
X115.485Y-113.5
X115.5Y-65.5
X115.5Y-68.3
X115.5Y-71.1
X115.5Y-73.9
X115.5Y-79.5
X115.5Y-109.4
X115.5Y-120.21
X115.84Y-95.17
X116.039Y-128.249
X116.275Y-84.1
X116.428Y-86.525
X116.525Y-87.95
X116.9Y-64.1
X116.9Y-66.9
X116.9Y-69.7
X116.9Y-75.3
X116.9Y-78.1
X116.9Y-80.9
X116.903Y-84.596
X117.0Y-88.9
X117.221Y-128.77
X117.775Y-86.987
X117.93Y-110.31
X117.94Y-105.43
X117.995Y-115.215
X118.02Y-94.22
X118.039Y-129.36
X118.3Y-65.5
X118.3Y-68.3
X118.3Y-79.5
X118.51Y-127.5
X119.025Y-86.991
X119.1Y-133.9
X119.7Y-64.1
X119.7Y-66.9
X119.7Y-69.7
X119.7Y-75.3
X119.7Y-80.9
X119.775Y-84.825
X119.84Y-133.52
X120.1Y-121.09
X120.26Y-134.33
X120.341Y-84.259
X120.4Y-121.8
X120.725Y-86.05
X120.796Y-84.917
X120.8Y-121.2
X120.975Y-133.775
X121.04Y-104.73
X121.1Y-65.5
X121.1Y-68.3
X121.1Y-71.1
X121.1Y-73.9
X121.1Y-76.7
X121.1Y-128.8
X121.5Y-121.1
X121.55Y-114.6
X121.575Y-86.55
X122.33Y-94.48
X122.5Y-64.1
X122.5Y-66.9
X122.5Y-69.7
X122.7Y-80.28
X122.86Y-96.38
X123.04Y-93.77
X123.141Y-127.875
X123.425Y-127.105
X123.5Y-80.8
X123.58Y-92.96
X123.75Y-133.75
X123.9Y-65.5
X123.9Y-68.3
X124.2Y-80.25
X124.2Y-88.83
X124.35Y-129.15
X124.38Y-96.54
X124.4Y-118.7
X124.54Y-128.29
X124.675Y-131.55
X125.0Y-119.1
X125.035Y-107.86
X125.035Y-108.51
X125.035Y-109.21
X125.035Y-109.86
X125.05Y-80.75
X125.05Y-89.48
X125.1Y-118.4
X125.2Y-96.0
X125.3Y-64.1
X125.3Y-66.9
X125.375Y-98.55
X125.375Y-99.25
X125.375Y-100.025
X125.375Y-100.725
X125.375Y-101.45
X125.375Y-102.15
X125.375Y-102.85
X125.375Y-103.55
X125.375Y-104.25
X125.375Y-104.95
X125.4Y-112.8
X125.4Y-113.6
X125.4Y-114.4
X125.4Y-120.4
X125.56Y-91.21
X125.6Y-126.2
X125.635Y-108.86
X125.635Y-109.51
X125.635Y-108.21
X125.84Y-88.78
X125.85Y-80.25
X126.0Y-126.7
X126.4Y-127.2
X126.59Y-89.45
X126.59Y-92.67
X126.6Y-80.8
X126.7Y-65.5
X126.7Y-125.3
X126.922Y-132.894
X126.948Y-136.751
X127.1Y-125.8
X127.215Y-119.275
X127.25Y-120.0
X127.253Y-118.145
X127.3Y-95.1
X127.5Y-84.425
X127.5Y-126.3
X127.9Y-96.1
X127.9Y-97.3
X128.0Y-94.7
X128.15Y-84.425
X128.25Y-96.7
X128.25Y-97.9
X128.6Y-96.1
X128.6Y-97.3
X128.751Y-128.995
X128.8Y-84.45
X128.8Y-94.7
X128.95Y-96.7
X128.95Y-97.9
X129.1Y-129.95
X129.3Y-96.1
X129.3Y-97.3
X129.7Y-96.7
X129.75Y-64.475
X129.775Y-65.85
X129.8Y-77.5
X129.82Y-80.5
X129.9Y-65.15
X129.975Y-136.8
X130.0Y-97.3
X130.025Y-96.1
X130.113Y-111.737
X130.375Y-96.7
X130.49Y-106.74
X130.5Y-131.175
X130.59Y-93.33
X130.7Y-97.3
X130.725Y-96.1
X130.99Y-74.44
X131.125Y-96.7
X131.175Y-88.075
X131.3Y-77.5
X131.3Y-80.48
X131.4Y-72.7
X131.575Y-110.45
X131.575Y-109.1
X131.575Y-108.45
X131.575Y-109.8
X131.625Y-130.225
X131.68Y-89.84
X131.8Y-100.8
X131.81Y-70.16
X131.82Y-94.51
X131.825Y-103.575
X131.825Y-104.35
X131.83Y-68.14
X132.1Y-86.625
X132.175Y-108.8
X132.175Y-109.45
X132.175Y-110.1
X132.2Y-88.1
X132.496Y-123.607
X132.55Y-82.53
X132.638Y-123.034
X132.66Y-67.81
X132.667Y-122.462
X132.925Y-136.7
X133.1Y-95.9
X133.1Y-102.1
X133.14Y-123.59
X133.2Y-122.998
X133.22Y-93.97
X133.28Y-98.67
X133.3Y-80.7
X133.3Y-131.3
X133.3Y-132.4
X133.4Y-82.525
X133.449Y-78.701
X133.53Y-68.14
X133.57Y-70.15
X133.6Y-113.4
X133.61Y-74.25
X133.61Y-74.87
X133.775Y-131.825
X133.975Y-132.525
X134.0Y-131.1
X134.1Y-126.6
X134.2Y-86.625
X134.23Y-74.25
X134.23Y-74.87
X134.32Y-80.8
X134.32Y-81.65
X134.32Y-82.47
X134.39Y-67.8
X135.12Y-80.96
X135.27Y-68.13
X135.31Y-91.03
X135.33Y-70.14
X135.8Y-77.12
X135.94Y-81.4
X136.439Y-72.705
X136.575Y-130.975
X136.65Y-132.375
X136.8Y-75.025
X136.8Y-76.425
X136.85Y-131.675
X136.93Y-81.38
X137.3Y-131.1
X137.3Y-132.2
T3
X132.58Y-66.26
X134.58Y-66.26
T4
X73.215Y-84.18
X73.215Y-86.72
X73.215Y-89.26
X73.215Y-91.8
X73.215Y-94.34
X73.215Y-96.88
X73.215Y-99.42
X73.215Y-101.96
X73.215Y-104.5
X73.215Y-107.04
X73.215Y-109.58
X73.215Y-112.12
X73.215Y-114.66
X73.215Y-117.11
X135.34Y-129.115
X135.34Y-131.655
M30
