%TF.GenerationSoftware,KiCad,Pcbnew,9.0.0*%
%TF.CreationDate,2026-05-04T13:27:43+03:00*%
%TF.ProjectId,sharpCONSOLE,73686172-7043-44f4-9e53-4f4c452e6b69,rev?*%
%TF.SameCoordinates,Original*%
%TF.FileFunction,Legend,Top*%
%TF.FilePolarity,Positive*%
%FSLAX46Y46*%
G04 Gerber Fmt 4.6, Leading zero omitted, Abs format (unit mm)*
G04 Created by KiCad (PCBNEW 9.0.0) date 2026-05-04 13:27:43*
%MOMM*%
%LPD*%
G01*
G04 APERTURE LIST*
%ADD10C,0.200000*%
%ADD11C,0.250000*%
%ADD12C,0.235000*%
%ADD13C,0.120000*%
%ADD14C,0.127000*%
%ADD15C,0.150000*%
%ADD16C,0.152400*%
%ADD17C,0.223606*%
%ADD18C,0.000000*%
G04 APERTURE END LIST*
D10*
X92769997Y-92819999D02*
X93069998Y-92519999D01*
X126560709Y-134780709D02*
X127918354Y-133423064D01*
X126560709Y-134780709D02*
X128459290Y-136679290D01*
D11*
X97225000Y-133487500D02*
X97225000Y-132962500D01*
D10*
X120651177Y-135068822D02*
X122008822Y-133711177D01*
X95069998Y-92820000D02*
X93870000Y-94019998D01*
D11*
X137297931Y-91146883D02*
G75*
G02*
X136442069Y-91146883I-427931J-427931D01*
G01*
D10*
X129593064Y-134708354D02*
X130950709Y-133350709D01*
X133900000Y-135680000D02*
X133900457Y-135640003D01*
X134097759Y-134871886D02*
X134116634Y-134836621D01*
X134646340Y-134246415D02*
X134679367Y-134223850D01*
X135421759Y-133944948D02*
X135461473Y-133940185D01*
X136248762Y-134035620D02*
X136286188Y-134049735D01*
X136940439Y-134497939D02*
X136967118Y-134527741D01*
X137340464Y-135227416D02*
X137350366Y-135266170D01*
X137358427Y-136059181D02*
X137349314Y-136098129D01*
X136990268Y-136805248D02*
X136964200Y-136835586D01*
X136319195Y-137296997D02*
X136282063Y-137311869D01*
X135496877Y-137423288D02*
X135457074Y-137419333D01*
X134709166Y-137155579D02*
X134675688Y-137133690D01*
X134134094Y-136554373D02*
X134114506Y-136519499D01*
X133901632Y-135755551D02*
X133900362Y-135715572D01*
X92769997Y-92819999D02*
X93069997Y-93119999D01*
X130950709Y-133350709D02*
X132849290Y-135249290D01*
X95069998Y-92820000D02*
X95069998Y-90519999D01*
X129593064Y-134708354D02*
X131491645Y-136606935D01*
X95069998Y-92820000D02*
X92769997Y-92819999D01*
X93870000Y-94019998D02*
X94269999Y-94019998D01*
D11*
X97487500Y-135050000D02*
X97487410Y-135055619D01*
X97487340Y-135061172D01*
X97487292Y-135066617D01*
X97487265Y-135071999D01*
X97487258Y-135077276D01*
X97487271Y-135082491D01*
X97487304Y-135087604D01*
X97487357Y-135092657D01*
X97487429Y-135097612D01*
X97487519Y-135102508D01*
X97487628Y-135107309D01*
X97487756Y-135112052D01*
X97487901Y-135116703D01*
X97488064Y-135121298D01*
X97488245Y-135125804D01*
X97488443Y-135130255D01*
X97488657Y-135134619D01*
X97488888Y-135138930D01*
X97489136Y-135143157D01*
X97489400Y-135147333D01*
X97489679Y-135151427D01*
X97489974Y-135155470D01*
X97490284Y-135159435D01*
X97490610Y-135163351D01*
X97490950Y-135167190D01*
X97491306Y-135170981D01*
X97491675Y-135174699D01*
X97492059Y-135178370D01*
X97492456Y-135181969D01*
X97492868Y-135185523D01*
X97493292Y-135189008D01*
X97493731Y-135192449D01*
X97494181Y-135195822D01*
X97494646Y-135199153D01*
X97495122Y-135202418D01*
X97495612Y-135205642D01*
X97496112Y-135208802D01*
X97496627Y-135211923D01*
X97497152Y-135214982D01*
X97497690Y-135218001D01*
X97498238Y-135220962D01*
X97498799Y-135223884D01*
X97499369Y-135226749D01*
X97499953Y-135229577D01*
X97500545Y-135232350D01*
X97501151Y-135235086D01*
X97501764Y-135237769D01*
X97502391Y-135240416D01*
X97503025Y-135243012D01*
X97503672Y-135245574D01*
X97504327Y-135248085D01*
X97504993Y-135250563D01*
X97505668Y-135252993D01*
X97506354Y-135255390D01*
X97507047Y-135257741D01*
X97507752Y-135260060D01*
X97508464Y-135262334D01*
X97509188Y-135264577D01*
X97509918Y-135266777D01*
X97510660Y-135268947D01*
X97511408Y-135271075D01*
X97512167Y-135273173D01*
X97512933Y-135275231D01*
X97513709Y-135277261D01*
X97514492Y-135279252D01*
X97515286Y-135281215D01*
X97516086Y-135283140D01*
X97516896Y-135285039D01*
X97517712Y-135286901D01*
X97518539Y-135288737D01*
X97519372Y-135290538D01*
X97520215Y-135292313D01*
X97521064Y-135294055D01*
X97521923Y-135295772D01*
X97522789Y-135297457D01*
X97523664Y-135299116D01*
X97524546Y-135300746D01*
X97525437Y-135302351D01*
X97526335Y-135303927D01*
X97527241Y-135305478D01*
X97528155Y-135307002D01*
X97529078Y-135308502D01*
X97530008Y-135309976D01*
X97530947Y-135311426D01*
X97531893Y-135312851D01*
X97532848Y-135314253D01*
X97533811Y-135315631D01*
X97534782Y-135316987D01*
X97535761Y-135318319D01*
X97536748Y-135319629D01*
X97537744Y-135320917D01*
X97538749Y-135322184D01*
X97539762Y-135323429D01*
X97540783Y-135324653D01*
X97541813Y-135325857D01*
X97542852Y-135327039D01*
X97543900Y-135328203D01*
X97544957Y-135329346D01*
X97546024Y-135330470D01*
X97547099Y-135331575D01*
X97548184Y-135332661D01*
X97549278Y-135333728D01*
X97551496Y-135335808D01*
X97553754Y-135337816D01*
X97556054Y-135339755D01*
X97558397Y-135341627D01*
X97560785Y-135343433D01*
X97563220Y-135345175D01*
X97565704Y-135346854D01*
X97568239Y-135348471D01*
X97570828Y-135350029D01*
X97573473Y-135351528D01*
X97576177Y-135352968D01*
X97578944Y-135354352D01*
X97581776Y-135355680D01*
X97584678Y-135356952D01*
X97587653Y-135358170D01*
X97590705Y-135359334D01*
X97593840Y-135360444D01*
X97597063Y-135361500D01*
X97600379Y-135362504D01*
X97603795Y-135363455D01*
X97607319Y-135364354D01*
X97610958Y-135365200D01*
X97614722Y-135365993D01*
X97618621Y-135366735D01*
X97622668Y-135367423D01*
X97626878Y-135368059D01*
X97631266Y-135368643D01*
X97635856Y-135369173D01*
X97640671Y-135369650D01*
X97645745Y-135370073D01*
X97651121Y-135370443D01*
X97656854Y-135370760D01*
X97663025Y-135371022D01*
X97669756Y-135371231D01*
X97677243Y-135371387D01*
X97685858Y-135371492D01*
X97696495Y-135371551D01*
X97704452Y-135371570D01*
X97718486Y-135371615D01*
X97725585Y-135371668D01*
X97732734Y-135371757D01*
X97739932Y-135371895D01*
X97747174Y-135372093D01*
X97754460Y-135372363D01*
X97758117Y-135372529D01*
X97761785Y-135372718D01*
X97765461Y-135372931D01*
X97769147Y-135373170D01*
X97772841Y-135373436D01*
X97776543Y-135373731D01*
X97780253Y-135374055D01*
X97783970Y-135374412D01*
X97787695Y-135374802D01*
X97791427Y-135375226D01*
X97795165Y-135375687D01*
X97798909Y-135376185D01*
X97802659Y-135376723D01*
X97806414Y-135377301D01*
X97810175Y-135377922D01*
X97813940Y-135378587D01*
X97817709Y-135379296D01*
X97821483Y-135380053D01*
X97825260Y-135380858D01*
X97829041Y-135381713D01*
X97832825Y-135382619D01*
X97836611Y-135383578D01*
X97840400Y-135384591D01*
X97844191Y-135385660D01*
X97847983Y-135386786D01*
X97851776Y-135387971D01*
X97855571Y-135389217D01*
X97859366Y-135390524D01*
X97863161Y-135391895D01*
X97866957Y-135393331D01*
X97870752Y-135394833D01*
X97874546Y-135396403D01*
X97878338Y-135398043D01*
X97882130Y-135399753D01*
X97885919Y-135401536D01*
X97889707Y-135403393D01*
X97893492Y-135405325D01*
X97897274Y-135407335D01*
X97901053Y-135409422D01*
X97904828Y-135411590D01*
X97908599Y-135413839D01*
X97912366Y-135416172D01*
X97916129Y-135418588D01*
X97919886Y-135421091D01*
X97923639Y-135423681D01*
X97927385Y-135426361D01*
X97931126Y-135429130D01*
X97934860Y-135431992D01*
X97938588Y-135434948D01*
X97942308Y-135437998D01*
X97946022Y-135441145D01*
X97949727Y-135444391D01*
X97951577Y-135446050D01*
X97953425Y-135447735D01*
X97955270Y-135449445D01*
X97957114Y-135451181D01*
X97958955Y-135452942D01*
X97960794Y-135454730D01*
X97962631Y-135456543D01*
X97964465Y-135458382D01*
X97966298Y-135460248D01*
X97968127Y-135462140D01*
X97969955Y-135464060D01*
X97971779Y-135466006D01*
X97973602Y-135467979D01*
X97975421Y-135469980D01*
X97977238Y-135472008D01*
X97979053Y-135474064D01*
X97980864Y-135476148D01*
X97982673Y-135478260D01*
X97984479Y-135480400D01*
X97986283Y-135482569D01*
X97988083Y-135484766D01*
X97989881Y-135486992D01*
X97991675Y-135489248D01*
X97993467Y-135491532D01*
X97995255Y-135493846D01*
X97997040Y-135496190D01*
X97998823Y-135498563D01*
X98000602Y-135500966D01*
X98002378Y-135503400D01*
X98004150Y-135505864D01*
X98005919Y-135508358D01*
X98007685Y-135510884D01*
X98009448Y-135513440D01*
X98011207Y-135516027D01*
X98012962Y-135518646D01*
X98014714Y-135521296D01*
X98016463Y-135523977D01*
X98018208Y-135526691D01*
X98019949Y-135529437D01*
X98021686Y-135532215D01*
X98023420Y-135535025D01*
X98025150Y-135537868D01*
X98026876Y-135540744D01*
X98028599Y-135543653D01*
X98030317Y-135546595D01*
X98032031Y-135549570D01*
X98033742Y-135552579D01*
X98035448Y-135555622D01*
X98037150Y-135558699D01*
X98038848Y-135561809D01*
X98040542Y-135564955D01*
X98042232Y-135568134D01*
X98045599Y-135574598D01*
X98048948Y-135581202D01*
X98052279Y-135587948D01*
X98055593Y-135594837D01*
X98058888Y-135601871D01*
X98062164Y-135609051D01*
X98065421Y-135616379D01*
X98068658Y-135623857D01*
X98071876Y-135631486D01*
X98075074Y-135639266D01*
X98078251Y-135647201D01*
X98081407Y-135655291D01*
X98084542Y-135663538D01*
X98087656Y-135671944D01*
X98090747Y-135680509D01*
X98093816Y-135689236D01*
X98096863Y-135698126D01*
X98099887Y-135707180D01*
X98102888Y-135716401D01*
X98105864Y-135725788D01*
X98108817Y-135735345D01*
X98111746Y-135745072D01*
X98114650Y-135754972D01*
X98117529Y-135765044D01*
X98120383Y-135775292D01*
X98123210Y-135785716D01*
X98126012Y-135796319D01*
X98128788Y-135807101D01*
X98131537Y-135818063D01*
X98134258Y-135829209D01*
X98136952Y-135840538D01*
X98139619Y-135852054D01*
X98142257Y-135863756D01*
X98144867Y-135875647D01*
X98147448Y-135887727D01*
X98150000Y-135900000D01*
X97750000Y-133487500D02*
X97750000Y-132962500D01*
D10*
X122008822Y-133711177D02*
X123907403Y-135609758D01*
D11*
X97000000Y-133500000D02*
X97975000Y-133500000D01*
X97975000Y-134300000D01*
X97000000Y-134300000D01*
X97000000Y-133500000D01*
D10*
X94769998Y-90819999D02*
X95069998Y-90519999D01*
X73950000Y-135650000D02*
X73950457Y-135610003D01*
X74147759Y-134841886D02*
X74166634Y-134806621D01*
X74696340Y-134216415D02*
X74729367Y-134193850D01*
X75471759Y-133914948D02*
X75511473Y-133910185D01*
X76298762Y-134005620D02*
X76336188Y-134019735D01*
X76990439Y-134467939D02*
X77017118Y-134497741D01*
X77390464Y-135197416D02*
X77400366Y-135236170D01*
X77408427Y-136029181D02*
X77399314Y-136068129D01*
X77040268Y-136775248D02*
X77014200Y-136805586D01*
X76369195Y-137266997D02*
X76332063Y-137281869D01*
X75546877Y-137393288D02*
X75507074Y-137389333D01*
X74759166Y-137125579D02*
X74725688Y-137103690D01*
X74184094Y-136524373D02*
X74164506Y-136489499D01*
X73951632Y-135725551D02*
X73950362Y-135685572D01*
X119088822Y-133859804D02*
X120987403Y-135758385D01*
X127918354Y-133423064D02*
X129816935Y-135321645D01*
X117731177Y-135217449D02*
X119629758Y-137116030D01*
X73900000Y-65700000D02*
X73900457Y-65660003D01*
X74097759Y-64891886D02*
X74116634Y-64856621D01*
X74646340Y-64266415D02*
X74679367Y-64243850D01*
X75421759Y-63964948D02*
X75461473Y-63960185D01*
X76248762Y-64055620D02*
X76286188Y-64069735D01*
X76940439Y-64517939D02*
X76967118Y-64547741D01*
X77340464Y-65247416D02*
X77350366Y-65286170D01*
X77358427Y-66079181D02*
X77349314Y-66118129D01*
X76990268Y-66825248D02*
X76964200Y-66855586D01*
X76319195Y-67316997D02*
X76282063Y-67331869D01*
X75496877Y-67443288D02*
X75457074Y-67439333D01*
X74709166Y-67175579D02*
X74675688Y-67153690D01*
X74134094Y-66574373D02*
X74114506Y-66539499D01*
X73901632Y-65775551D02*
X73900362Y-65735572D01*
D12*
X136870000Y-91574814D02*
X136870000Y-90749814D01*
D10*
X120651177Y-135068822D02*
X122549758Y-136967403D01*
X95069998Y-90519999D02*
X95369998Y-90819999D01*
X117731177Y-135217449D02*
X119088822Y-133859804D01*
D11*
X97487500Y-134300000D02*
X97488146Y-134319102D01*
X97488770Y-134336967D01*
X97489984Y-134370187D01*
X97491149Y-134400093D01*
X97492277Y-134427232D01*
X97493394Y-134452484D01*
X97494565Y-134477675D01*
X97495107Y-134489230D01*
X97495576Y-134499560D01*
X97495973Y-134508974D01*
X97496298Y-134517782D01*
X97496550Y-134526292D01*
X97496731Y-134534813D01*
X97496839Y-134543654D01*
X97496875Y-134553125D01*
X97496839Y-134563534D01*
X97496731Y-134575191D01*
X97496550Y-134588404D01*
X97496298Y-134603482D01*
X97495973Y-134620735D01*
X97495576Y-134640471D01*
X97494565Y-134688629D01*
X97493245Y-134751449D01*
X97491627Y-134830896D01*
X97490707Y-134877661D01*
X97489712Y-134929552D01*
X97488643Y-134986891D01*
X97487500Y-135050000D01*
D10*
X93870000Y-93619999D02*
X93870000Y-94019998D01*
X76222054Y-99941695D02*
X76222054Y-99141695D01*
X76222054Y-99141695D02*
X76526816Y-99141695D01*
X76526816Y-99141695D02*
X76603006Y-99179790D01*
X76603006Y-99179790D02*
X76641101Y-99217885D01*
X76641101Y-99217885D02*
X76679197Y-99294076D01*
X76679197Y-99294076D02*
X76679197Y-99408361D01*
X76679197Y-99408361D02*
X76641101Y-99484552D01*
X76641101Y-99484552D02*
X76603006Y-99522647D01*
X76603006Y-99522647D02*
X76526816Y-99560742D01*
X76526816Y-99560742D02*
X76222054Y-99560742D01*
X76945863Y-99141695D02*
X77479197Y-99141695D01*
X77479197Y-99141695D02*
X77136339Y-99941695D01*
X127438720Y-85597647D02*
X127553006Y-85635742D01*
X127553006Y-85635742D02*
X127591101Y-85673838D01*
X127591101Y-85673838D02*
X127629197Y-85750028D01*
X127629197Y-85750028D02*
X127629197Y-85864314D01*
X127629197Y-85864314D02*
X127591101Y-85940504D01*
X127591101Y-85940504D02*
X127553006Y-85978600D01*
X127553006Y-85978600D02*
X127476816Y-86016695D01*
X127476816Y-86016695D02*
X127172054Y-86016695D01*
X127172054Y-86016695D02*
X127172054Y-85216695D01*
X127172054Y-85216695D02*
X127438720Y-85216695D01*
X127438720Y-85216695D02*
X127514911Y-85254790D01*
X127514911Y-85254790D02*
X127553006Y-85292885D01*
X127553006Y-85292885D02*
X127591101Y-85369076D01*
X127591101Y-85369076D02*
X127591101Y-85445266D01*
X127591101Y-85445266D02*
X127553006Y-85521457D01*
X127553006Y-85521457D02*
X127514911Y-85559552D01*
X127514911Y-85559552D02*
X127438720Y-85597647D01*
X127438720Y-85597647D02*
X127172054Y-85597647D01*
X128124435Y-85216695D02*
X128276816Y-85216695D01*
X128276816Y-85216695D02*
X128353006Y-85254790D01*
X128353006Y-85254790D02*
X128429197Y-85330980D01*
X128429197Y-85330980D02*
X128467292Y-85483361D01*
X128467292Y-85483361D02*
X128467292Y-85750028D01*
X128467292Y-85750028D02*
X128429197Y-85902409D01*
X128429197Y-85902409D02*
X128353006Y-85978600D01*
X128353006Y-85978600D02*
X128276816Y-86016695D01*
X128276816Y-86016695D02*
X128124435Y-86016695D01*
X128124435Y-86016695D02*
X128048244Y-85978600D01*
X128048244Y-85978600D02*
X127972054Y-85902409D01*
X127972054Y-85902409D02*
X127933958Y-85750028D01*
X127933958Y-85750028D02*
X127933958Y-85483361D01*
X127933958Y-85483361D02*
X127972054Y-85330980D01*
X127972054Y-85330980D02*
X128048244Y-85254790D01*
X128048244Y-85254790D02*
X128124435Y-85216695D01*
X128962530Y-85216695D02*
X129114911Y-85216695D01*
X129114911Y-85216695D02*
X129191101Y-85254790D01*
X129191101Y-85254790D02*
X129267292Y-85330980D01*
X129267292Y-85330980D02*
X129305387Y-85483361D01*
X129305387Y-85483361D02*
X129305387Y-85750028D01*
X129305387Y-85750028D02*
X129267292Y-85902409D01*
X129267292Y-85902409D02*
X129191101Y-85978600D01*
X129191101Y-85978600D02*
X129114911Y-86016695D01*
X129114911Y-86016695D02*
X128962530Y-86016695D01*
X128962530Y-86016695D02*
X128886339Y-85978600D01*
X128886339Y-85978600D02*
X128810149Y-85902409D01*
X128810149Y-85902409D02*
X128772053Y-85750028D01*
X128772053Y-85750028D02*
X128772053Y-85483361D01*
X128772053Y-85483361D02*
X128810149Y-85330980D01*
X128810149Y-85330980D02*
X128886339Y-85254790D01*
X128886339Y-85254790D02*
X128962530Y-85216695D01*
X129533958Y-85216695D02*
X129991101Y-85216695D01*
X129762529Y-86016695D02*
X129762529Y-85216695D01*
X76222054Y-94766695D02*
X76222054Y-93966695D01*
X76603006Y-94766695D02*
X76603006Y-93966695D01*
X76603006Y-93966695D02*
X77060149Y-94766695D01*
X77060149Y-94766695D02*
X77060149Y-93966695D01*
X77326815Y-93966695D02*
X77783958Y-93966695D01*
X77555386Y-94766695D02*
X77555386Y-93966695D01*
X78660552Y-105641279D02*
X79660552Y-105641279D01*
X78708171Y-105641279D02*
X78660552Y-105498422D01*
X78660552Y-105498422D02*
X78660552Y-105212707D01*
X78660552Y-105212707D02*
X78708171Y-105069850D01*
X78708171Y-105069850D02*
X78755790Y-104998422D01*
X78755790Y-104998422D02*
X78851028Y-104926993D01*
X78851028Y-104926993D02*
X79136742Y-104926993D01*
X79136742Y-104926993D02*
X79231980Y-104998422D01*
X79231980Y-104998422D02*
X79279600Y-105069850D01*
X79279600Y-105069850D02*
X79327219Y-105212707D01*
X79327219Y-105212707D02*
X79327219Y-105498422D01*
X79327219Y-105498422D02*
X79279600Y-105641279D01*
X79327219Y-104069850D02*
X79279600Y-104212707D01*
X79279600Y-104212707D02*
X79231980Y-104284136D01*
X79231980Y-104284136D02*
X79136742Y-104355564D01*
X79136742Y-104355564D02*
X78851028Y-104355564D01*
X78851028Y-104355564D02*
X78755790Y-104284136D01*
X78755790Y-104284136D02*
X78708171Y-104212707D01*
X78708171Y-104212707D02*
X78660552Y-104069850D01*
X78660552Y-104069850D02*
X78660552Y-103855564D01*
X78660552Y-103855564D02*
X78708171Y-103712707D01*
X78708171Y-103712707D02*
X78755790Y-103641279D01*
X78755790Y-103641279D02*
X78851028Y-103569850D01*
X78851028Y-103569850D02*
X79136742Y-103569850D01*
X79136742Y-103569850D02*
X79231980Y-103641279D01*
X79231980Y-103641279D02*
X79279600Y-103712707D01*
X79279600Y-103712707D02*
X79327219Y-103855564D01*
X79327219Y-103855564D02*
X79327219Y-104069850D01*
X78660552Y-102284136D02*
X79470076Y-102284136D01*
X79470076Y-102284136D02*
X79565314Y-102355564D01*
X79565314Y-102355564D02*
X79612933Y-102426993D01*
X79612933Y-102426993D02*
X79660552Y-102569850D01*
X79660552Y-102569850D02*
X79660552Y-102784136D01*
X79660552Y-102784136D02*
X79612933Y-102926993D01*
X79279600Y-102284136D02*
X79327219Y-102426993D01*
X79327219Y-102426993D02*
X79327219Y-102712707D01*
X79327219Y-102712707D02*
X79279600Y-102855564D01*
X79279600Y-102855564D02*
X79231980Y-102926993D01*
X79231980Y-102926993D02*
X79136742Y-102998421D01*
X79136742Y-102998421D02*
X78851028Y-102998421D01*
X78851028Y-102998421D02*
X78755790Y-102926993D01*
X78755790Y-102926993D02*
X78708171Y-102855564D01*
X78708171Y-102855564D02*
X78660552Y-102712707D01*
X78660552Y-102712707D02*
X78660552Y-102426993D01*
X78660552Y-102426993D02*
X78708171Y-102284136D01*
X79327219Y-101355564D02*
X79279600Y-101498421D01*
X79279600Y-101498421D02*
X79231980Y-101569850D01*
X79231980Y-101569850D02*
X79136742Y-101641278D01*
X79136742Y-101641278D02*
X78851028Y-101641278D01*
X78851028Y-101641278D02*
X78755790Y-101569850D01*
X78755790Y-101569850D02*
X78708171Y-101498421D01*
X78708171Y-101498421D02*
X78660552Y-101355564D01*
X78660552Y-101355564D02*
X78660552Y-101141278D01*
X78660552Y-101141278D02*
X78708171Y-100998421D01*
X78708171Y-100998421D02*
X78755790Y-100926993D01*
X78755790Y-100926993D02*
X78851028Y-100855564D01*
X78851028Y-100855564D02*
X79136742Y-100855564D01*
X79136742Y-100855564D02*
X79231980Y-100926993D01*
X79231980Y-100926993D02*
X79279600Y-100998421D01*
X79279600Y-100998421D02*
X79327219Y-101141278D01*
X79327219Y-101141278D02*
X79327219Y-101355564D01*
X78660552Y-99069850D02*
X79660552Y-99069850D01*
X78708171Y-99069850D02*
X78660552Y-98926993D01*
X78660552Y-98926993D02*
X78660552Y-98641278D01*
X78660552Y-98641278D02*
X78708171Y-98498421D01*
X78708171Y-98498421D02*
X78755790Y-98426993D01*
X78755790Y-98426993D02*
X78851028Y-98355564D01*
X78851028Y-98355564D02*
X79136742Y-98355564D01*
X79136742Y-98355564D02*
X79231980Y-98426993D01*
X79231980Y-98426993D02*
X79279600Y-98498421D01*
X79279600Y-98498421D02*
X79327219Y-98641278D01*
X79327219Y-98641278D02*
X79327219Y-98926993D01*
X79327219Y-98926993D02*
X79279600Y-99069850D01*
X79327219Y-97712707D02*
X78660552Y-97712707D01*
X78327219Y-97712707D02*
X78374838Y-97784135D01*
X78374838Y-97784135D02*
X78422457Y-97712707D01*
X78422457Y-97712707D02*
X78374838Y-97641278D01*
X78374838Y-97641278D02*
X78327219Y-97712707D01*
X78327219Y-97712707D02*
X78422457Y-97712707D01*
X78660552Y-96998421D02*
X79327219Y-96998421D01*
X78755790Y-96998421D02*
X78708171Y-96926992D01*
X78708171Y-96926992D02*
X78660552Y-96784135D01*
X78660552Y-96784135D02*
X78660552Y-96569849D01*
X78660552Y-96569849D02*
X78708171Y-96426992D01*
X78708171Y-96426992D02*
X78803409Y-96355564D01*
X78803409Y-96355564D02*
X79327219Y-96355564D01*
X79279600Y-95712706D02*
X79327219Y-95569849D01*
X79327219Y-95569849D02*
X79327219Y-95284135D01*
X79327219Y-95284135D02*
X79279600Y-95141278D01*
X79279600Y-95141278D02*
X79184361Y-95069849D01*
X79184361Y-95069849D02*
X79136742Y-95069849D01*
X79136742Y-95069849D02*
X79041504Y-95141278D01*
X79041504Y-95141278D02*
X78993885Y-95284135D01*
X78993885Y-95284135D02*
X78993885Y-95498421D01*
X78993885Y-95498421D02*
X78946266Y-95641278D01*
X78946266Y-95641278D02*
X78851028Y-95712706D01*
X78851028Y-95712706D02*
X78803409Y-95712706D01*
X78803409Y-95712706D02*
X78708171Y-95641278D01*
X78708171Y-95641278D02*
X78660552Y-95498421D01*
X78660552Y-95498421D02*
X78660552Y-95284135D01*
X78660552Y-95284135D02*
X78708171Y-95141278D01*
X76716101Y-86329790D02*
X76639911Y-86291695D01*
X76639911Y-86291695D02*
X76525625Y-86291695D01*
X76525625Y-86291695D02*
X76411339Y-86329790D01*
X76411339Y-86329790D02*
X76335149Y-86405980D01*
X76335149Y-86405980D02*
X76297054Y-86482171D01*
X76297054Y-86482171D02*
X76258958Y-86634552D01*
X76258958Y-86634552D02*
X76258958Y-86748838D01*
X76258958Y-86748838D02*
X76297054Y-86901219D01*
X76297054Y-86901219D02*
X76335149Y-86977409D01*
X76335149Y-86977409D02*
X76411339Y-87053600D01*
X76411339Y-87053600D02*
X76525625Y-87091695D01*
X76525625Y-87091695D02*
X76601816Y-87091695D01*
X76601816Y-87091695D02*
X76716101Y-87053600D01*
X76716101Y-87053600D02*
X76754197Y-87015504D01*
X76754197Y-87015504D02*
X76754197Y-86748838D01*
X76754197Y-86748838D02*
X76601816Y-86748838D01*
X77097054Y-87091695D02*
X77097054Y-86291695D01*
X77097054Y-86291695D02*
X77554197Y-87091695D01*
X77554197Y-87091695D02*
X77554197Y-86291695D01*
X77935149Y-87091695D02*
X77935149Y-86291695D01*
X77935149Y-86291695D02*
X78125625Y-86291695D01*
X78125625Y-86291695D02*
X78239911Y-86329790D01*
X78239911Y-86329790D02*
X78316101Y-86405980D01*
X78316101Y-86405980D02*
X78354196Y-86482171D01*
X78354196Y-86482171D02*
X78392292Y-86634552D01*
X78392292Y-86634552D02*
X78392292Y-86748838D01*
X78392292Y-86748838D02*
X78354196Y-86901219D01*
X78354196Y-86901219D02*
X78316101Y-86977409D01*
X78316101Y-86977409D02*
X78239911Y-87053600D01*
X78239911Y-87053600D02*
X78125625Y-87091695D01*
X78125625Y-87091695D02*
X77935149Y-87091695D01*
X76247054Y-107391695D02*
X76247054Y-106591695D01*
X76247054Y-106591695D02*
X76551816Y-106591695D01*
X76551816Y-106591695D02*
X76628006Y-106629790D01*
X76628006Y-106629790D02*
X76666101Y-106667885D01*
X76666101Y-106667885D02*
X76704197Y-106744076D01*
X76704197Y-106744076D02*
X76704197Y-106858361D01*
X76704197Y-106858361D02*
X76666101Y-106934552D01*
X76666101Y-106934552D02*
X76628006Y-106972647D01*
X76628006Y-106972647D02*
X76551816Y-107010742D01*
X76551816Y-107010742D02*
X76247054Y-107010742D01*
X77389911Y-106858361D02*
X77389911Y-107391695D01*
X77199435Y-106553600D02*
X77008958Y-107125028D01*
X77008958Y-107125028D02*
X77504197Y-107125028D01*
X99447054Y-72647647D02*
X99713720Y-72647647D01*
X99828006Y-73066695D02*
X99447054Y-73066695D01*
X99447054Y-73066695D02*
X99447054Y-72266695D01*
X99447054Y-72266695D02*
X99828006Y-72266695D01*
X100170864Y-73066695D02*
X100170864Y-72266695D01*
X100170864Y-72266695D02*
X100628007Y-73066695D01*
X100628007Y-73066695D02*
X100628007Y-72266695D01*
X76233958Y-92190645D02*
X76348244Y-92228740D01*
X76348244Y-92228740D02*
X76538720Y-92228740D01*
X76538720Y-92228740D02*
X76614911Y-92190645D01*
X76614911Y-92190645D02*
X76653006Y-92152549D01*
X76653006Y-92152549D02*
X76691101Y-92076359D01*
X76691101Y-92076359D02*
X76691101Y-92000168D01*
X76691101Y-92000168D02*
X76653006Y-91923978D01*
X76653006Y-91923978D02*
X76614911Y-91885883D01*
X76614911Y-91885883D02*
X76538720Y-91847787D01*
X76538720Y-91847787D02*
X76386339Y-91809692D01*
X76386339Y-91809692D02*
X76310149Y-91771597D01*
X76310149Y-91771597D02*
X76272054Y-91733502D01*
X76272054Y-91733502D02*
X76233958Y-91657311D01*
X76233958Y-91657311D02*
X76233958Y-91581121D01*
X76233958Y-91581121D02*
X76272054Y-91504930D01*
X76272054Y-91504930D02*
X76310149Y-91466835D01*
X76310149Y-91466835D02*
X76386339Y-91428740D01*
X76386339Y-91428740D02*
X76576816Y-91428740D01*
X76576816Y-91428740D02*
X76691101Y-91466835D01*
X77491102Y-92152549D02*
X77453006Y-92190645D01*
X77453006Y-92190645D02*
X77338721Y-92228740D01*
X77338721Y-92228740D02*
X77262530Y-92228740D01*
X77262530Y-92228740D02*
X77148244Y-92190645D01*
X77148244Y-92190645D02*
X77072054Y-92114454D01*
X77072054Y-92114454D02*
X77033959Y-92038264D01*
X77033959Y-92038264D02*
X76995863Y-91885883D01*
X76995863Y-91885883D02*
X76995863Y-91771597D01*
X76995863Y-91771597D02*
X77033959Y-91619216D01*
X77033959Y-91619216D02*
X77072054Y-91543025D01*
X77072054Y-91543025D02*
X77148244Y-91466835D01*
X77148244Y-91466835D02*
X77262530Y-91428740D01*
X77262530Y-91428740D02*
X77338721Y-91428740D01*
X77338721Y-91428740D02*
X77453006Y-91466835D01*
X77453006Y-91466835D02*
X77491102Y-91504930D01*
X78214911Y-92228740D02*
X77833959Y-92228740D01*
X77833959Y-92228740D02*
X77833959Y-91428740D01*
X135969673Y-66161266D02*
X136731578Y-66161266D01*
X136350625Y-66542219D02*
X136350625Y-65780314D01*
X76247054Y-117466695D02*
X76247054Y-116666695D01*
X76247054Y-116666695D02*
X76551816Y-116666695D01*
X76551816Y-116666695D02*
X76628006Y-116704790D01*
X76628006Y-116704790D02*
X76666101Y-116742885D01*
X76666101Y-116742885D02*
X76704197Y-116819076D01*
X76704197Y-116819076D02*
X76704197Y-116933361D01*
X76704197Y-116933361D02*
X76666101Y-117009552D01*
X76666101Y-117009552D02*
X76628006Y-117047647D01*
X76628006Y-117047647D02*
X76551816Y-117085742D01*
X76551816Y-117085742D02*
X76247054Y-117085742D01*
X77199435Y-116666695D02*
X77275625Y-116666695D01*
X77275625Y-116666695D02*
X77351816Y-116704790D01*
X77351816Y-116704790D02*
X77389911Y-116742885D01*
X77389911Y-116742885D02*
X77428006Y-116819076D01*
X77428006Y-116819076D02*
X77466101Y-116971457D01*
X77466101Y-116971457D02*
X77466101Y-117161933D01*
X77466101Y-117161933D02*
X77428006Y-117314314D01*
X77428006Y-117314314D02*
X77389911Y-117390504D01*
X77389911Y-117390504D02*
X77351816Y-117428600D01*
X77351816Y-117428600D02*
X77275625Y-117466695D01*
X77275625Y-117466695D02*
X77199435Y-117466695D01*
X77199435Y-117466695D02*
X77123244Y-117428600D01*
X77123244Y-117428600D02*
X77085149Y-117390504D01*
X77085149Y-117390504D02*
X77047054Y-117314314D01*
X77047054Y-117314314D02*
X77008958Y-117161933D01*
X77008958Y-117161933D02*
X77008958Y-116971457D01*
X77008958Y-116971457D02*
X77047054Y-116819076D01*
X77047054Y-116819076D02*
X77085149Y-116742885D01*
X77085149Y-116742885D02*
X77123244Y-116704790D01*
X77123244Y-116704790D02*
X77199435Y-116666695D01*
X76258958Y-89578600D02*
X76373244Y-89616695D01*
X76373244Y-89616695D02*
X76563720Y-89616695D01*
X76563720Y-89616695D02*
X76639911Y-89578600D01*
X76639911Y-89578600D02*
X76678006Y-89540504D01*
X76678006Y-89540504D02*
X76716101Y-89464314D01*
X76716101Y-89464314D02*
X76716101Y-89388123D01*
X76716101Y-89388123D02*
X76678006Y-89311933D01*
X76678006Y-89311933D02*
X76639911Y-89273838D01*
X76639911Y-89273838D02*
X76563720Y-89235742D01*
X76563720Y-89235742D02*
X76411339Y-89197647D01*
X76411339Y-89197647D02*
X76335149Y-89159552D01*
X76335149Y-89159552D02*
X76297054Y-89121457D01*
X76297054Y-89121457D02*
X76258958Y-89045266D01*
X76258958Y-89045266D02*
X76258958Y-88969076D01*
X76258958Y-88969076D02*
X76297054Y-88892885D01*
X76297054Y-88892885D02*
X76335149Y-88854790D01*
X76335149Y-88854790D02*
X76411339Y-88816695D01*
X76411339Y-88816695D02*
X76601816Y-88816695D01*
X76601816Y-88816695D02*
X76716101Y-88854790D01*
X77058959Y-89616695D02*
X77058959Y-88816695D01*
X77058959Y-88816695D02*
X77249435Y-88816695D01*
X77249435Y-88816695D02*
X77363721Y-88854790D01*
X77363721Y-88854790D02*
X77439911Y-88930980D01*
X77439911Y-88930980D02*
X77478006Y-89007171D01*
X77478006Y-89007171D02*
X77516102Y-89159552D01*
X77516102Y-89159552D02*
X77516102Y-89273838D01*
X77516102Y-89273838D02*
X77478006Y-89426219D01*
X77478006Y-89426219D02*
X77439911Y-89502409D01*
X77439911Y-89502409D02*
X77363721Y-89578600D01*
X77363721Y-89578600D02*
X77249435Y-89616695D01*
X77249435Y-89616695D02*
X77058959Y-89616695D01*
X77820863Y-89388123D02*
X78201816Y-89388123D01*
X77744673Y-89616695D02*
X78011340Y-88816695D01*
X78011340Y-88816695D02*
X78278006Y-89616695D01*
X75809524Y-79663465D02*
X76142857Y-79663465D01*
X76285714Y-80187275D02*
X75809524Y-80187275D01*
X75809524Y-80187275D02*
X75809524Y-79187275D01*
X75809524Y-79187275D02*
X76285714Y-79187275D01*
X76619048Y-79187275D02*
X77285714Y-80187275D01*
X77285714Y-79187275D02*
X76619048Y-80187275D01*
X77666667Y-80187275D02*
X77666667Y-79187275D01*
X77666667Y-79187275D02*
X78047619Y-79187275D01*
X78047619Y-79187275D02*
X78142857Y-79234894D01*
X78142857Y-79234894D02*
X78190476Y-79282513D01*
X78190476Y-79282513D02*
X78238095Y-79377751D01*
X78238095Y-79377751D02*
X78238095Y-79520608D01*
X78238095Y-79520608D02*
X78190476Y-79615846D01*
X78190476Y-79615846D02*
X78142857Y-79663465D01*
X78142857Y-79663465D02*
X78047619Y-79711084D01*
X78047619Y-79711084D02*
X77666667Y-79711084D01*
X76222054Y-84161933D02*
X76831578Y-84161933D01*
X76526816Y-84466695D02*
X76526816Y-83857171D01*
X77136339Y-83666695D02*
X77631577Y-83666695D01*
X77631577Y-83666695D02*
X77364911Y-83971457D01*
X77364911Y-83971457D02*
X77479196Y-83971457D01*
X77479196Y-83971457D02*
X77555387Y-84009552D01*
X77555387Y-84009552D02*
X77593482Y-84047647D01*
X77593482Y-84047647D02*
X77631577Y-84123838D01*
X77631577Y-84123838D02*
X77631577Y-84314314D01*
X77631577Y-84314314D02*
X77593482Y-84390504D01*
X77593482Y-84390504D02*
X77555387Y-84428600D01*
X77555387Y-84428600D02*
X77479196Y-84466695D01*
X77479196Y-84466695D02*
X77250625Y-84466695D01*
X77250625Y-84466695D02*
X77174434Y-84428600D01*
X77174434Y-84428600D02*
X77136339Y-84390504D01*
X77974435Y-84390504D02*
X78012530Y-84428600D01*
X78012530Y-84428600D02*
X77974435Y-84466695D01*
X77974435Y-84466695D02*
X77936339Y-84428600D01*
X77936339Y-84428600D02*
X77974435Y-84390504D01*
X77974435Y-84390504D02*
X77974435Y-84466695D01*
X78279196Y-83666695D02*
X78774434Y-83666695D01*
X78774434Y-83666695D02*
X78507768Y-83971457D01*
X78507768Y-83971457D02*
X78622053Y-83971457D01*
X78622053Y-83971457D02*
X78698244Y-84009552D01*
X78698244Y-84009552D02*
X78736339Y-84047647D01*
X78736339Y-84047647D02*
X78774434Y-84123838D01*
X78774434Y-84123838D02*
X78774434Y-84314314D01*
X78774434Y-84314314D02*
X78736339Y-84390504D01*
X78736339Y-84390504D02*
X78698244Y-84428600D01*
X78698244Y-84428600D02*
X78622053Y-84466695D01*
X78622053Y-84466695D02*
X78393482Y-84466695D01*
X78393482Y-84466695D02*
X78317291Y-84428600D01*
X78317291Y-84428600D02*
X78279196Y-84390504D01*
X79003006Y-83666695D02*
X79269673Y-84466695D01*
X79269673Y-84466695D02*
X79536339Y-83666695D01*
X76272054Y-114966695D02*
X76272054Y-114166695D01*
X76272054Y-114166695D02*
X76576816Y-114166695D01*
X76576816Y-114166695D02*
X76653006Y-114204790D01*
X76653006Y-114204790D02*
X76691101Y-114242885D01*
X76691101Y-114242885D02*
X76729197Y-114319076D01*
X76729197Y-114319076D02*
X76729197Y-114433361D01*
X76729197Y-114433361D02*
X76691101Y-114509552D01*
X76691101Y-114509552D02*
X76653006Y-114547647D01*
X76653006Y-114547647D02*
X76576816Y-114585742D01*
X76576816Y-114585742D02*
X76272054Y-114585742D01*
X77491101Y-114966695D02*
X77033958Y-114966695D01*
X77262530Y-114966695D02*
X77262530Y-114166695D01*
X77262530Y-114166695D02*
X77186339Y-114280980D01*
X77186339Y-114280980D02*
X77110149Y-114357171D01*
X77110149Y-114357171D02*
X77033958Y-114395266D01*
X76247054Y-109916695D02*
X76247054Y-109116695D01*
X76247054Y-109116695D02*
X76551816Y-109116695D01*
X76551816Y-109116695D02*
X76628006Y-109154790D01*
X76628006Y-109154790D02*
X76666101Y-109192885D01*
X76666101Y-109192885D02*
X76704197Y-109269076D01*
X76704197Y-109269076D02*
X76704197Y-109383361D01*
X76704197Y-109383361D02*
X76666101Y-109459552D01*
X76666101Y-109459552D02*
X76628006Y-109497647D01*
X76628006Y-109497647D02*
X76551816Y-109535742D01*
X76551816Y-109535742D02*
X76247054Y-109535742D01*
X76970863Y-109116695D02*
X77466101Y-109116695D01*
X77466101Y-109116695D02*
X77199435Y-109421457D01*
X77199435Y-109421457D02*
X77313720Y-109421457D01*
X77313720Y-109421457D02*
X77389911Y-109459552D01*
X77389911Y-109459552D02*
X77428006Y-109497647D01*
X77428006Y-109497647D02*
X77466101Y-109573838D01*
X77466101Y-109573838D02*
X77466101Y-109764314D01*
X77466101Y-109764314D02*
X77428006Y-109840504D01*
X77428006Y-109840504D02*
X77389911Y-109878600D01*
X77389911Y-109878600D02*
X77313720Y-109916695D01*
X77313720Y-109916695D02*
X77085149Y-109916695D01*
X77085149Y-109916695D02*
X77008958Y-109878600D01*
X77008958Y-109878600D02*
X76970863Y-109840504D01*
X130369673Y-66236266D02*
X131131578Y-66236266D01*
X76272054Y-112466695D02*
X76272054Y-111666695D01*
X76272054Y-111666695D02*
X76576816Y-111666695D01*
X76576816Y-111666695D02*
X76653006Y-111704790D01*
X76653006Y-111704790D02*
X76691101Y-111742885D01*
X76691101Y-111742885D02*
X76729197Y-111819076D01*
X76729197Y-111819076D02*
X76729197Y-111933361D01*
X76729197Y-111933361D02*
X76691101Y-112009552D01*
X76691101Y-112009552D02*
X76653006Y-112047647D01*
X76653006Y-112047647D02*
X76576816Y-112085742D01*
X76576816Y-112085742D02*
X76272054Y-112085742D01*
X77033958Y-111742885D02*
X77072054Y-111704790D01*
X77072054Y-111704790D02*
X77148244Y-111666695D01*
X77148244Y-111666695D02*
X77338720Y-111666695D01*
X77338720Y-111666695D02*
X77414911Y-111704790D01*
X77414911Y-111704790D02*
X77453006Y-111742885D01*
X77453006Y-111742885D02*
X77491101Y-111819076D01*
X77491101Y-111819076D02*
X77491101Y-111895266D01*
X77491101Y-111895266D02*
X77453006Y-112009552D01*
X77453006Y-112009552D02*
X76995863Y-112466695D01*
X76995863Y-112466695D02*
X77491101Y-112466695D01*
X76247054Y-104916695D02*
X76247054Y-104116695D01*
X76247054Y-104116695D02*
X76551816Y-104116695D01*
X76551816Y-104116695D02*
X76628006Y-104154790D01*
X76628006Y-104154790D02*
X76666101Y-104192885D01*
X76666101Y-104192885D02*
X76704197Y-104269076D01*
X76704197Y-104269076D02*
X76704197Y-104383361D01*
X76704197Y-104383361D02*
X76666101Y-104459552D01*
X76666101Y-104459552D02*
X76628006Y-104497647D01*
X76628006Y-104497647D02*
X76551816Y-104535742D01*
X76551816Y-104535742D02*
X76247054Y-104535742D01*
X77428006Y-104116695D02*
X77047054Y-104116695D01*
X77047054Y-104116695D02*
X77008958Y-104497647D01*
X77008958Y-104497647D02*
X77047054Y-104459552D01*
X77047054Y-104459552D02*
X77123244Y-104421457D01*
X77123244Y-104421457D02*
X77313720Y-104421457D01*
X77313720Y-104421457D02*
X77389911Y-104459552D01*
X77389911Y-104459552D02*
X77428006Y-104497647D01*
X77428006Y-104497647D02*
X77466101Y-104573838D01*
X77466101Y-104573838D02*
X77466101Y-104764314D01*
X77466101Y-104764314D02*
X77428006Y-104840504D01*
X77428006Y-104840504D02*
X77389911Y-104878600D01*
X77389911Y-104878600D02*
X77313720Y-104916695D01*
X77313720Y-104916695D02*
X77123244Y-104916695D01*
X77123244Y-104916695D02*
X77047054Y-104878600D01*
X77047054Y-104878600D02*
X77008958Y-104840504D01*
X76247054Y-97266695D02*
X76247054Y-96466695D01*
X76628006Y-97266695D02*
X76628006Y-96466695D01*
X76628006Y-96466695D02*
X76818482Y-96466695D01*
X76818482Y-96466695D02*
X76932768Y-96504790D01*
X76932768Y-96504790D02*
X77008958Y-96580980D01*
X77008958Y-96580980D02*
X77047053Y-96657171D01*
X77047053Y-96657171D02*
X77085149Y-96809552D01*
X77085149Y-96809552D02*
X77085149Y-96923838D01*
X77085149Y-96923838D02*
X77047053Y-97076219D01*
X77047053Y-97076219D02*
X77008958Y-97152409D01*
X77008958Y-97152409D02*
X76932768Y-97228600D01*
X76932768Y-97228600D02*
X76818482Y-97266695D01*
X76818482Y-97266695D02*
X76628006Y-97266695D01*
X76247054Y-102316695D02*
X76247054Y-101516695D01*
X76247054Y-101516695D02*
X76551816Y-101516695D01*
X76551816Y-101516695D02*
X76628006Y-101554790D01*
X76628006Y-101554790D02*
X76666101Y-101592885D01*
X76666101Y-101592885D02*
X76704197Y-101669076D01*
X76704197Y-101669076D02*
X76704197Y-101783361D01*
X76704197Y-101783361D02*
X76666101Y-101859552D01*
X76666101Y-101859552D02*
X76628006Y-101897647D01*
X76628006Y-101897647D02*
X76551816Y-101935742D01*
X76551816Y-101935742D02*
X76247054Y-101935742D01*
X77389911Y-101516695D02*
X77237530Y-101516695D01*
X77237530Y-101516695D02*
X77161339Y-101554790D01*
X77161339Y-101554790D02*
X77123244Y-101592885D01*
X77123244Y-101592885D02*
X77047054Y-101707171D01*
X77047054Y-101707171D02*
X77008958Y-101859552D01*
X77008958Y-101859552D02*
X77008958Y-102164314D01*
X77008958Y-102164314D02*
X77047054Y-102240504D01*
X77047054Y-102240504D02*
X77085149Y-102278600D01*
X77085149Y-102278600D02*
X77161339Y-102316695D01*
X77161339Y-102316695D02*
X77313720Y-102316695D01*
X77313720Y-102316695D02*
X77389911Y-102278600D01*
X77389911Y-102278600D02*
X77428006Y-102240504D01*
X77428006Y-102240504D02*
X77466101Y-102164314D01*
X77466101Y-102164314D02*
X77466101Y-101973838D01*
X77466101Y-101973838D02*
X77428006Y-101897647D01*
X77428006Y-101897647D02*
X77389911Y-101859552D01*
X77389911Y-101859552D02*
X77313720Y-101821457D01*
X77313720Y-101821457D02*
X77161339Y-101821457D01*
X77161339Y-101821457D02*
X77085149Y-101859552D01*
X77085149Y-101859552D02*
X77047054Y-101897647D01*
X77047054Y-101897647D02*
X77008958Y-101973838D01*
D13*
%TO.C,R29*%
X112875000Y-129582936D02*
X112875000Y-130037064D01*
X114345000Y-129582936D02*
X114345000Y-130037064D01*
%TO.C,R78*%
X79272936Y-124217087D02*
X79727064Y-124217087D01*
X79272936Y-125687087D02*
X79727064Y-125687087D01*
%TO.C,R35*%
X130707936Y-101575000D02*
X131162064Y-101575000D01*
X130707936Y-103045000D02*
X131162064Y-103045000D01*
%TO.C,C42*%
X83317073Y-95007085D02*
X83839579Y-95007085D01*
X83317073Y-96477085D02*
X83839579Y-96477085D01*
%TO.C,JP2*%
X103592172Y-94997998D02*
X103592172Y-94397998D01*
X104242172Y-93697998D02*
X107042172Y-93697998D01*
X106842172Y-93497998D02*
X106542172Y-93197998D01*
X106842172Y-93497998D02*
X107142172Y-93197998D01*
X107042172Y-95697998D02*
X104242172Y-95697998D01*
X107142172Y-93197998D02*
X106542172Y-93197998D01*
X107692172Y-94397998D02*
X107692172Y-94997998D01*
X103592172Y-94397998D02*
G75*
G02*
X104292172Y-93697998I700000J0D01*
G01*
X104292172Y-95697998D02*
G75*
G02*
X103592172Y-94997998I0J700000D01*
G01*
X106992172Y-93697998D02*
G75*
G02*
X107692172Y-94397998I1J-699999D01*
G01*
X107692172Y-94997998D02*
G75*
G02*
X106992172Y-95697998I-699999J-1D01*
G01*
%TO.C,R94*%
X85402936Y-83445000D02*
X85857064Y-83445000D01*
X85402936Y-84915000D02*
X85857064Y-84915000D01*
%TO.C,R60*%
X126210000Y-90996359D02*
X126210000Y-91303641D01*
X126970000Y-90996359D02*
X126970000Y-91303641D01*
%TO.C,R90*%
X101727064Y-93965000D02*
X101272936Y-93965000D01*
X101727064Y-95435000D02*
X101272936Y-95435000D01*
%TO.C,R75*%
X85172936Y-126265000D02*
X85627064Y-126265000D01*
X85172936Y-127735000D02*
X85627064Y-127735000D01*
%TO.C,C47*%
X85661253Y-120565000D02*
X85138747Y-120565000D01*
X85661253Y-122035000D02*
X85138747Y-122035000D01*
%TO.C,R38*%
X104179718Y-114839165D02*
X104500835Y-115160282D01*
X105219165Y-113799718D02*
X105540282Y-114120835D01*
%TO.C,R64*%
X108236359Y-76210000D02*
X108543641Y-76210000D01*
X108236359Y-76970000D02*
X108543641Y-76970000D01*
%TO.C,R1*%
X127754718Y-135648784D02*
X128075835Y-135969901D01*
X128794165Y-134609337D02*
X129115282Y-134930454D01*
%TO.C,R44*%
X108514080Y-73667258D02*
X108206798Y-73667258D01*
X108514080Y-74427258D02*
X108206798Y-74427258D01*
%TO.C,Q2*%
X134112500Y-93359999D02*
X133462500Y-93360000D01*
X134112500Y-93359999D02*
X134762500Y-93360000D01*
X134112500Y-96480001D02*
X133462500Y-96480000D01*
X134112500Y-96480001D02*
X134762500Y-96480000D01*
X135515000Y-96760000D02*
X135035000Y-96759999D01*
X135275000Y-96430000D01*
X135515000Y-96760000D01*
G36*
X135515000Y-96760000D02*
G01*
X135035000Y-96759999D01*
X135275000Y-96430000D01*
X135515000Y-96760000D01*
G37*
%TO.C,TP7*%
X91662644Y-100000000D02*
X92652593Y-99010051D01*
X92652593Y-99010051D02*
X93642542Y-100000000D01*
X92652593Y-100989949D02*
X91662644Y-100000000D01*
X93642542Y-100000000D02*
X92652593Y-100989949D01*
%TO.C,R57*%
X92018041Y-90175972D02*
X91800760Y-90393253D01*
X92555442Y-90713373D02*
X92338161Y-90930654D01*
%TO.C,C14*%
X131488748Y-68415000D02*
X132011254Y-68415000D01*
X131488748Y-69885000D02*
X132011254Y-69885000D01*
%TO.C,audio_socket1*%
X131520000Y-67320000D02*
X131520000Y-66260000D01*
X132580000Y-67320000D02*
X131520000Y-67320000D01*
X133580000Y-65200000D02*
X135640000Y-65200000D01*
X133580000Y-67320000D02*
X133580000Y-65200000D01*
X133580000Y-67320000D02*
X135640000Y-67320000D01*
X135640000Y-67320000D02*
X135640000Y-65200000D01*
%TO.C,R88*%
X96939601Y-116421511D02*
X96485473Y-116421511D01*
X96939601Y-117891511D02*
X96485473Y-117891511D01*
%TO.C,C20*%
X127696253Y-104575000D02*
X127173747Y-104575000D01*
X127696253Y-106045000D02*
X127173747Y-106045000D01*
%TO.C,C39*%
X110000000Y-117988367D02*
X110000000Y-118510871D01*
X111470000Y-117988367D02*
X111470000Y-118510871D01*
D14*
%TO.C,U6*%
X86313006Y-95427220D02*
X86705451Y-95819665D01*
X86351897Y-95388329D02*
X86313006Y-95427220D01*
X88041882Y-97156096D02*
X88434327Y-97548541D01*
X88080773Y-93659453D02*
X88041882Y-93698344D01*
X88080773Y-93659453D02*
X88473218Y-94051898D01*
X88473218Y-97509650D02*
X88434327Y-97548541D01*
X89809649Y-95388329D02*
X90202094Y-95780774D01*
X90202094Y-95780774D02*
X90163203Y-95819665D01*
D15*
X87554733Y-93553387D02*
G75*
G02*
X87404733Y-93553387I-75000J0D01*
G01*
X87404733Y-93553387D02*
G75*
G02*
X87554733Y-93553387I75000J0D01*
G01*
D13*
%TO.C,C41*%
X87602476Y-100661254D02*
X87602476Y-100138748D01*
X89072476Y-100661254D02*
X89072476Y-100138748D01*
%TO.C,R42*%
X98102064Y-96565000D02*
X97647936Y-96565000D01*
X98102064Y-98035000D02*
X97647936Y-98035000D01*
%TO.C,C32*%
X129579037Y-128726464D02*
X129579037Y-129248970D01*
X131049037Y-128726464D02*
X131049037Y-129248970D01*
%TO.C,C48*%
X91160273Y-120565000D02*
X91682779Y-120565000D01*
X91160273Y-122035000D02*
X91682779Y-122035000D01*
%TO.C,R43*%
X108523641Y-74948466D02*
X108216359Y-74948466D01*
X108523641Y-75708466D02*
X108216359Y-75708466D01*
%TO.C,R58*%
X122868283Y-95560684D02*
X123085564Y-95777965D01*
X123405684Y-95023283D02*
X123622965Y-95240564D01*
%TO.C,R16*%
X134335000Y-98667064D02*
X134335000Y-98212936D01*
X135805000Y-98667064D02*
X135805000Y-98212936D01*
%TO.C,C44*%
X122573791Y-101994859D02*
X122573791Y-102517365D01*
X124043791Y-101994859D02*
X124043791Y-102517365D01*
%TO.C,FB2*%
X135105436Y-70525000D02*
X135559564Y-70525000D01*
X135105436Y-71995000D02*
X135559564Y-71995000D01*
%TO.C,R3*%
X103890000Y-128102064D02*
X103890000Y-127647936D01*
X105360000Y-128102064D02*
X105360000Y-127647936D01*
%TO.C,L3*%
X111075000Y-119939619D02*
X111075000Y-121389619D01*
X111075000Y-119939619D02*
X117295000Y-119939619D01*
X111075000Y-125859619D02*
X111075000Y-124409619D01*
X111075000Y-125859619D02*
X117295000Y-125859619D01*
X117295000Y-119939619D02*
X117295000Y-121389619D01*
X117295000Y-125859619D02*
X117295000Y-124409619D01*
%TO.C,R53*%
X93439940Y-107422659D02*
X93222659Y-107639940D01*
X93977341Y-107960060D02*
X93760060Y-108177341D01*
%TO.C,FB3*%
X131997064Y-70505000D02*
X131542936Y-70505000D01*
X131997064Y-71975000D02*
X131542936Y-71975000D01*
%TO.C,R85*%
X96937998Y-126278241D02*
X96483870Y-126278241D01*
X96937998Y-127748241D02*
X96483870Y-127748241D01*
%TO.C,R31*%
X124048505Y-129502717D02*
X124502633Y-129502717D01*
X124048505Y-130972717D02*
X124502633Y-130972717D01*
%TO.C,R56*%
X92801957Y-90963428D02*
X92584676Y-91180709D01*
X93339358Y-91500829D02*
X93122077Y-91718110D01*
%TO.C,R48*%
X108519253Y-68600000D02*
X108211971Y-68600000D01*
X108519253Y-69360000D02*
X108211971Y-69360000D01*
%TO.C,R24*%
X114495360Y-86170931D02*
X114495360Y-85716803D01*
X115965360Y-86170931D02*
X115965360Y-85716803D01*
%TO.C,R74*%
X79185509Y-118510220D02*
X79639637Y-118510220D01*
X79185509Y-119980220D02*
X79639637Y-119980220D01*
%TO.C,R84*%
X91662759Y-124240886D02*
X91208631Y-124240886D01*
X91662759Y-125710886D02*
X91208631Y-125710886D01*
%TO.C,R36*%
X132852936Y-91245000D02*
X133307064Y-91245000D01*
X132852936Y-92715000D02*
X133307064Y-92715000D01*
%TO.C,R15*%
X136197064Y-100485000D02*
X135742936Y-100485000D01*
X136197064Y-101955000D02*
X135742936Y-101955000D01*
D16*
%TO.C,U1*%
X126213344Y-107947133D02*
X126213344Y-107347133D01*
X126218195Y-107348723D02*
X126518195Y-107348723D01*
X126218195Y-110348724D02*
X126218196Y-109748723D01*
X126518196Y-110348723D02*
X126218195Y-110348724D01*
X130318195Y-107348723D02*
X130618195Y-107348723D01*
X130618194Y-109748723D02*
X130618195Y-110348724D01*
X130618195Y-107348723D02*
X130618195Y-107948723D01*
X130618195Y-110348724D02*
X130318194Y-110348723D01*
D17*
X131209998Y-107048723D02*
G75*
G02*
X130986392Y-107048723I-111803J0D01*
G01*
X130986392Y-107048723D02*
G75*
G02*
X131209998Y-107048723I111803J0D01*
G01*
D13*
%TO.C,C45*%
X85680548Y-128328154D02*
X85158042Y-128328154D01*
X85680548Y-129798154D02*
X85158042Y-129798154D01*
%TO.C,C50*%
X96438747Y-128365000D02*
X96961253Y-128365000D01*
X96438747Y-129835000D02*
X96961253Y-129835000D01*
%TO.C,C18*%
X127173747Y-111475000D02*
X127696253Y-111475000D01*
X127173747Y-112945000D02*
X127696253Y-112945000D01*
%TO.C,C36*%
X111821252Y-113129619D02*
X111298748Y-113129619D01*
X111821252Y-114599619D02*
X111298748Y-114599619D01*
%TO.C,R76*%
X85166830Y-124200513D02*
X85620958Y-124200513D01*
X85166830Y-125670513D02*
X85620958Y-125670513D01*
D16*
%TO.C,U5*%
X112735000Y-115019619D02*
X113335000Y-115019619D01*
X112735000Y-115319619D02*
X112735000Y-115019619D01*
X112735000Y-119419619D02*
X112735000Y-119119619D01*
X113333410Y-119424470D02*
X112733410Y-119424470D01*
X115135000Y-115019619D02*
X115735000Y-115019619D01*
X115735000Y-115019619D02*
X115735000Y-115319619D01*
X115735000Y-119119619D02*
X115735000Y-119419619D01*
X115735000Y-119419619D02*
X115135000Y-119419619D01*
D17*
X112546803Y-114539619D02*
G75*
G02*
X112323197Y-114539619I-111803J0D01*
G01*
X112323197Y-114539619D02*
G75*
G02*
X112546803Y-114539619I111803J0D01*
G01*
D13*
%TO.C,R79*%
X85165873Y-118470600D02*
X85620001Y-118470600D01*
X85165873Y-119940600D02*
X85620001Y-119940600D01*
%TO.C,C43*%
X79697623Y-120589180D02*
X79175117Y-120589180D01*
X79697623Y-122059180D02*
X79175117Y-122059180D01*
%TO.C,J5*%
X115285000Y-98275000D02*
X117185000Y-98275000D01*
X115285000Y-100175000D02*
X115285000Y-98275000D01*
X117185000Y-98275000D02*
X117185000Y-100175000D01*
X117185000Y-100175000D02*
X115285000Y-100175000D01*
%TO.C,TP5*%
X99670000Y-71137699D02*
G75*
G02*
X98270000Y-71137699I-700000J0D01*
G01*
X98270000Y-71137699D02*
G75*
G02*
X99670000Y-71137699I700000J0D01*
G01*
%TO.C,Q3*%
X114474999Y-107287500D02*
X114475000Y-106637500D01*
X114474999Y-107287500D02*
X114475000Y-107937500D01*
X117595001Y-107287500D02*
X117595000Y-106637500D01*
X117595001Y-107287500D02*
X117595000Y-107937500D01*
X117874999Y-106365000D02*
X117545000Y-106125000D01*
X117875000Y-105885000D01*
X117874999Y-106365000D01*
G36*
X117874999Y-106365000D02*
G01*
X117545000Y-106125000D01*
X117875000Y-105885000D01*
X117874999Y-106365000D01*
G37*
%TO.C,R83*%
X91669172Y-126283796D02*
X91215044Y-126283796D01*
X91669172Y-127753796D02*
X91215044Y-127753796D01*
%TO.C,R12*%
X103892936Y-69245000D02*
X104347064Y-69245000D01*
X103892936Y-70715000D02*
X104347064Y-70715000D01*
%TO.C,C38*%
X106000000Y-117988367D02*
X106000000Y-118510871D01*
X107470000Y-117988367D02*
X107470000Y-118510871D01*
%TO.C,R40*%
X116800000Y-112772555D02*
X116800000Y-113226683D01*
X118270000Y-112772555D02*
X118270000Y-113226683D01*
%TO.C,R33*%
X135605436Y-83505000D02*
X136059564Y-83505000D01*
X135605436Y-84975000D02*
X136059564Y-84975000D01*
%TO.C,R62*%
X130306358Y-74940000D02*
X130613640Y-74940000D01*
X130306358Y-75700000D02*
X130613640Y-75700000D01*
%TO.C,R18*%
X124508125Y-131730103D02*
X124962253Y-131730103D01*
X124508125Y-133200103D02*
X124962253Y-133200103D01*
%TO.C,R28*%
X131085125Y-135899191D02*
X130764008Y-135578074D01*
X132124572Y-134859744D02*
X131803455Y-134538627D01*
%TO.C,Q1*%
X132850000Y-87329999D02*
X132050000Y-87330000D01*
X132850000Y-87329999D02*
X133650000Y-87330000D01*
X132850000Y-90450001D02*
X132050000Y-90450000D01*
X132850000Y-90450001D02*
X133650000Y-90450000D01*
X134390000Y-90730000D02*
X133910000Y-90730000D01*
X134150000Y-90400000D01*
X134390000Y-90730000D01*
G36*
X134390000Y-90730000D02*
G01*
X133910000Y-90730000D01*
X134150000Y-90400000D01*
X134390000Y-90730000D01*
G37*
%TO.C,C29*%
X126842744Y-118401140D02*
X127365250Y-118401140D01*
X126842744Y-119871140D02*
X127365250Y-119871140D01*
%TO.C,DAC1*%
X132310000Y-72947500D02*
X132785000Y-72947500D01*
X132310000Y-73422500D02*
X132310000Y-72947500D01*
X132310000Y-75692500D02*
X132310000Y-75867500D01*
X132785000Y-76167500D02*
X132550000Y-76167500D01*
X135530000Y-72947500D02*
X135055000Y-72947500D01*
X135530000Y-73422500D02*
X135530000Y-72947500D01*
X135530000Y-75692500D02*
X135530000Y-76167500D01*
X135530000Y-76167500D02*
X135055000Y-76167500D01*
X132310000Y-76167500D02*
X131980000Y-76407500D01*
X131980000Y-75927500D01*
X132310000Y-76167500D01*
G36*
X132310000Y-76167500D02*
G01*
X131980000Y-76407500D01*
X131980000Y-75927500D01*
X132310000Y-76167500D01*
G37*
%TO.C,R17*%
X93177681Y-94851863D02*
X92723553Y-94851863D01*
X93177681Y-96321863D02*
X92723553Y-96321863D01*
%TO.C,R81*%
X91639564Y-118487808D02*
X91185436Y-118487808D01*
X91639564Y-119957808D02*
X91185436Y-119957808D01*
%TO.C,R5*%
X100385000Y-67810635D02*
X100385000Y-68264763D01*
X101855000Y-67810635D02*
X101855000Y-68264763D01*
%TO.C,R2*%
X106096177Y-128071867D02*
X106096177Y-127617739D01*
X107566177Y-128071867D02*
X107566177Y-127617739D01*
%TO.C,U7*%
X84265000Y-108300000D02*
X84265000Y-106100000D01*
X84265000Y-108300000D02*
X84265000Y-110500000D01*
X92335000Y-108300000D02*
X92335000Y-106100000D01*
X92335000Y-108300000D02*
X92335000Y-110500000D01*
X91875000Y-104440000D02*
X91635001Y-104110000D01*
X92115000Y-104110000D01*
X91875000Y-104440000D01*
G36*
X91875000Y-104440000D02*
G01*
X91635001Y-104110000D01*
X92115000Y-104110000D01*
X91875000Y-104440000D01*
G37*
%TO.C,TP4*%
X131700000Y-85675000D02*
G75*
G02*
X130300000Y-85675000I-700000J0D01*
G01*
X130300000Y-85675000D02*
G75*
G02*
X131700000Y-85675000I700000J0D01*
G01*
%TO.C,R55*%
X108246359Y-77480000D02*
X108553641Y-77480000D01*
X108246359Y-78240000D02*
X108553641Y-78240000D01*
%TO.C,R87*%
X96937998Y-118465000D02*
X96483870Y-118465000D01*
X96937998Y-119935000D02*
X96483870Y-119935000D01*
%TO.C,TP8*%
X108210051Y-99100000D02*
X109200000Y-98110051D01*
X109200000Y-98110051D02*
X110189949Y-99100000D01*
X109200000Y-100089949D02*
X108210051Y-99100000D01*
X110189949Y-99100000D02*
X109200000Y-100089949D01*
%TO.C,R10*%
X103892936Y-73945000D02*
X104347064Y-73945000D01*
X103892936Y-75415000D02*
X104347064Y-75415000D01*
%TO.C,C21*%
X127696254Y-102575000D02*
X127173748Y-102575000D01*
X127696254Y-104045000D02*
X127173748Y-104045000D01*
%TO.C,C15*%
X135098746Y-68405000D02*
X135621252Y-68405000D01*
X135098746Y-69875000D02*
X135621252Y-69875000D01*
D14*
%TO.C,U4*%
X117311105Y-129407105D02*
G75*
G02*
X117169687Y-129407105I-70709J0D01*
G01*
X117169687Y-129407105D02*
G75*
G02*
X117311105Y-129407105I70709J0D01*
G01*
D13*
%TO.C,R86*%
X96927064Y-124231008D02*
X96472936Y-124231008D01*
X96927064Y-125701008D02*
X96472936Y-125701008D01*
%TO.C,R52*%
X94239940Y-108222659D02*
X94022659Y-108439940D01*
X94777341Y-108760060D02*
X94560060Y-108977341D01*
%TO.C,R59*%
X123593283Y-94860684D02*
X123810564Y-95077965D01*
X124130684Y-94323283D02*
X124347965Y-94540564D01*
%TO.C,C3*%
X106995543Y-97265010D02*
X107365010Y-96895543D01*
X108034990Y-98304457D02*
X108404457Y-97934990D01*
%TO.C,J3*%
X100465000Y-105890000D02*
X100464999Y-106490000D01*
X100575000Y-105890000D02*
X100465000Y-105890000D01*
X103340000Y-103300000D02*
X103540000Y-103700000D01*
X103540000Y-103700000D02*
X103740000Y-103300000D01*
X103740000Y-103300000D02*
X103340000Y-103300000D01*
X111005000Y-105890000D02*
X111115000Y-105890000D01*
X111115000Y-105890000D02*
X111115001Y-106490000D01*
D18*
%TO.C,G\u002A\u002A\u002A*%
G36*
X124147560Y-114402924D02*
G01*
X124135701Y-114440739D01*
X124116587Y-114498843D01*
X124091357Y-114573823D01*
X124061154Y-114662262D01*
X124027119Y-114760746D01*
X124017868Y-114787330D01*
X123977015Y-114904747D01*
X123932460Y-115033128D01*
X123885073Y-115169936D01*
X123835727Y-115312637D01*
X123785294Y-115458691D01*
X123734645Y-115605564D01*
X123684653Y-115750719D01*
X123636189Y-115891618D01*
X123590126Y-116025725D01*
X123547334Y-116150504D01*
X123508687Y-116263418D01*
X123475055Y-116361929D01*
X123447311Y-116443503D01*
X123426327Y-116505601D01*
X123412975Y-116545688D01*
X123408126Y-116561226D01*
X123408121Y-116561290D01*
X123422042Y-116562771D01*
X123461994Y-116564296D01*
X123525256Y-116565823D01*
X123609109Y-116567311D01*
X123710834Y-116568719D01*
X123827712Y-116570005D01*
X123957023Y-116571129D01*
X124096049Y-116572048D01*
X124128092Y-116572221D01*
X124848063Y-116575948D01*
X124576455Y-116906565D01*
X124336653Y-117198471D01*
X124114445Y-117468969D01*
X123909169Y-117718859D01*
X123720163Y-117948942D01*
X123546765Y-118160019D01*
X123388314Y-118352890D01*
X123244147Y-118528356D01*
X123113603Y-118687218D01*
X122996019Y-118830277D01*
X122890734Y-118958333D01*
X122797087Y-119072187D01*
X122714414Y-119172641D01*
X122642054Y-119260493D01*
X122579346Y-119336546D01*
X122525627Y-119401600D01*
X122480236Y-119456455D01*
X122442510Y-119501913D01*
X122411788Y-119538774D01*
X122387408Y-119567839D01*
X122368708Y-119589909D01*
X122355026Y-119605784D01*
X122345700Y-119616265D01*
X122340069Y-119622152D01*
X122337470Y-119624248D01*
X122337242Y-119623351D01*
X122338722Y-119620264D01*
X122341249Y-119615786D01*
X122344161Y-119610719D01*
X122346796Y-119605862D01*
X122348493Y-119602018D01*
X122348558Y-119601811D01*
X122355593Y-119580505D01*
X122371013Y-119535030D01*
X122393788Y-119468384D01*
X122422887Y-119383560D01*
X122457279Y-119283554D01*
X122495931Y-119171362D01*
X122537814Y-119049978D01*
X122581897Y-118922399D01*
X122627147Y-118791619D01*
X122672534Y-118660633D01*
X122675152Y-118653084D01*
X122733826Y-118483758D01*
X122790549Y-118319785D01*
X122844584Y-118163312D01*
X122895196Y-118016485D01*
X122941648Y-117881450D01*
X122983203Y-117760353D01*
X123019125Y-117655342D01*
X123048678Y-117568561D01*
X123071126Y-117502158D01*
X123085732Y-117458278D01*
X123091760Y-117439069D01*
X123091879Y-117438429D01*
X123077957Y-117437003D01*
X123038006Y-117435530D01*
X122974744Y-117434049D01*
X122890889Y-117432602D01*
X122789162Y-117431229D01*
X122672281Y-117429969D01*
X122542966Y-117428863D01*
X122403935Y-117427952D01*
X122371809Y-117427779D01*
X121651740Y-117424052D01*
X122265629Y-116676570D01*
X122378672Y-116538930D01*
X122493133Y-116399573D01*
X122606577Y-116261460D01*
X122716573Y-116127552D01*
X122820687Y-116000810D01*
X122916487Y-115884197D01*
X123001540Y-115780673D01*
X123073414Y-115693200D01*
X123129676Y-115624739D01*
X123133544Y-115620034D01*
X123202548Y-115536045D01*
X123285755Y-115434707D01*
X123379151Y-115320915D01*
X123478721Y-115199560D01*
X123580451Y-115075535D01*
X123680326Y-114953733D01*
X123767176Y-114847778D01*
X123848444Y-114748832D01*
X123923956Y-114657314D01*
X123991802Y-114575508D01*
X124050072Y-114505699D01*
X124096855Y-114450170D01*
X124130240Y-114411206D01*
X124148319Y-114391091D01*
X124151021Y-114388816D01*
X124147560Y-114402924D01*
G37*
D13*
%TO.C,C34*%
X117300000Y-118460871D02*
X117300000Y-117938367D01*
X118770000Y-118460871D02*
X118770000Y-117938367D01*
%TO.C,R51*%
X118653754Y-85118153D02*
X118653754Y-84810871D01*
X119413754Y-85118153D02*
X119413754Y-84810871D01*
%TO.C,R50*%
X117386688Y-85103641D02*
X117386688Y-84796359D01*
X118146688Y-85103641D02*
X118146688Y-84796359D01*
D14*
%TO.C,U2*%
X124535000Y-124230000D02*
X124535000Y-124540000D01*
X124535000Y-128230000D02*
X124535000Y-127920000D01*
X124535000Y-128230000D02*
X124845000Y-128230000D01*
X124845000Y-124230000D02*
X124535000Y-124230000D01*
X128225000Y-128230000D02*
X128535000Y-128230000D01*
X128535000Y-124230000D02*
X128225000Y-124230000D01*
X128535000Y-124540000D02*
X128535000Y-124230000D01*
X128535000Y-128230000D02*
X128535000Y-127920000D01*
D10*
X123672500Y-124980000D02*
G75*
G02*
X123472500Y-124980000I-100000J0D01*
G01*
X123472500Y-124980000D02*
G75*
G02*
X123672500Y-124980000I100000J0D01*
G01*
D13*
%TO.C,R54*%
X122466333Y-84824653D02*
X122466333Y-85131935D01*
X123226333Y-84824653D02*
X123226333Y-85131935D01*
%TO.C,R82*%
X91632458Y-116427156D02*
X91178330Y-116427156D01*
X91632458Y-117897156D02*
X91178330Y-117897156D01*
%TO.C,R61*%
X130316358Y-76210000D02*
X130623640Y-76210000D01*
X130316358Y-76970000D02*
X130623640Y-76970000D01*
%TO.C,R30*%
X119917064Y-131715000D02*
X119462936Y-131715000D01*
X119917064Y-133185000D02*
X119462936Y-133185000D01*
%TO.C,C26*%
X129579037Y-125572014D02*
X129579037Y-125049508D01*
X131049037Y-125572014D02*
X131049037Y-125049508D01*
%TO.C,C17*%
X131130000Y-106561253D02*
X131130000Y-106038747D01*
X132600000Y-106561253D02*
X132600000Y-106038747D01*
%TO.C,C40*%
X104000000Y-117988367D02*
X104000000Y-118510871D01*
X105470000Y-117988367D02*
X105470000Y-118510871D01*
D18*
%TO.C,G\u002A\u002A\u002A*%
G36*
X84410224Y-136045475D02*
G01*
X84450841Y-136076800D01*
X84478937Y-136108978D01*
X84491868Y-136139402D01*
X84495121Y-136181430D01*
X84495128Y-136184619D01*
X84487130Y-136247023D01*
X84461472Y-136292740D01*
X84416830Y-136325664D01*
X84359369Y-136343581D01*
X84304321Y-136335917D01*
X84287973Y-136328654D01*
X84240203Y-136290231D01*
X84210611Y-136235897D01*
X84202051Y-136180351D01*
X84204815Y-136141503D01*
X84216777Y-136113230D01*
X84243446Y-136083845D01*
X84250706Y-136077101D01*
X84304633Y-136040661D01*
X84358080Y-136030118D01*
X84410224Y-136045475D01*
G37*
G36*
X87813693Y-136035682D02*
G01*
X87844683Y-136048956D01*
X87876584Y-136076800D01*
X87905107Y-136109748D01*
X87917984Y-136141013D01*
X87920872Y-136181196D01*
X87917209Y-136224661D01*
X87902417Y-136257491D01*
X87878538Y-136285777D01*
X87827194Y-136324267D01*
X87770648Y-136339554D01*
X87732000Y-136335960D01*
X87693136Y-136315699D01*
X87656868Y-136279528D01*
X87631734Y-136236899D01*
X87626523Y-136219188D01*
X87624956Y-136155808D01*
X87647150Y-136101074D01*
X87673050Y-136069920D01*
X87703747Y-136045072D01*
X87737419Y-136034311D01*
X87771377Y-136032513D01*
X87813693Y-136035682D01*
G37*
G36*
X94413294Y-133240867D02*
G01*
X94466401Y-133268839D01*
X94507255Y-133317966D01*
X94510618Y-133323779D01*
X94534057Y-133389156D01*
X94535282Y-133456467D01*
X94515990Y-133519898D01*
X94477877Y-133573636D01*
X94427182Y-133609742D01*
X94379171Y-133629324D01*
X94339842Y-133633610D01*
X94297260Y-133622721D01*
X94270326Y-133611308D01*
X94216406Y-133576003D01*
X94181984Y-133526246D01*
X94164883Y-133461675D01*
X94166193Y-133386426D01*
X94191517Y-133320549D01*
X94233043Y-133271728D01*
X94267298Y-133246223D01*
X94301475Y-133234583D01*
X94344213Y-133232000D01*
X94413294Y-133240867D01*
G37*
G36*
X88491622Y-131939369D02*
G01*
X88606359Y-131970721D01*
X88646157Y-131987368D01*
X88726736Y-132033548D01*
X88789758Y-132089004D01*
X88833563Y-132150764D01*
X88856490Y-132215856D01*
X88856880Y-132281306D01*
X88839254Y-132333087D01*
X88801928Y-132381290D01*
X88753459Y-132407637D01*
X88697637Y-132411617D01*
X88638254Y-132392720D01*
X88596782Y-132365754D01*
X88521052Y-132319668D01*
X88442903Y-132298340D01*
X88365085Y-132300993D01*
X88290350Y-132326853D01*
X88221450Y-132375144D01*
X88161136Y-132445091D01*
X88130140Y-132497273D01*
X88107309Y-132554234D01*
X88087319Y-132626797D01*
X88072465Y-132704517D01*
X88065042Y-132776951D01*
X88064606Y-132795641D01*
X88073428Y-132910672D01*
X88098891Y-133012780D01*
X88139487Y-133099906D01*
X88193712Y-133169991D01*
X88260059Y-133220975D01*
X88337022Y-133250800D01*
X88402820Y-133258051D01*
X88467864Y-133251978D01*
X88527193Y-133231678D01*
X88588076Y-133194034D01*
X88629633Y-133160754D01*
X88690412Y-133116276D01*
X88743820Y-133094301D01*
X88793472Y-133093711D01*
X88819901Y-133101851D01*
X88869675Y-133135579D01*
X88902760Y-133185739D01*
X88916927Y-133247096D01*
X88910088Y-133313898D01*
X88888736Y-133359131D01*
X88849500Y-133410857D01*
X88797730Y-133463781D01*
X88738773Y-133512608D01*
X88677979Y-133552042D01*
X88660291Y-133561197D01*
X88548136Y-133601914D01*
X88428958Y-133620745D01*
X88309576Y-133617022D01*
X88236933Y-133602689D01*
X88118304Y-133557896D01*
X88013658Y-133491902D01*
X87923896Y-133406036D01*
X87849917Y-133301623D01*
X87792620Y-133179990D01*
X87752905Y-133042465D01*
X87731672Y-132890374D01*
X87729532Y-132854256D01*
X87732077Y-132702939D01*
X87752692Y-132560785D01*
X87789801Y-132429283D01*
X87841831Y-132309922D01*
X87907209Y-132204190D01*
X87984359Y-132113576D01*
X88071709Y-132039568D01*
X88167684Y-131983655D01*
X88270711Y-131947325D01*
X88379215Y-131932067D01*
X88491622Y-131939369D01*
G37*
G36*
X80603290Y-131934895D02*
G01*
X80702661Y-131961585D01*
X80817012Y-132013365D01*
X80918923Y-132086691D01*
X81006485Y-132179279D01*
X81077788Y-132288848D01*
X81130923Y-132413115D01*
X81155217Y-132502564D01*
X81168334Y-132590265D01*
X81174799Y-132692965D01*
X81174610Y-132800477D01*
X81167765Y-132902611D01*
X81155282Y-132984513D01*
X81120613Y-133099790D01*
X81067939Y-133212759D01*
X81000788Y-133318409D01*
X80922683Y-133411728D01*
X80837152Y-133487705D01*
X80771976Y-133529376D01*
X80668773Y-133572157D01*
X80553722Y-133599088D01*
X80435121Y-133609181D01*
X80321270Y-133601446D01*
X80265620Y-133589760D01*
X80135475Y-133542132D01*
X80021148Y-133474067D01*
X79923493Y-133386452D01*
X79843364Y-133280173D01*
X79781615Y-133156118D01*
X79747850Y-133051832D01*
X79723040Y-132910984D01*
X79719490Y-132791224D01*
X80079590Y-132791224D01*
X80088640Y-132910151D01*
X80115517Y-133013930D01*
X80159300Y-133101034D01*
X80219064Y-133169932D01*
X80293887Y-133219099D01*
X80350637Y-133239880D01*
X80404334Y-133252509D01*
X80446034Y-133255957D01*
X80488154Y-133250135D01*
X80531067Y-133238573D01*
X80613497Y-133200948D01*
X80684546Y-133141940D01*
X80742555Y-133064336D01*
X80785862Y-132970923D01*
X80812808Y-132864487D01*
X80821743Y-132750571D01*
X80812064Y-132628914D01*
X80783745Y-132523128D01*
X80737255Y-132434445D01*
X80676500Y-132367006D01*
X80612802Y-132324125D01*
X80542220Y-132300991D01*
X80458466Y-132295755D01*
X80437848Y-132296807D01*
X80343210Y-132314950D01*
X80261601Y-132354903D01*
X80193925Y-132415419D01*
X80141085Y-132495249D01*
X80103986Y-132593146D01*
X80083532Y-132707861D01*
X80079590Y-132791224D01*
X79719490Y-132791224D01*
X79718704Y-132764692D01*
X79733924Y-132618034D01*
X79767781Y-132476090D01*
X79819357Y-132343938D01*
X79887732Y-132226658D01*
X79900158Y-132209628D01*
X79993772Y-132105208D01*
X80099302Y-132023472D01*
X80214884Y-131964996D01*
X80338652Y-131930357D01*
X80468742Y-131920131D01*
X80603290Y-131934895D01*
G37*
G36*
X90145742Y-134893174D02*
G01*
X90236828Y-134918145D01*
X90265487Y-134931061D01*
X90354004Y-134990129D01*
X90430874Y-135070928D01*
X90494465Y-135171140D01*
X90543143Y-135288447D01*
X90560688Y-135349975D01*
X90574503Y-135430097D01*
X90581968Y-135526793D01*
X90583187Y-135631400D01*
X90578268Y-135735252D01*
X90567314Y-135829686D01*
X90554091Y-135893320D01*
X90509473Y-136020505D01*
X90449673Y-136129081D01*
X90375694Y-136217696D01*
X90288545Y-136284996D01*
X90245949Y-136307665D01*
X90152719Y-136339212D01*
X90053035Y-136352284D01*
X89956626Y-136345865D01*
X89931816Y-136340505D01*
X89832093Y-136302177D01*
X89743395Y-136241797D01*
X89666979Y-136161465D01*
X89604101Y-136063279D01*
X89556019Y-135949339D01*
X89523991Y-135821744D01*
X89509274Y-135682594D01*
X89508434Y-135633628D01*
X89511354Y-135587802D01*
X89761209Y-135587802D01*
X89762527Y-135695141D01*
X89777142Y-135798127D01*
X89805528Y-135891159D01*
X89820505Y-135923670D01*
X89853889Y-135974410D01*
X89897625Y-136022206D01*
X89943522Y-136058773D01*
X89965897Y-136070756D01*
X90020030Y-136082001D01*
X90082895Y-136078338D01*
X90143070Y-136061367D01*
X90179590Y-136040847D01*
X90238092Y-135982270D01*
X90281795Y-135906408D01*
X90311106Y-135811960D01*
X90326431Y-135697625D01*
X90328240Y-135564107D01*
X90325330Y-135492400D01*
X90321271Y-135440167D01*
X90314950Y-135400834D01*
X90305255Y-135367824D01*
X90291072Y-135334560D01*
X90288482Y-135329128D01*
X90262123Y-135277117D01*
X90239255Y-135241421D01*
X90213569Y-135214217D01*
X90178755Y-135187682D01*
X90169021Y-135181006D01*
X90107043Y-135153758D01*
X90038836Y-135148544D01*
X89970426Y-135164408D01*
X89907840Y-135200395D01*
X89879444Y-135226912D01*
X89832307Y-135295663D01*
X89796573Y-135382462D01*
X89772716Y-135481708D01*
X89761209Y-135587802D01*
X89511354Y-135587802D01*
X89518753Y-135471706D01*
X89548048Y-135326508D01*
X89596138Y-135198479D01*
X89662840Y-135088062D01*
X89747972Y-134995701D01*
X89781793Y-134967949D01*
X89858987Y-134924104D01*
X89949955Y-134896678D01*
X90047829Y-134886193D01*
X90145742Y-134893174D01*
G37*
G36*
X85483572Y-134893326D02*
G01*
X85528928Y-134896021D01*
X85564344Y-134902391D01*
X85597869Y-134913974D01*
X85637557Y-134932307D01*
X85644066Y-134935501D01*
X85739067Y-134996632D01*
X85819459Y-135079112D01*
X85884931Y-135182515D01*
X85935173Y-135306414D01*
X85949269Y-135355179D01*
X85962491Y-135427167D01*
X85970354Y-135516141D01*
X85972862Y-135613591D01*
X85970023Y-135711012D01*
X85961844Y-135799894D01*
X85948870Y-135869692D01*
X85904308Y-136001424D01*
X85844621Y-136114450D01*
X85770724Y-136207501D01*
X85683530Y-136279306D01*
X85634203Y-136307352D01*
X85542220Y-136340034D01*
X85439705Y-136355375D01*
X85336120Y-136352736D01*
X85247010Y-136333549D01*
X85157419Y-136292046D01*
X85073045Y-136230897D01*
X85002072Y-136156336D01*
X84986518Y-136135077D01*
X84929883Y-136032045D01*
X84888068Y-135912438D01*
X84861662Y-135781502D01*
X84851259Y-135644486D01*
X84854013Y-135583147D01*
X85114959Y-135583147D01*
X85115210Y-135684265D01*
X85125827Y-135777710D01*
X85137192Y-135825717D01*
X85168435Y-135903751D01*
X85211073Y-135973665D01*
X85260486Y-136028805D01*
X85296205Y-136054809D01*
X85363759Y-136079161D01*
X85437483Y-136083043D01*
X85507614Y-136066237D01*
X85521416Y-136059831D01*
X85578095Y-136022149D01*
X85622995Y-135970818D01*
X85652996Y-135918948D01*
X85688522Y-135827411D01*
X85710003Y-135726300D01*
X85717870Y-135620669D01*
X85712551Y-135515569D01*
X85694477Y-135416052D01*
X85664077Y-135327171D01*
X85621782Y-135253977D01*
X85593731Y-135222357D01*
X85527653Y-135174580D01*
X85458260Y-135151028D01*
X85388354Y-135150606D01*
X85320736Y-135172215D01*
X85258206Y-135214760D01*
X85203565Y-135277142D01*
X85159614Y-135358264D01*
X85144836Y-135398211D01*
X85124895Y-135484436D01*
X85114959Y-135583147D01*
X84854013Y-135583147D01*
X84857448Y-135506638D01*
X84880821Y-135373204D01*
X84894986Y-135322651D01*
X84945864Y-135195152D01*
X85011983Y-135088220D01*
X85093036Y-135002242D01*
X85188715Y-134937605D01*
X85209257Y-134927422D01*
X85246580Y-134911325D01*
X85280734Y-134901103D01*
X85319563Y-134895468D01*
X85370910Y-134893132D01*
X85420222Y-134892769D01*
X85483572Y-134893326D01*
G37*
G36*
X88893980Y-134888478D02*
G01*
X88985667Y-134918881D01*
X89068326Y-134969851D01*
X89100482Y-134998632D01*
X89156988Y-135072993D01*
X89192311Y-135159901D01*
X89205246Y-135255186D01*
X89198227Y-135337045D01*
X89185076Y-135394167D01*
X89166191Y-135449400D01*
X89139695Y-135505618D01*
X89103710Y-135565694D01*
X89056358Y-135632499D01*
X88995761Y-135708907D01*
X88920040Y-135797792D01*
X88832981Y-135895743D01*
X88779250Y-135956645D01*
X88742835Y-136001312D01*
X88722476Y-136031775D01*
X88716915Y-136050066D01*
X88724892Y-136058215D01*
X88731718Y-136059094D01*
X88749449Y-136059209D01*
X88788773Y-136059203D01*
X88845232Y-136059087D01*
X88914370Y-136058869D01*
X88986209Y-136058583D01*
X89224417Y-136057541D01*
X89263003Y-136096128D01*
X89295185Y-136144384D01*
X89302991Y-136197514D01*
X89286402Y-136251150D01*
X89263823Y-136282780D01*
X89226056Y-136325049D01*
X88967489Y-136333944D01*
X88838078Y-136338180D01*
X88732050Y-136341092D01*
X88646770Y-136342642D01*
X88579603Y-136342791D01*
X88527912Y-136341501D01*
X88489062Y-136338733D01*
X88460418Y-136334448D01*
X88439343Y-136328608D01*
X88433111Y-136326122D01*
X88386018Y-136292719D01*
X88356800Y-136244052D01*
X88346577Y-136184801D01*
X88356466Y-136119649D01*
X88373710Y-136077317D01*
X88409464Y-136017349D01*
X88461647Y-135943557D01*
X88527380Y-135859608D01*
X88603783Y-135769166D01*
X88687976Y-135675894D01*
X88695548Y-135667795D01*
X88775281Y-135580253D01*
X88837030Y-135506440D01*
X88882863Y-135443453D01*
X88914847Y-135388388D01*
X88935049Y-135338343D01*
X88938360Y-135326812D01*
X88944261Y-135264005D01*
X88928799Y-135211141D01*
X88895501Y-135170477D01*
X88847895Y-135144271D01*
X88789511Y-135134781D01*
X88723875Y-135144265D01*
X88679722Y-135161319D01*
X88637339Y-135188157D01*
X88603268Y-135226615D01*
X88583019Y-135259308D01*
X88558076Y-135298922D01*
X88534048Y-135329613D01*
X88519496Y-135342450D01*
X88470944Y-135354854D01*
X88419326Y-135346411D01*
X88381503Y-135324389D01*
X88353408Y-135283977D01*
X88343772Y-135230494D01*
X88352619Y-135169277D01*
X88379970Y-135105661D01*
X88380571Y-135104630D01*
X88441567Y-135024130D01*
X88517778Y-134960626D01*
X88605166Y-134914714D01*
X88699690Y-134886989D01*
X88797308Y-134878045D01*
X88893980Y-134888478D01*
G37*
G36*
X82083504Y-134902628D02*
G01*
X82183894Y-134945033D01*
X82273250Y-135009042D01*
X82349983Y-135093427D01*
X82412503Y-135196962D01*
X82459222Y-135318419D01*
X82470974Y-135362534D01*
X82485241Y-135447146D01*
X82492584Y-135546577D01*
X82493093Y-135651832D01*
X82486853Y-135753918D01*
X82473953Y-135843843D01*
X82465963Y-135878074D01*
X82419381Y-136011754D01*
X82358223Y-136124731D01*
X82282839Y-136216523D01*
X82193583Y-136286642D01*
X82153274Y-136308909D01*
X82108226Y-136329743D01*
X82069962Y-136342780D01*
X82029102Y-136350054D01*
X81976265Y-136353599D01*
X81942456Y-136354608D01*
X81864524Y-136353831D01*
X81800400Y-136347913D01*
X81763469Y-136339839D01*
X81658538Y-136292848D01*
X81568568Y-136224568D01*
X81493638Y-136135093D01*
X81433828Y-136024516D01*
X81392236Y-135904264D01*
X81376294Y-135822924D01*
X81366733Y-135725207D01*
X81363646Y-135620016D01*
X81363792Y-135615658D01*
X81620727Y-135615658D01*
X81627097Y-135719510D01*
X81646333Y-135817473D01*
X81677435Y-135905602D01*
X81719398Y-135979954D01*
X81771222Y-136036587D01*
X81818359Y-136066153D01*
X81875039Y-136080933D01*
X81942046Y-136083191D01*
X82007068Y-136073293D01*
X82044626Y-136059422D01*
X82104387Y-136014966D01*
X82156239Y-135946403D01*
X82192143Y-135874231D01*
X82203753Y-135843802D01*
X82211869Y-135813452D01*
X82217112Y-135777639D01*
X82220101Y-135730817D01*
X82221456Y-135667443D01*
X82221766Y-135609179D01*
X82221680Y-135533018D01*
X82220580Y-135477336D01*
X82217729Y-135436565D01*
X82212391Y-135405135D01*
X82203829Y-135377476D01*
X82191305Y-135348018D01*
X82185580Y-135335679D01*
X82150846Y-135269800D01*
X82115671Y-135223291D01*
X82074566Y-135189967D01*
X82039795Y-135171388D01*
X81963989Y-135149190D01*
X81889773Y-135151429D01*
X81819790Y-135176511D01*
X81756684Y-135222843D01*
X81703096Y-135288831D01*
X81661669Y-135372883D01*
X81650597Y-135406054D01*
X81628227Y-135509858D01*
X81620727Y-135615658D01*
X81363792Y-135615658D01*
X81367125Y-135516253D01*
X81377262Y-135422822D01*
X81386752Y-135374718D01*
X81427732Y-135249837D01*
X81485253Y-135138368D01*
X81556857Y-135044825D01*
X81577592Y-135023888D01*
X81656074Y-134959780D01*
X81737348Y-134917076D01*
X81829706Y-134891713D01*
X81855977Y-134887540D01*
X81973668Y-134883054D01*
X82083504Y-134902628D01*
G37*
G36*
X92595844Y-134891327D02*
G01*
X92665392Y-134908787D01*
X92715104Y-134940070D01*
X92743866Y-134984369D01*
X92750561Y-135040879D01*
X92747753Y-135061984D01*
X92734694Y-135100702D01*
X92710104Y-135125971D01*
X92669913Y-135139822D01*
X92610047Y-135144286D01*
X92583308Y-135143997D01*
X92495000Y-135150070D01*
X92422643Y-135174547D01*
X92363336Y-135219372D01*
X92314178Y-135286485D01*
X92286342Y-135342871D01*
X92269535Y-135387714D01*
X92256993Y-135432068D01*
X92250045Y-135469424D01*
X92250020Y-135493273D01*
X92254563Y-135498455D01*
X92271613Y-135494139D01*
X92304605Y-135483028D01*
X92333076Y-135472544D01*
X92437047Y-135443265D01*
X92534206Y-135437741D01*
X92617455Y-135452555D01*
X92717325Y-135493976D01*
X92800078Y-135554837D01*
X92865095Y-135634418D01*
X92911758Y-135731998D01*
X92935613Y-135823383D01*
X92942287Y-135926270D01*
X92926255Y-136024527D01*
X92890179Y-136115471D01*
X92836722Y-136196417D01*
X92768544Y-136264684D01*
X92688310Y-136317588D01*
X92598679Y-136352445D01*
X92502316Y-136366572D01*
X92405205Y-136357989D01*
X92301856Y-136324104D01*
X92212086Y-136268740D01*
X92136501Y-136193009D01*
X92075709Y-136098023D01*
X92030318Y-135984897D01*
X92005321Y-135874175D01*
X92262965Y-135874175D01*
X92276187Y-135927262D01*
X92300260Y-135979359D01*
X92320069Y-136007703D01*
X92379482Y-136062521D01*
X92443847Y-136091804D01*
X92512907Y-136095495D01*
X92586406Y-136073533D01*
X92592181Y-136070806D01*
X92645672Y-136031588D01*
X92681493Y-135977574D01*
X92698000Y-135914510D01*
X92693548Y-135848138D01*
X92671760Y-135792894D01*
X92627138Y-135738808D01*
X92568432Y-135705969D01*
X92497423Y-135694958D01*
X92415888Y-135706358D01*
X92411105Y-135707655D01*
X92365741Y-135727382D01*
X92321005Y-135758317D01*
X92284669Y-135793988D01*
X92264503Y-135827922D01*
X92263834Y-135830317D01*
X92262965Y-135874175D01*
X92005321Y-135874175D01*
X92000933Y-135854741D01*
X91988163Y-135708670D01*
X91989503Y-135596154D01*
X91994270Y-135526846D01*
X92001232Y-135459587D01*
X92009382Y-135402883D01*
X92016253Y-135370196D01*
X92055960Y-135257262D01*
X92109784Y-135152556D01*
X92173752Y-135063278D01*
X92202771Y-135032033D01*
X92275830Y-134967950D01*
X92346170Y-134924839D01*
X92420680Y-134899457D01*
X92506246Y-134888561D01*
X92507576Y-134888495D01*
X92595844Y-134891327D01*
G37*
G36*
X83626475Y-131951727D02*
G01*
X83703528Y-131960232D01*
X83769898Y-131977088D01*
X83833094Y-132004338D01*
X83900624Y-132044024D01*
X83916237Y-132054248D01*
X84006786Y-132129507D01*
X84083822Y-132224439D01*
X84146304Y-132335842D01*
X84193187Y-132460515D01*
X84223428Y-132595256D01*
X84235984Y-132736865D01*
X84229809Y-132882139D01*
X84215932Y-132973597D01*
X84178500Y-133110465D01*
X84122969Y-133235986D01*
X84051406Y-133347569D01*
X83965880Y-133442625D01*
X83868458Y-133518563D01*
X83761207Y-133572794D01*
X83728601Y-133584079D01*
X83675385Y-133597321D01*
X83612471Y-133608075D01*
X83548329Y-133615402D01*
X83491430Y-133618365D01*
X83450246Y-133616025D01*
X83446564Y-133615300D01*
X83419350Y-133609529D01*
X83377757Y-133601022D01*
X83348872Y-133595225D01*
X83245118Y-133562260D01*
X83144747Y-133507357D01*
X83052951Y-133434565D01*
X82974923Y-133347937D01*
X82920597Y-133261163D01*
X82876647Y-133162011D01*
X82846933Y-133063852D01*
X82829753Y-132958777D01*
X82823406Y-132838875D01*
X82823298Y-132808666D01*
X82823515Y-132797352D01*
X83168314Y-132797352D01*
X83169246Y-132833798D01*
X83183724Y-132954146D01*
X83215385Y-133054930D01*
X83264242Y-133136181D01*
X83330309Y-133197932D01*
X83345160Y-133207680D01*
X83422611Y-133241394D01*
X83507767Y-133254530D01*
X83593211Y-133246951D01*
X83671523Y-133218518D01*
X83679800Y-133213868D01*
X83750705Y-133157843D01*
X83808411Y-133083059D01*
X83851947Y-132993762D01*
X83880343Y-132894195D01*
X83892625Y-132788604D01*
X83887825Y-132681233D01*
X83864970Y-132576327D01*
X83840318Y-132512219D01*
X83790747Y-132426154D01*
X83731333Y-132363718D01*
X83660549Y-132323851D01*
X83576867Y-132305494D01*
X83540037Y-132303937D01*
X83448087Y-132315750D01*
X83367069Y-132350003D01*
X83298194Y-132404967D01*
X83242670Y-132478913D01*
X83201710Y-132570112D01*
X83176521Y-132676835D01*
X83168314Y-132797352D01*
X82823515Y-132797352D01*
X82824958Y-132721971D01*
X82829724Y-132653087D01*
X82838453Y-132593873D01*
X82851854Y-132536715D01*
X82901584Y-132392629D01*
X82967331Y-132265479D01*
X83047856Y-132156851D01*
X83141918Y-132068330D01*
X83248276Y-132001501D01*
X83283089Y-131985629D01*
X83321960Y-131970364D01*
X83356509Y-131960150D01*
X83393721Y-131953971D01*
X83440583Y-131950810D01*
X83504082Y-131949652D01*
X83531231Y-131949532D01*
X83626475Y-131951727D01*
G37*
G36*
X92445429Y-132006666D02*
G01*
X92494203Y-132039305D01*
X92532172Y-132086981D01*
X92554343Y-132144191D01*
X92558000Y-132178830D01*
X92553244Y-132238921D01*
X92539735Y-132319331D01*
X92518612Y-132416280D01*
X92491013Y-132525986D01*
X92458077Y-132644667D01*
X92420941Y-132768544D01*
X92380745Y-132893835D01*
X92338626Y-133016758D01*
X92295723Y-133133533D01*
X92253176Y-133240378D01*
X92212121Y-133333513D01*
X92207252Y-133343791D01*
X92151320Y-133451241D01*
X92097971Y-133533776D01*
X92046500Y-133592324D01*
X91996200Y-133627812D01*
X91988546Y-133631273D01*
X91922067Y-133647804D01*
X91852590Y-133646184D01*
X91789924Y-133627093D01*
X91771076Y-133616181D01*
X91733525Y-133588058D01*
X91701215Y-133556624D01*
X91670461Y-133516993D01*
X91637575Y-133464279D01*
X91598868Y-133393596D01*
X91589274Y-133375282D01*
X91543842Y-133282581D01*
X91497284Y-133177575D01*
X91450623Y-133063465D01*
X91404879Y-132943452D01*
X91361076Y-132820737D01*
X91320236Y-132698522D01*
X91283379Y-132580009D01*
X91251529Y-132468397D01*
X91225708Y-132366890D01*
X91206937Y-132278688D01*
X91196238Y-132206992D01*
X91194634Y-132155004D01*
X91196089Y-132143676D01*
X91217844Y-132088172D01*
X91257068Y-132040879D01*
X91306984Y-132008545D01*
X91341553Y-131998801D01*
X91400899Y-132001155D01*
X91456846Y-132021271D01*
X91500138Y-132055405D01*
X91508234Y-132066199D01*
X91517898Y-132088057D01*
X91532783Y-132130545D01*
X91551439Y-132189110D01*
X91572415Y-132259198D01*
X91594012Y-132335358D01*
X91622735Y-132436258D01*
X91654695Y-132543085D01*
X91688541Y-132651781D01*
X91722924Y-132758283D01*
X91756493Y-132858532D01*
X91787898Y-132948466D01*
X91815788Y-133024026D01*
X91838813Y-133081151D01*
X91850288Y-133105994D01*
X91870211Y-133141942D01*
X91884556Y-133157370D01*
X91897253Y-133156015D01*
X91900440Y-133153650D01*
X91917517Y-133129670D01*
X91939797Y-133083053D01*
X91966386Y-133016493D01*
X91996386Y-132932680D01*
X92028905Y-132834308D01*
X92063045Y-132724066D01*
X92097913Y-132604648D01*
X92132612Y-132478745D01*
X92160592Y-132371451D01*
X92182019Y-132289538D01*
X92202838Y-132214455D01*
X92221754Y-132150530D01*
X92237473Y-132102097D01*
X92248699Y-132073485D01*
X92250787Y-132069727D01*
X92285369Y-132035141D01*
X92333551Y-132007974D01*
X92382894Y-131994904D01*
X92390838Y-131994564D01*
X92445429Y-132006666D01*
G37*
G36*
X95481660Y-131375657D02*
G01*
X95542070Y-131394641D01*
X95640778Y-131445887D01*
X95729910Y-131520200D01*
X95808871Y-131616192D01*
X95877066Y-131732476D01*
X95933902Y-131867666D01*
X95978783Y-132020373D01*
X96011115Y-132189210D01*
X96030304Y-132372791D01*
X96035846Y-132546842D01*
X96029964Y-132724759D01*
X96011594Y-132884623D01*
X95979654Y-133031805D01*
X95933061Y-133171675D01*
X95889731Y-133271077D01*
X95840653Y-133356640D01*
X95778308Y-133439186D01*
X95707728Y-133513542D01*
X95633944Y-133574533D01*
X95561988Y-133616985D01*
X95547384Y-133623136D01*
X95485017Y-133640999D01*
X95410074Y-133653104D01*
X95332459Y-133658635D01*
X95262075Y-133656776D01*
X95220215Y-133650098D01*
X95113525Y-133609877D01*
X95016620Y-133546726D01*
X94930188Y-133462128D01*
X94854919Y-133357564D01*
X94791500Y-133234517D01*
X94740620Y-133094467D01*
X94702968Y-132938898D01*
X94679231Y-132769290D01*
X94670098Y-132587126D01*
X94670803Y-132543955D01*
X95007222Y-132543955D01*
X95012914Y-132705460D01*
X95030581Y-132850322D01*
X95059764Y-132977112D01*
X95100007Y-133084402D01*
X95150853Y-133170762D01*
X95211843Y-133234765D01*
X95233270Y-133250188D01*
X95299212Y-133278148D01*
X95370942Y-133283077D01*
X95441292Y-133264545D01*
X95444919Y-133262865D01*
X95501945Y-133222373D01*
X95553715Y-133159303D01*
X95599349Y-133076756D01*
X95637966Y-132977837D01*
X95668686Y-132865647D01*
X95690629Y-132743289D01*
X95702914Y-132613867D01*
X95704661Y-132480481D01*
X95697756Y-132371757D01*
X95676824Y-132215160D01*
X95647486Y-132079260D01*
X95610126Y-131964792D01*
X95565129Y-131872487D01*
X95512882Y-131803077D01*
X95453768Y-131757295D01*
X95388173Y-131735872D01*
X95362416Y-131734265D01*
X95294552Y-131747106D01*
X95232061Y-131783895D01*
X95175684Y-131842942D01*
X95126162Y-131922559D01*
X95084235Y-132021057D01*
X95050645Y-132136747D01*
X95026132Y-132267941D01*
X95011437Y-132412951D01*
X95007222Y-132543955D01*
X94670803Y-132543955D01*
X94672011Y-132470000D01*
X94681935Y-132318117D01*
X94699445Y-132182982D01*
X94726012Y-132056019D01*
X94763107Y-131928654D01*
X94766758Y-131917638D01*
X94806299Y-131809105D01*
X94846737Y-131720080D01*
X94891567Y-131644152D01*
X94944285Y-131574907D01*
X94968687Y-131547293D01*
X95059396Y-131465001D01*
X95158184Y-131406123D01*
X95262914Y-131371228D01*
X95371451Y-131360882D01*
X95481660Y-131375657D01*
G37*
G36*
X91336735Y-134882019D02*
G01*
X91425353Y-134899860D01*
X91507194Y-134934098D01*
X91578550Y-134984812D01*
X91635715Y-135052082D01*
X91660512Y-135097828D01*
X91684221Y-135177250D01*
X91692252Y-135268302D01*
X91684604Y-135361806D01*
X91661278Y-135448586D01*
X91660533Y-135450490D01*
X91626886Y-135517571D01*
X91573534Y-135598962D01*
X91501530Y-135693227D01*
X91411925Y-135798935D01*
X91371810Y-135843641D01*
X91307798Y-135914822D01*
X91260719Y-135969343D01*
X91229161Y-136009036D01*
X91211710Y-136035737D01*
X91206954Y-136051278D01*
X91208744Y-136055291D01*
X91224039Y-136057931D01*
X91261151Y-136059841D01*
X91315858Y-136060937D01*
X91383935Y-136061136D01*
X91461157Y-136060353D01*
X91462237Y-136060335D01*
X91706685Y-136056335D01*
X91748086Y-136091171D01*
X91774254Y-136117080D01*
X91786359Y-136144015D01*
X91789474Y-136183871D01*
X91789487Y-136188202D01*
X91785890Y-136233283D01*
X91772319Y-136264835D01*
X91755772Y-136284111D01*
X91742226Y-136296539D01*
X91727140Y-136306526D01*
X91707557Y-136314418D01*
X91680517Y-136320557D01*
X91643064Y-136325288D01*
X91592239Y-136328956D01*
X91525082Y-136331905D01*
X91438637Y-136334478D01*
X91329944Y-136337021D01*
X91294513Y-136337788D01*
X91188288Y-136339746D01*
X91105063Y-136340471D01*
X91041813Y-136339872D01*
X90995513Y-136337859D01*
X90963137Y-136334343D01*
X90941659Y-136329233D01*
X90936308Y-136327119D01*
X90883108Y-136291892D01*
X90851709Y-136242927D01*
X90842779Y-136206113D01*
X90845049Y-136158291D01*
X90863886Y-136100630D01*
X90900006Y-136032016D01*
X90954123Y-135951336D01*
X91026954Y-135857477D01*
X91119213Y-135749326D01*
X91179084Y-135682702D01*
X91258960Y-135593425D01*
X91321540Y-135519053D01*
X91368617Y-135456764D01*
X91401986Y-135403736D01*
X91423438Y-135357148D01*
X91434769Y-135314176D01*
X91437795Y-135275640D01*
X91426483Y-135220658D01*
X91395613Y-135177500D01*
X91349785Y-135148239D01*
X91293599Y-135134949D01*
X91231654Y-135139702D01*
X91178907Y-135158966D01*
X91122053Y-135201771D01*
X91086036Y-135248325D01*
X91051575Y-135300447D01*
X91023129Y-135332912D01*
X90995939Y-135349783D01*
X90965244Y-135355121D01*
X90960806Y-135355179D01*
X90909727Y-135343358D01*
X90870219Y-135310491D01*
X90846331Y-135260474D01*
X90842648Y-135241484D01*
X90841200Y-135200720D01*
X90850499Y-135160428D01*
X90870298Y-135114839D01*
X90921732Y-135035975D01*
X90988631Y-134973029D01*
X91067288Y-134926080D01*
X91153995Y-134895209D01*
X91245047Y-134880496D01*
X91336735Y-134882019D01*
G37*
G36*
X83265581Y-134929650D02*
G01*
X83296722Y-134945664D01*
X83310781Y-134958965D01*
X83328379Y-134981327D01*
X83339261Y-135006126D01*
X83342778Y-135036194D01*
X83338276Y-135074364D01*
X83325107Y-135123468D01*
X83302618Y-135186338D01*
X83270158Y-135265807D01*
X83227077Y-135364707D01*
X83207344Y-135408960D01*
X83170954Y-135490795D01*
X83138404Y-135565110D01*
X83111147Y-135628498D01*
X83090634Y-135677552D01*
X83078318Y-135708866D01*
X83075333Y-135718697D01*
X83084253Y-135725170D01*
X83112435Y-135729167D01*
X83162010Y-135730830D01*
X83235113Y-135730298D01*
X83247923Y-135730044D01*
X83420513Y-135726410D01*
X83428646Y-135601926D01*
X83436883Y-135519985D01*
X83450301Y-135460072D01*
X83470426Y-135418418D01*
X83498784Y-135391258D01*
X83518024Y-135381305D01*
X83571877Y-135370258D01*
X83618674Y-135384142D01*
X83657499Y-135422569D01*
X83671256Y-135446029D01*
X83686675Y-135482120D01*
X83695710Y-135520605D01*
X83699825Y-135570097D01*
X83700564Y-135618452D01*
X83700921Y-135673207D01*
X83702856Y-135706975D01*
X83707664Y-135724821D01*
X83716641Y-135731807D01*
X83729872Y-135732995D01*
X83796748Y-135742360D01*
X83848031Y-135767859D01*
X83881412Y-135806146D01*
X83894581Y-135853876D01*
X83885228Y-135907705D01*
X83870710Y-135936974D01*
X83850328Y-135963081D01*
X83822946Y-135979656D01*
X83779582Y-135991876D01*
X83773067Y-135993257D01*
X83700564Y-136008308D01*
X83699997Y-136088795D01*
X83695448Y-136178732D01*
X83682811Y-136246240D01*
X83661440Y-136293856D01*
X83642445Y-136315441D01*
X83600001Y-136337597D01*
X83548518Y-136345080D01*
X83500378Y-136336621D01*
X83489057Y-136331148D01*
X83465064Y-136310725D01*
X83448022Y-136279063D01*
X83436533Y-136231749D01*
X83429199Y-136164367D01*
X83427437Y-136136718D01*
X83420513Y-136012974D01*
X83133949Y-136006461D01*
X83031442Y-136003779D01*
X82951687Y-136000450D01*
X82891384Y-135995709D01*
X82847233Y-135988794D01*
X82815935Y-135978941D01*
X82794189Y-135965385D01*
X82778697Y-135947364D01*
X82766159Y-135924113D01*
X82764725Y-135920999D01*
X82755145Y-135896246D01*
X82749915Y-135870579D01*
X82749844Y-135841261D01*
X82755744Y-135805553D01*
X82768421Y-135760717D01*
X82788687Y-135704013D01*
X82817350Y-135632704D01*
X82855219Y-135544051D01*
X82903105Y-135435315D01*
X82918475Y-135400769D01*
X82952572Y-135324162D01*
X82986468Y-135247857D01*
X83017278Y-135178361D01*
X83042116Y-135122179D01*
X83053105Y-135097217D01*
X83087713Y-135025111D01*
X83119681Y-134975144D01*
X83152198Y-134944064D01*
X83188451Y-134928619D01*
X83221571Y-134925333D01*
X83265581Y-134929650D01*
G37*
G36*
X86952596Y-134900730D02*
G01*
X87007414Y-134903200D01*
X87048524Y-134908251D01*
X87079004Y-134916194D01*
X87101930Y-134927338D01*
X87120380Y-134941993D01*
X87129564Y-134951474D01*
X87159224Y-135001276D01*
X87165762Y-135055784D01*
X87149017Y-135108494D01*
X87133957Y-135129761D01*
X87102529Y-135166307D01*
X86843335Y-135173790D01*
X86763126Y-135176547D01*
X86691431Y-135179846D01*
X86632476Y-135183426D01*
X86590486Y-135187024D01*
X86569687Y-135190378D01*
X86568660Y-135190841D01*
X86559748Y-135209497D01*
X86554410Y-135249506D01*
X86553179Y-135289510D01*
X86553179Y-135378612D01*
X86712743Y-135377690D01*
X86785467Y-135377994D01*
X86839086Y-135380434D01*
X86880515Y-135385841D01*
X86916668Y-135395044D01*
X86946575Y-135405751D01*
X87036162Y-135454132D01*
X87114946Y-135523406D01*
X87178221Y-135609140D01*
X87194294Y-135639062D01*
X87213694Y-135680255D01*
X87226130Y-135714159D01*
X87233138Y-135748825D01*
X87236255Y-135792305D01*
X87237019Y-135852650D01*
X87237025Y-135862905D01*
X87236454Y-135926384D01*
X87233727Y-135971871D01*
X87227325Y-136007415D01*
X87215728Y-136041069D01*
X87197417Y-136080884D01*
X87194918Y-136086005D01*
X87134369Y-136180848D01*
X87054699Y-136258645D01*
X86959256Y-136316626D01*
X86921297Y-136332603D01*
X86884916Y-136343105D01*
X86842458Y-136349462D01*
X86786273Y-136353001D01*
X86742051Y-136354342D01*
X86654631Y-136354119D01*
X86587163Y-136348988D01*
X86546666Y-136340567D01*
X86458662Y-136304200D01*
X86386851Y-136259641D01*
X86333220Y-136209196D01*
X86299752Y-136155170D01*
X86288434Y-136099866D01*
X86298271Y-136052215D01*
X86330290Y-136001303D01*
X86372531Y-135973453D01*
X86422376Y-135969056D01*
X86477208Y-135988507D01*
X86519948Y-136018909D01*
X86593205Y-136066980D01*
X86673928Y-136093294D01*
X86756871Y-136096981D01*
X86836788Y-136077171D01*
X86846256Y-136073022D01*
X86912395Y-136031262D01*
X86956338Y-135976510D01*
X86979102Y-135907148D01*
X86983025Y-135855172D01*
X86972641Y-135784198D01*
X86940069Y-135724809D01*
X86904935Y-135689385D01*
X86840801Y-135650508D01*
X86763968Y-135631781D01*
X86673149Y-135633111D01*
X86567054Y-135654402D01*
X86538743Y-135662604D01*
X86485022Y-135678632D01*
X86449244Y-135687378D01*
X86424486Y-135689336D01*
X86403827Y-135684999D01*
X86380346Y-135674863D01*
X86378605Y-135674038D01*
X86352630Y-135660379D01*
X86332479Y-135644858D01*
X86317417Y-135624181D01*
X86306709Y-135595057D01*
X86299618Y-135554194D01*
X86295409Y-135498300D01*
X86293347Y-135424083D01*
X86292697Y-135328250D01*
X86292666Y-135289395D01*
X86292666Y-135000882D01*
X86335411Y-134958137D01*
X86378155Y-134915393D01*
X86675123Y-134905710D01*
X86789528Y-134902295D01*
X86880993Y-134900532D01*
X86952596Y-134900730D01*
G37*
G36*
X87078553Y-131918243D02*
G01*
X87152598Y-131925460D01*
X87175693Y-131929941D01*
X87282916Y-131967441D01*
X87378141Y-132026437D01*
X87457936Y-132104234D01*
X87518866Y-132198135D01*
X87519914Y-132200251D01*
X87541650Y-132247361D01*
X87554492Y-132286268D01*
X87560715Y-132327505D01*
X87562590Y-132381600D01*
X87562646Y-132398275D01*
X87561526Y-132457168D01*
X87556622Y-132500588D01*
X87545663Y-132539072D01*
X87526373Y-132583156D01*
X87519854Y-132596546D01*
X87462504Y-132686736D01*
X87386204Y-132761211D01*
X87288871Y-132821948D01*
X87275696Y-132828399D01*
X87202583Y-132858861D01*
X87123998Y-132882061D01*
X87034255Y-132899192D01*
X86927665Y-132911452D01*
X86854761Y-132916871D01*
X86790493Y-132921534D01*
X86735830Y-132926656D01*
X86695923Y-132931670D01*
X86675921Y-132936007D01*
X86674808Y-132936696D01*
X86673576Y-132953004D01*
X86679654Y-132985999D01*
X86688877Y-133019112D01*
X86717824Y-133084747D01*
X86763592Y-133143819D01*
X86773075Y-133153546D01*
X86848559Y-133212072D01*
X86932853Y-133246954D01*
X87023704Y-133258134D01*
X87118860Y-133245553D01*
X87216069Y-133209155D01*
X87288081Y-133166797D01*
X87352643Y-133127025D01*
X87404819Y-133106372D01*
X87449580Y-133104529D01*
X87491895Y-133121187D01*
X87531876Y-133151636D01*
X87566043Y-133198446D01*
X87581506Y-133256382D01*
X87577359Y-133317546D01*
X87556670Y-133367933D01*
X87507344Y-133427886D01*
X87437699Y-133484738D01*
X87353460Y-133534834D01*
X87260354Y-133574516D01*
X87208456Y-133590313D01*
X87141562Y-133601945D01*
X87059898Y-133607612D01*
X86973612Y-133607333D01*
X86892852Y-133601125D01*
X86830164Y-133589663D01*
X86716738Y-133546191D01*
X86610059Y-133480119D01*
X86514588Y-133394797D01*
X86434782Y-133293578D01*
X86433521Y-133291636D01*
X86378897Y-133185931D01*
X86339351Y-133063795D01*
X86315238Y-132930290D01*
X86306911Y-132790475D01*
X86314724Y-132649410D01*
X86330441Y-132560660D01*
X86683436Y-132560660D01*
X86684536Y-132577271D01*
X86691438Y-132587109D01*
X86709541Y-132591938D01*
X86744248Y-132593523D01*
X86784384Y-132593645D01*
X86848707Y-132591659D01*
X86917076Y-132586573D01*
X86970000Y-132580147D01*
X87057886Y-132559715D01*
X87129640Y-132529887D01*
X87183492Y-132492592D01*
X87217676Y-132449758D01*
X87230421Y-132403313D01*
X87219960Y-132355187D01*
X87202274Y-132326896D01*
X87154527Y-132285968D01*
X87093074Y-132262293D01*
X87023241Y-132255330D01*
X86950351Y-132264540D01*
X86879728Y-132289381D01*
X86816696Y-132329314D01*
X86776632Y-132370075D01*
X86738334Y-132425103D01*
X86707727Y-132481216D01*
X86688391Y-132531092D01*
X86683436Y-132560660D01*
X86330441Y-132560660D01*
X86339030Y-132512157D01*
X86371616Y-132405735D01*
X86431527Y-132278708D01*
X86509566Y-132166763D01*
X86603375Y-132072199D01*
X86710599Y-131997315D01*
X86828880Y-131944412D01*
X86851877Y-131937191D01*
X86917022Y-131924359D01*
X86996305Y-131917959D01*
X87078553Y-131918243D01*
G37*
G36*
X93499956Y-131328687D02*
G01*
X93613266Y-131362021D01*
X93712566Y-131415948D01*
X93796506Y-131489031D01*
X93863736Y-131579834D01*
X93912906Y-131686919D01*
X93942667Y-131808849D01*
X93951743Y-131932489D01*
X93945102Y-132042009D01*
X93924328Y-132149328D01*
X93888151Y-132257023D01*
X93835298Y-132367672D01*
X93764496Y-132483852D01*
X93674474Y-132608142D01*
X93563960Y-132743117D01*
X93535371Y-132776102D01*
X93435641Y-132891690D01*
X93351763Y-132992278D01*
X93284219Y-133077230D01*
X93233492Y-133145913D01*
X93200064Y-133197689D01*
X93184417Y-133231925D01*
X93183231Y-133239821D01*
X93188715Y-133248139D01*
X93206635Y-133253886D01*
X93239188Y-133257084D01*
X93288575Y-133257755D01*
X93356992Y-133255920D01*
X93446639Y-133251600D01*
X93559715Y-133244817D01*
X93577640Y-133243666D01*
X93675653Y-133238124D01*
X93751550Y-133236174D01*
X93809095Y-133238424D01*
X93852053Y-133245484D01*
X93884189Y-133257964D01*
X93909266Y-133276474D01*
X93930436Y-133300805D01*
X93964243Y-133363983D01*
X93972410Y-133430419D01*
X93963294Y-133479272D01*
X93933436Y-133538229D01*
X93883968Y-133580435D01*
X93814418Y-133606275D01*
X93805335Y-133608171D01*
X93755099Y-133615641D01*
X93686201Y-133622552D01*
X93602708Y-133628789D01*
X93508683Y-133634234D01*
X93408192Y-133638769D01*
X93305299Y-133642278D01*
X93204069Y-133644642D01*
X93108568Y-133645745D01*
X93022859Y-133645469D01*
X92951008Y-133643697D01*
X92897079Y-133640312D01*
X92865461Y-133635294D01*
X92812024Y-133606635D01*
X92768255Y-133558676D01*
X92740042Y-133497890D01*
X92739836Y-133497157D01*
X92731561Y-133441558D01*
X92737299Y-133379328D01*
X92757946Y-133306792D01*
X92794399Y-133220273D01*
X92820187Y-133167974D01*
X92858978Y-133096351D01*
X92902466Y-133024632D01*
X92953037Y-132949518D01*
X93013079Y-132867712D01*
X93084978Y-132775915D01*
X93171120Y-132670830D01*
X93234503Y-132595463D01*
X93294490Y-132523795D01*
X93353347Y-132451881D01*
X93407312Y-132384434D01*
X93452625Y-132326167D01*
X93485527Y-132281793D01*
X93490993Y-132273976D01*
X93556790Y-132162385D01*
X93597307Y-132055947D01*
X93612499Y-131954836D01*
X93602321Y-131859230D01*
X93599720Y-131849308D01*
X93575630Y-131801599D01*
X93534557Y-131755733D01*
X93484909Y-131719388D01*
X93436816Y-131700550D01*
X93356261Y-131696211D01*
X93275322Y-131710834D01*
X93200920Y-131741951D01*
X93139979Y-131787093D01*
X93116196Y-131814883D01*
X93095599Y-131850428D01*
X93073430Y-131898650D01*
X93059464Y-131935152D01*
X93036865Y-131989158D01*
X93010823Y-132025132D01*
X92988655Y-132043242D01*
X92931243Y-132067818D01*
X92871718Y-132069486D01*
X92815937Y-132050137D01*
X92769759Y-132011665D01*
X92741705Y-131963458D01*
X92731422Y-131928435D01*
X92729164Y-131892089D01*
X92734562Y-131843858D01*
X92737014Y-131829003D01*
X92766230Y-131722711D01*
X92817036Y-131624315D01*
X92891457Y-131530084D01*
X92909572Y-131511188D01*
X93005048Y-131428288D01*
X93105567Y-131369588D01*
X93215109Y-131333428D01*
X93337655Y-131318147D01*
X93373987Y-131317385D01*
X93499956Y-131328687D01*
G37*
G36*
X84958210Y-131160177D02*
G01*
X85059782Y-131168480D01*
X85154405Y-131183696D01*
X85251460Y-131207179D01*
X85315743Y-131226104D01*
X85469028Y-131286058D01*
X85611722Y-131366605D01*
X85740917Y-131465254D01*
X85853700Y-131579510D01*
X85947161Y-131706880D01*
X86006672Y-131817886D01*
X86072179Y-131992900D01*
X86112261Y-132173095D01*
X86126969Y-132358835D01*
X86116350Y-132550483D01*
X86111103Y-132590169D01*
X86075127Y-132749763D01*
X86015276Y-132904487D01*
X85933644Y-133051522D01*
X85832328Y-133188046D01*
X85713423Y-133311238D01*
X85579023Y-133418280D01*
X85431224Y-133506350D01*
X85430037Y-133506948D01*
X85306676Y-133561119D01*
X85173588Y-133605540D01*
X85036888Y-133638968D01*
X84902690Y-133660161D01*
X84777112Y-133667874D01*
X84670051Y-133661405D01*
X84611077Y-133649881D01*
X84570053Y-133631855D01*
X84538948Y-133602729D01*
X84520218Y-133575623D01*
X84513474Y-133563537D01*
X84507447Y-133549256D01*
X84502039Y-133531108D01*
X84497153Y-133507422D01*
X84492690Y-133476528D01*
X84488552Y-133436755D01*
X84484642Y-133386431D01*
X84480862Y-133323886D01*
X84477113Y-133247449D01*
X84473298Y-133155449D01*
X84469318Y-133046215D01*
X84465077Y-132918076D01*
X84460475Y-132769361D01*
X84455416Y-132598399D01*
X84449800Y-132403520D01*
X84448167Y-132346256D01*
X84442951Y-132162862D01*
X84438476Y-132003672D01*
X84434745Y-131866851D01*
X84431874Y-131754993D01*
X84822018Y-131754993D01*
X84822871Y-131829778D01*
X84824685Y-131913399D01*
X84825660Y-131947731D01*
X84828191Y-132032883D01*
X84831240Y-132138266D01*
X84834646Y-132258066D01*
X84838244Y-132386471D01*
X84841870Y-132517669D01*
X84845362Y-132645848D01*
X84846995Y-132706552D01*
X84850251Y-132816144D01*
X84853910Y-132918569D01*
X84857812Y-133010642D01*
X84861795Y-133089182D01*
X84865701Y-133151007D01*
X84869367Y-133192935D01*
X84872428Y-133211295D01*
X84884318Y-133232826D01*
X84903992Y-133242635D01*
X84940336Y-133245023D01*
X84942107Y-133245025D01*
X84983083Y-133241678D01*
X85037833Y-133232861D01*
X85095129Y-133220413D01*
X85100103Y-133219157D01*
X85238716Y-133170826D01*
X85366097Y-133100809D01*
X85479744Y-133011551D01*
X85577155Y-132905493D01*
X85655828Y-132785081D01*
X85713260Y-132652758D01*
X85727159Y-132606769D01*
X85743959Y-132515432D01*
X85750701Y-132409744D01*
X85747587Y-132299303D01*
X85734817Y-132193704D01*
X85716907Y-132116203D01*
X85664626Y-131984364D01*
X85592298Y-131867671D01*
X85501831Y-131767844D01*
X85395134Y-131686605D01*
X85274116Y-131625676D01*
X85140687Y-131586778D01*
X85126858Y-131584188D01*
X85021844Y-131569490D01*
X84939482Y-131566937D01*
X84879345Y-131576590D01*
X84841007Y-131598508D01*
X84825286Y-131626648D01*
X84823221Y-131649129D01*
X84822133Y-131693344D01*
X84822018Y-131754993D01*
X84431874Y-131754993D01*
X84431760Y-131750563D01*
X84429521Y-131652971D01*
X84428032Y-131572239D01*
X84427293Y-131506532D01*
X84427308Y-131454012D01*
X84428077Y-131412845D01*
X84429602Y-131381194D01*
X84431886Y-131357224D01*
X84434930Y-131339097D01*
X84438737Y-131324977D01*
X84443307Y-131313030D01*
X84448643Y-131301418D01*
X84449232Y-131300177D01*
X84479216Y-131251515D01*
X84519249Y-131214297D01*
X84572403Y-131187402D01*
X84641751Y-131169707D01*
X84730366Y-131160092D01*
X84840308Y-131157430D01*
X84958210Y-131160177D01*
G37*
G36*
X78881404Y-131111631D02*
G01*
X79040998Y-131138837D01*
X79187263Y-131182109D01*
X79317720Y-131240789D01*
X79429887Y-131314215D01*
X79483343Y-131361093D01*
X79550564Y-131438538D01*
X79610776Y-131529792D01*
X79657540Y-131624434D01*
X79673604Y-131668923D01*
X79695638Y-131769043D01*
X79705112Y-131880504D01*
X79701355Y-131991464D01*
X79694653Y-132041084D01*
X79657810Y-132182159D01*
X79599441Y-132309252D01*
X79520456Y-132421621D01*
X79421762Y-132518528D01*
X79304269Y-132599232D01*
X79168886Y-132662994D01*
X79016520Y-132709074D01*
X78848080Y-132736732D01*
X78839149Y-132737628D01*
X78771650Y-132744187D01*
X78706012Y-132750541D01*
X78651135Y-132755831D01*
X78623774Y-132758450D01*
X78575204Y-132766767D01*
X78548181Y-132781178D01*
X78542676Y-132788631D01*
X78538400Y-132811943D01*
X78536827Y-132860197D01*
X78537952Y-132932426D01*
X78541772Y-133027661D01*
X78543999Y-133070995D01*
X78550386Y-133204657D01*
X78553485Y-133315034D01*
X78552920Y-133404733D01*
X78548314Y-133476356D01*
X78539291Y-133532510D01*
X78525474Y-133575798D01*
X78506486Y-133608824D01*
X78481951Y-133634194D01*
X78460367Y-133649348D01*
X78403578Y-133670613D01*
X78338368Y-133674821D01*
X78275548Y-133662171D01*
X78241490Y-133645257D01*
X78226353Y-133634504D01*
X78212875Y-133622639D01*
X78200910Y-133608106D01*
X78190312Y-133589348D01*
X78180935Y-133564811D01*
X78172633Y-133532936D01*
X78165259Y-133492168D01*
X78158667Y-133440951D01*
X78152711Y-133377728D01*
X78147244Y-133300943D01*
X78142122Y-133209040D01*
X78137196Y-133100462D01*
X78132322Y-132973654D01*
X78127353Y-132827059D01*
X78122143Y-132659120D01*
X78116546Y-132468281D01*
X78110414Y-132252987D01*
X78110289Y-132248564D01*
X78105390Y-132073616D01*
X78101321Y-131922722D01*
X78098114Y-131793898D01*
X78097255Y-131753550D01*
X78504272Y-131753550D01*
X78504713Y-131816904D01*
X78506089Y-131953883D01*
X78508571Y-132066737D01*
X78512318Y-132157372D01*
X78517489Y-132227698D01*
X78524242Y-132279622D01*
X78532734Y-132315053D01*
X78543125Y-132335899D01*
X78548156Y-132340810D01*
X78576748Y-132350995D01*
X78625099Y-132357117D01*
X78687237Y-132359172D01*
X78757187Y-132357159D01*
X78828977Y-132351074D01*
X78896313Y-132340975D01*
X79019625Y-132307584D01*
X79123670Y-132258628D01*
X79207647Y-132194776D01*
X79270755Y-132116696D01*
X79312194Y-132025056D01*
X79322412Y-131985289D01*
X79329136Y-131891107D01*
X79311509Y-131799090D01*
X79271108Y-131713964D01*
X79209506Y-131640455D01*
X79206615Y-131637815D01*
X79141517Y-131588985D01*
X79066934Y-131553074D01*
X78979358Y-131529202D01*
X78875282Y-131516488D01*
X78751198Y-131514051D01*
X78717113Y-131514929D01*
X78648198Y-131517171D01*
X78595903Y-131520852D01*
X78557962Y-131529194D01*
X78532109Y-131545418D01*
X78516079Y-131572744D01*
X78507607Y-131614394D01*
X78504426Y-131673589D01*
X78504272Y-131753550D01*
X78097255Y-131753550D01*
X78095798Y-131685160D01*
X78094407Y-131594522D01*
X78093971Y-131520000D01*
X78094521Y-131459609D01*
X78096089Y-131411365D01*
X78098706Y-131373284D01*
X78102403Y-131343379D01*
X78107211Y-131319668D01*
X78113163Y-131300165D01*
X78120288Y-131282886D01*
X78125688Y-131271660D01*
X78150533Y-131229040D01*
X78180039Y-131195239D01*
X78217711Y-131168845D01*
X78267055Y-131148446D01*
X78331578Y-131132631D01*
X78414786Y-131119988D01*
X78520185Y-131109107D01*
X78532146Y-131108056D01*
X78710960Y-131101151D01*
X78881404Y-131111631D01*
G37*
G36*
X89352180Y-131235371D02*
G01*
X89403189Y-131264017D01*
X89439308Y-131313019D01*
X89439495Y-131313400D01*
X89445541Y-131327644D01*
X89450606Y-131345166D01*
X89454836Y-131368506D01*
X89458377Y-131400208D01*
X89461374Y-131442814D01*
X89463972Y-131498866D01*
X89466318Y-131570907D01*
X89468555Y-131661478D01*
X89470831Y-131773123D01*
X89473179Y-131902097D01*
X89475986Y-132043487D01*
X89479079Y-132166209D01*
X89482403Y-132268977D01*
X89485907Y-132350508D01*
X89489537Y-132409518D01*
X89493240Y-132444722D01*
X89496030Y-132454727D01*
X89500178Y-132459245D01*
X89504408Y-132461852D01*
X89510996Y-132460727D01*
X89522220Y-132454051D01*
X89540358Y-132440002D01*
X89567685Y-132416760D01*
X89606479Y-132382505D01*
X89659017Y-132335415D01*
X89727575Y-132273670D01*
X89767791Y-132237438D01*
X89843578Y-132169592D01*
X89903286Y-132117479D01*
X89949886Y-132079059D01*
X89986348Y-132052292D01*
X90015642Y-132035139D01*
X90040738Y-132025560D01*
X90064606Y-132021516D01*
X90083128Y-132020887D01*
X90145464Y-132032273D01*
X90195454Y-132062978D01*
X90230885Y-132108325D01*
X90249548Y-132163633D01*
X90249232Y-132224225D01*
X90227726Y-132285422D01*
X90216641Y-132303450D01*
X90195925Y-132328267D01*
X90159272Y-132366653D01*
X90110337Y-132415007D01*
X90052777Y-132469727D01*
X89990244Y-132527212D01*
X89982179Y-132534485D01*
X89922361Y-132588807D01*
X89869758Y-132637523D01*
X89827260Y-132677880D01*
X89797753Y-132707126D01*
X89784126Y-132722508D01*
X89783538Y-132723855D01*
X89792662Y-132735169D01*
X89818451Y-132761935D01*
X89858529Y-132801822D01*
X89910524Y-132852501D01*
X89972061Y-132911642D01*
X90040765Y-132976914D01*
X90057820Y-132993010D01*
X90150555Y-133080976D01*
X90225666Y-133153794D01*
X90284947Y-133213680D01*
X90330192Y-133262850D01*
X90363198Y-133303522D01*
X90385759Y-133337913D01*
X90399670Y-133368238D01*
X90406725Y-133396714D01*
X90408720Y-133425558D01*
X90408720Y-133426361D01*
X90398049Y-133491168D01*
X90368899Y-133545042D01*
X90325394Y-133584114D01*
X90271657Y-133604517D01*
X90219329Y-133603983D01*
X90198791Y-133598658D01*
X90176797Y-133589201D01*
X90151207Y-133573839D01*
X90119882Y-133550801D01*
X90080683Y-133518315D01*
X90031470Y-133474607D01*
X89970103Y-133417905D01*
X89894443Y-133346437D01*
X89803430Y-133259467D01*
X89733149Y-133192612D01*
X89668427Y-133132055D01*
X89611768Y-133080058D01*
X89565676Y-133038885D01*
X89532653Y-133010798D01*
X89515205Y-132998060D01*
X89513609Y-132997538D01*
X89507656Y-133003211D01*
X89503210Y-133022042D01*
X89500096Y-133056753D01*
X89498135Y-133110064D01*
X89497154Y-133184696D01*
X89496954Y-133254795D01*
X89496320Y-133356937D01*
X89493875Y-133436484D01*
X89488774Y-133496873D01*
X89480172Y-133541541D01*
X89467226Y-133573926D01*
X89449092Y-133597466D01*
X89424925Y-133615597D01*
X89405795Y-133626005D01*
X89341075Y-133646485D01*
X89279867Y-133641253D01*
X89240350Y-133623296D01*
X89208642Y-133599498D01*
X89185073Y-133569444D01*
X89168112Y-133528763D01*
X89156227Y-133473084D01*
X89147886Y-133398038D01*
X89144423Y-133349633D01*
X89141813Y-133298510D01*
X89139018Y-133226512D01*
X89136089Y-133136360D01*
X89133073Y-133030774D01*
X89130021Y-132912472D01*
X89126982Y-132784174D01*
X89124006Y-132648600D01*
X89121142Y-132508470D01*
X89118439Y-132366504D01*
X89115948Y-132225420D01*
X89113716Y-132087939D01*
X89111795Y-131956779D01*
X89110232Y-131834662D01*
X89109079Y-131724306D01*
X89108383Y-131628431D01*
X89108195Y-131549756D01*
X89108564Y-131491002D01*
X89109539Y-131454888D01*
X89109886Y-131449694D01*
X89124581Y-131361494D01*
X89152206Y-131295665D01*
X89193103Y-131251769D01*
X89247612Y-131229369D01*
X89284455Y-131226051D01*
X89352180Y-131235371D01*
G37*
G36*
X82442553Y-131950212D02*
G01*
X82503862Y-131972432D01*
X82556405Y-132011994D01*
X82576508Y-132036704D01*
X82589009Y-132057703D01*
X82599706Y-132082243D01*
X82608739Y-132112398D01*
X82616247Y-132150241D01*
X82622370Y-132197846D01*
X82627248Y-132257285D01*
X82631020Y-132330632D01*
X82633826Y-132419960D01*
X82635806Y-132527343D01*
X82637099Y-132654855D01*
X82637845Y-132804567D01*
X82638155Y-132951948D01*
X82638304Y-133102574D01*
X82638298Y-133229632D01*
X82638049Y-133335609D01*
X82637470Y-133422988D01*
X82636471Y-133494255D01*
X82634967Y-133551894D01*
X82632867Y-133598390D01*
X82630086Y-133636227D01*
X82626535Y-133667889D01*
X82622125Y-133695863D01*
X82616770Y-133722631D01*
X82610382Y-133750680D01*
X82609830Y-133753025D01*
X82564981Y-133900069D01*
X82504528Y-134027820D01*
X82429062Y-134135582D01*
X82339175Y-134222659D01*
X82235458Y-134288355D01*
X82118503Y-134331974D01*
X82117493Y-134332238D01*
X82020901Y-134347928D01*
X81915717Y-134349258D01*
X81814746Y-134336404D01*
X81779282Y-134327587D01*
X81665327Y-134284302D01*
X81571237Y-134226983D01*
X81498265Y-134156551D01*
X81454791Y-134089104D01*
X81428144Y-134014559D01*
X81424166Y-133946074D01*
X81442227Y-133886460D01*
X81481698Y-133838531D01*
X81515747Y-133816373D01*
X81566296Y-133797908D01*
X81612563Y-133798843D01*
X81659493Y-133820509D01*
X81712036Y-133864234D01*
X81718868Y-133870941D01*
X81795616Y-133934800D01*
X81872734Y-133973214D01*
X81952054Y-133986752D01*
X82035405Y-133975981D01*
X82047320Y-133972619D01*
X82117480Y-133938412D01*
X82177651Y-133882455D01*
X82225897Y-133807774D01*
X82260282Y-133717394D01*
X82278871Y-133614340D01*
X82279252Y-133610066D01*
X82282550Y-133560447D01*
X82283294Y-133521856D01*
X82281425Y-133500733D01*
X82280301Y-133498736D01*
X82265149Y-133500937D01*
X82232999Y-133511461D01*
X82190664Y-133528065D01*
X82188567Y-133528945D01*
X82147203Y-133545076D01*
X82110140Y-133555418D01*
X82069386Y-133561210D01*
X82016947Y-133563693D01*
X81961641Y-133564128D01*
X81896875Y-133563620D01*
X81850214Y-133561139D01*
X81813720Y-133555208D01*
X81779450Y-133544352D01*
X81739466Y-133527095D01*
X81724179Y-133519985D01*
X81620371Y-133457219D01*
X81531767Y-133373440D01*
X81458653Y-133268993D01*
X81401315Y-133144222D01*
X81393247Y-133121282D01*
X81381108Y-133082465D01*
X81372614Y-133045972D01*
X81367141Y-133005826D01*
X81364062Y-132956048D01*
X81362750Y-132890661D01*
X81362549Y-132828205D01*
X81362876Y-132807674D01*
X81707641Y-132807674D01*
X81712132Y-132907934D01*
X81726613Y-132988565D01*
X81752597Y-133054569D01*
X81791595Y-133110950D01*
X81803141Y-133123692D01*
X81869672Y-133179474D01*
X81940010Y-133209707D01*
X82015684Y-133214790D01*
X82088498Y-133198579D01*
X82132327Y-133176109D01*
X82180493Y-133139816D01*
X82226529Y-133095988D01*
X82263969Y-133050916D01*
X82286349Y-133010888D01*
X82288437Y-133004088D01*
X82290744Y-132981067D01*
X82292266Y-132936286D01*
X82292969Y-132874027D01*
X82292820Y-132798570D01*
X82291783Y-132714197D01*
X82291027Y-132674825D01*
X82284741Y-132380926D01*
X82244504Y-132344974D01*
X82190192Y-132312897D01*
X82123219Y-132298539D01*
X82049699Y-132301556D01*
X81975740Y-132321604D01*
X81907456Y-132358337D01*
X81899137Y-132364455D01*
X81821975Y-132437471D01*
X81765135Y-132523989D01*
X81727962Y-132625529D01*
X81709800Y-132743608D01*
X81707641Y-132807674D01*
X81362876Y-132807674D01*
X81364233Y-132722622D01*
X81370052Y-132636340D01*
X81381315Y-132562760D01*
X81399330Y-132495287D01*
X81425402Y-132427323D01*
X81454259Y-132365491D01*
X81528718Y-132240579D01*
X81619008Y-132136144D01*
X81726084Y-132051280D01*
X81850902Y-131985078D01*
X81857327Y-131982367D01*
X81888939Y-131970462D01*
X81921587Y-131961652D01*
X81959225Y-131955698D01*
X82005806Y-131952356D01*
X82065285Y-131951385D01*
X82141616Y-131952544D01*
X82238752Y-131955592D01*
X82274256Y-131956903D01*
X82323324Y-131955679D01*
X82374821Y-131950090D01*
X82380823Y-131949072D01*
X82442553Y-131950212D01*
G37*
D13*
%TO.C,R80*%
X85176727Y-116409133D02*
X85630855Y-116409133D01*
X85176727Y-117879133D02*
X85630855Y-117879133D01*
%TO.C,C8*%
X98185000Y-68298952D02*
X98185000Y-67776446D01*
X99655000Y-68298952D02*
X99655000Y-67776446D01*
%TO.C,R49*%
X121195000Y-85128641D02*
X121195000Y-84821359D01*
X121955000Y-85128641D02*
X121955000Y-84821359D01*
%TO.C,C6*%
X106150095Y-65202981D02*
X106150095Y-65725487D01*
X107620095Y-65202981D02*
X107620095Y-65725487D01*
%TO.C,L2*%
X129297297Y-117590354D02*
X129297297Y-119040354D01*
X129297297Y-117590354D02*
X135517297Y-117590354D01*
X129297297Y-123510354D02*
X129297297Y-122060354D01*
X129297297Y-123510354D02*
X135517297Y-123510354D01*
X135517297Y-117590354D02*
X135517297Y-119040354D01*
X135517297Y-123510354D02*
X135517297Y-122060354D01*
%TO.C,C7*%
X108209675Y-65205089D02*
X108209675Y-65727595D01*
X109679675Y-65205089D02*
X109679675Y-65727595D01*
%TO.C,R46*%
X108533202Y-71133527D02*
X108225920Y-71133527D01*
X108533202Y-71893527D02*
X108225920Y-71893527D01*
%TO.C,L1*%
X119774998Y-105700000D02*
X119774998Y-111920000D01*
X119774998Y-105700000D02*
X121224998Y-105700000D01*
X119774998Y-111920000D02*
X121224998Y-111920000D01*
X125694998Y-105700000D02*
X124244998Y-105700000D01*
X125694998Y-105700000D02*
X125694998Y-111920000D01*
X125694998Y-111920000D02*
X124244998Y-111920000D01*
%TO.C,J1*%
X134010000Y-127785000D02*
X135340000Y-127785000D01*
X134010000Y-129115000D02*
X134010000Y-127785000D01*
X134010000Y-130385001D02*
X134010000Y-132985000D01*
X134010000Y-130385001D02*
X136670000Y-130385001D01*
X134010000Y-132985000D02*
X136670000Y-132985000D01*
X136670000Y-130385001D02*
X136670000Y-132985000D01*
D10*
%TO.C,D1*%
X123564703Y-134876967D02*
X125463284Y-136775548D01*
X124922348Y-133519322D02*
X123564703Y-134876967D01*
X126820929Y-135417903D02*
X124922348Y-133519322D01*
D13*
%TO.C,C4*%
X103821928Y-98408207D02*
X104344432Y-98408207D01*
X103821928Y-99878207D02*
X104344432Y-99878207D01*
%TO.C,R13*%
X103892936Y-66945000D02*
X104347064Y-66945000D01*
X103892936Y-68415000D02*
X104347064Y-68415000D01*
%TO.C,C31*%
X124226446Y-121088147D02*
X124748952Y-121088147D01*
X124226446Y-122558147D02*
X124748952Y-122558147D01*
%TO.C,TP6*%
X101820000Y-71187699D02*
G75*
G02*
X100420000Y-71187699I-700000J0D01*
G01*
X100420000Y-71187699D02*
G75*
G02*
X101820000Y-71187699I700000J0D01*
G01*
%TO.C,R63*%
X130122659Y-73529940D02*
X130339940Y-73312659D01*
X130660060Y-74067341D02*
X130877341Y-73850060D01*
%TO.C,SD1*%
X80675000Y-80065000D02*
X80675000Y-66055000D01*
X82155000Y-63995000D02*
X81895000Y-63995000D01*
X82355000Y-63795000D02*
X82155000Y-63995000D01*
X82355000Y-63795000D02*
X84665000Y-63795000D01*
X82595000Y-80065000D02*
X80675000Y-80065000D01*
X84665000Y-63795000D02*
X85175000Y-64145000D01*
X91545000Y-64145000D02*
X85175000Y-64145000D01*
X91545000Y-64145000D02*
X91545000Y-63995000D01*
X91755000Y-63795000D02*
X91545000Y-63995000D01*
X93615000Y-63795000D02*
X91755000Y-63795000D01*
X93615000Y-63795000D02*
X93815000Y-63995000D01*
X94195000Y-80065000D02*
X94645000Y-80065000D01*
X94645000Y-68755000D02*
X94645000Y-66955000D01*
X94645000Y-74755000D02*
X94645000Y-70055000D01*
X94645000Y-80065000D02*
X94645000Y-76455000D01*
%TO.C,C33*%
X119941253Y-129525000D02*
X119418747Y-129525000D01*
X119941253Y-130995000D02*
X119418747Y-130995000D01*
%TO.C,U3*%
X115760000Y-131807500D02*
X114960000Y-131807500D01*
X115760000Y-131807500D02*
X116560000Y-131807500D01*
X115760000Y-134927500D02*
X114960000Y-134927500D01*
X115760000Y-134927500D02*
X116560000Y-134927500D01*
X114460000Y-131857500D02*
X114220000Y-131527500D01*
X114700000Y-131527500D01*
X114460000Y-131857500D01*
G36*
X114460000Y-131857500D02*
G01*
X114220000Y-131527500D01*
X114700000Y-131527500D01*
X114460000Y-131857500D01*
G37*
%TO.C,C28*%
X127111458Y-121738670D02*
X127111458Y-122261176D01*
X128581458Y-121738670D02*
X128581458Y-122261176D01*
%TO.C,C11*%
X133108747Y-79015000D02*
X133631253Y-79015000D01*
X133108747Y-80485000D02*
X133631253Y-80485000D01*
%TO.C,C51*%
X96449681Y-120565000D02*
X96972187Y-120565000D01*
X96449681Y-122035000D02*
X96972187Y-122035000D01*
%TO.C,ESP2*%
X110470000Y-57520000D02*
X110470000Y-63720000D01*
X110470000Y-57520000D02*
X128870000Y-57520000D01*
X110470000Y-82370000D02*
X110470000Y-83370000D01*
X110470000Y-83370000D02*
X111970000Y-83370000D01*
X128870000Y-57520000D02*
X128870000Y-63720000D01*
X128870000Y-83370000D02*
X127370000Y-83370000D01*
X128870000Y-83370000D02*
X128870000Y-82370000D01*
X110470000Y-64395000D02*
X109970000Y-64395000D01*
X110470000Y-63895000D01*
X110470000Y-64395000D01*
G36*
X110470000Y-64395000D02*
G01*
X109970000Y-64395000D01*
X110470000Y-63895000D01*
X110470000Y-64395000D01*
G37*
%TO.C,R23*%
X122175835Y-136269901D02*
X121854718Y-135948784D01*
X123215282Y-135230454D02*
X122894165Y-134909337D01*
%TO.C,R27*%
X127080000Y-131101177D02*
X127080000Y-130647049D01*
X128550000Y-131101177D02*
X128550000Y-130647049D01*
%TO.C,TP3*%
X133900000Y-85625000D02*
G75*
G02*
X132500000Y-85625000I-700000J0D01*
G01*
X132500000Y-85625000D02*
G75*
G02*
X133900000Y-85625000I700000J0D01*
G01*
%TO.C,SW4*%
X100580000Y-122640000D02*
X101390000Y-122640000D01*
X102570000Y-121780000D02*
X105690000Y-121780000D01*
X102570000Y-124600000D02*
X105690000Y-124600000D01*
%TO.C,R34*%
X129400000Y-99382936D02*
X129400000Y-99837064D01*
X130870000Y-99382936D02*
X130870000Y-99837064D01*
%TO.C,R25*%
X103923737Y-78505731D02*
X104377865Y-78505731D01*
X103923737Y-79975731D02*
X104377865Y-79975731D01*
%TO.C,R72*%
X111900000Y-103852063D02*
X111900000Y-103397935D01*
X113370000Y-103852063D02*
X113370000Y-103397935D01*
%TO.C,D2*%
X121544999Y-101575000D02*
X116034999Y-101575000D01*
X121544999Y-104875000D02*
X116034999Y-104875000D01*
X121544999Y-104875000D02*
X121544999Y-101575000D01*
%TO.C,C35*%
X119273410Y-118460871D02*
X119273410Y-117938367D01*
X120743410Y-118460871D02*
X120743410Y-117938367D01*
%TO.C,C12*%
X135595000Y-79561253D02*
X135595000Y-79038747D01*
X137065000Y-79561253D02*
X137065000Y-79038747D01*
%TO.C,C53*%
X81751253Y-83450000D02*
X81228747Y-83450000D01*
X81751253Y-84920000D02*
X81228747Y-84920000D01*
%TO.C,R37*%
X132862064Y-111375000D02*
X132407936Y-111375000D01*
X132862064Y-112845000D02*
X132407936Y-112845000D01*
%TO.C,C5*%
X131835002Y-82841253D02*
X131835002Y-82318747D01*
X133305002Y-82841253D02*
X133305002Y-82318747D01*
%TO.C,C30*%
X120888919Y-122728619D02*
X120888919Y-123251125D01*
X122358919Y-122728619D02*
X122358919Y-123251125D01*
%TO.C,C46*%
X79761253Y-128317087D02*
X79238747Y-128317087D01*
X79761253Y-129787087D02*
X79238747Y-129787087D01*
%TO.C,R91*%
X89022936Y-88305000D02*
X89477064Y-88305000D01*
X89022936Y-89775000D02*
X89477064Y-89775000D01*
%TO.C,C19*%
X127173747Y-113475001D02*
X127696253Y-113475001D01*
X127173747Y-114945001D02*
X127696253Y-114945001D01*
%TO.C,R9*%
X103892936Y-76245000D02*
X104347064Y-76245000D01*
X103892936Y-77715000D02*
X104347064Y-77715000D01*
%TO.C,C52*%
X81751253Y-81400000D02*
X81228747Y-81400000D01*
X81751253Y-82870000D02*
X81228747Y-82870000D01*
%TO.C,TP1*%
X100981497Y-116075000D02*
X102325000Y-114731497D01*
X102325000Y-114731497D02*
X103668503Y-116075000D01*
X102325000Y-117418503D02*
X100981497Y-116075000D01*
X103668503Y-116075000D02*
X102325000Y-117418503D01*
%TO.C,R93*%
X81032936Y-88295000D02*
X81487064Y-88295000D01*
X81032936Y-89765000D02*
X81487064Y-89765000D01*
%TO.C,USBC1*%
X101105000Y-134070000D02*
X101105000Y-132660000D01*
X101925000Y-129990000D02*
X101925000Y-130140000D01*
X102725000Y-129990000D02*
X101925000Y-129990000D01*
X110265000Y-134070000D02*
X110265000Y-132660000D01*
%TO.C,JP1*%
X97792500Y-102200000D02*
X97792500Y-99400000D01*
X98492500Y-98750000D02*
X99092500Y-98750000D01*
X99092500Y-102850000D02*
X98492500Y-102850000D01*
X99792500Y-99400000D02*
X99792500Y-102200000D01*
X99992500Y-102000000D02*
X100292500Y-101700000D01*
X99992500Y-102000000D02*
X100292500Y-102300000D01*
X100292500Y-102300000D02*
X100292500Y-101700000D01*
X97792500Y-99450000D02*
G75*
G02*
X98492500Y-98750000I700000J0D01*
G01*
X98492500Y-102850000D02*
G75*
G02*
X97792500Y-102150000I-1J699999D01*
G01*
X99092500Y-98750000D02*
G75*
G02*
X99792500Y-99450000I0J-700000D01*
G01*
X99792500Y-102150000D02*
G75*
G02*
X99092500Y-102850000I-699999J-1D01*
G01*
%TO.C,C10*%
X103823235Y-96284610D02*
X104345739Y-96284610D01*
X103823235Y-97754610D02*
X104345739Y-97754610D01*
%TO.C,R14*%
X90397064Y-82345000D02*
X89942936Y-82345000D01*
X90397064Y-83815000D02*
X89942936Y-83815000D01*
%TO.C,SW6*%
X135350000Y-86399999D02*
X135350000Y-89699999D01*
X135350000Y-89699999D02*
X135650000Y-89699999D01*
X135650000Y-86399999D02*
X135350000Y-86399999D01*
X137850000Y-86399999D02*
X138150000Y-86399999D01*
X138150000Y-86399999D02*
X138150000Y-89699999D01*
X138150000Y-89699999D02*
X137850000Y-89699999D01*
X138470000Y-87049999D02*
X138150000Y-87049999D01*
X138470000Y-89049999D02*
X138150000Y-89049999D01*
X138850000Y-87549999D02*
X138470000Y-87049999D01*
X138850000Y-87549999D02*
X138850000Y-88549999D01*
X138850000Y-88549999D02*
X138470000Y-89049999D01*
%TO.C,R73*%
X79172936Y-116465000D02*
X79627064Y-116465000D01*
X79172936Y-117935000D02*
X79627064Y-117935000D01*
%TO.C,C49*%
X91188746Y-128365000D02*
X91711252Y-128365000D01*
X91188746Y-129835000D02*
X91711252Y-129835000D01*
%TO.C,R70*%
X112306472Y-85111289D02*
X112306472Y-84804007D01*
X113066472Y-85111289D02*
X113066472Y-84804007D01*
%TO.C,R71*%
X111900000Y-107085436D02*
X111900000Y-107539564D01*
X113370000Y-107085436D02*
X113370000Y-107539564D01*
%TO.C,R45*%
X108519253Y-72400000D02*
X108211971Y-72400000D01*
X108519253Y-73160000D02*
X108211971Y-73160000D01*
D18*
%TO.C,G\u002A\u002A\u002A*%
G36*
X88528884Y-90633583D02*
G01*
X88699350Y-90641619D01*
X88844305Y-90653822D01*
X88879709Y-90658088D01*
X89327010Y-90735401D01*
X89757165Y-90847826D01*
X90170212Y-90995378D01*
X90566186Y-91178071D01*
X90945122Y-91395922D01*
X91307057Y-91648944D01*
X91339902Y-91674301D01*
X91438407Y-91752471D01*
X91508796Y-91813401D01*
X91554811Y-91862483D01*
X91580193Y-91905110D01*
X91588682Y-91946673D01*
X91584018Y-91992565D01*
X91578186Y-92017797D01*
X91547955Y-92065293D01*
X91493464Y-92098077D01*
X91428738Y-92109269D01*
X91399709Y-92105353D01*
X91361027Y-92087158D01*
X91304760Y-92050704D01*
X91242600Y-92003616D01*
X91238137Y-91999959D01*
X90900291Y-91746806D01*
X90540114Y-91525720D01*
X90157609Y-91336702D01*
X89752770Y-91179750D01*
X89643348Y-91144035D01*
X89556830Y-91117438D01*
X89483220Y-91095903D01*
X89430976Y-91081835D01*
X89409450Y-91077539D01*
X89411907Y-91090263D01*
X89437262Y-91124312D01*
X89480655Y-91173512D01*
X89505458Y-91199655D01*
X89722584Y-91448600D01*
X89925183Y-91731096D01*
X90111359Y-92043715D01*
X90279214Y-92383026D01*
X90426852Y-92745603D01*
X90529382Y-93050924D01*
X90556881Y-93136485D01*
X90582668Y-93208923D01*
X90603480Y-93259499D01*
X90614302Y-93278293D01*
X90641278Y-93292826D01*
X90697061Y-93314927D01*
X90772909Y-93341333D01*
X90841672Y-93363214D01*
X91220431Y-93493266D01*
X91578675Y-93645056D01*
X91912976Y-93816687D01*
X92219905Y-94006263D01*
X92496034Y-94211888D01*
X92692941Y-94387137D01*
X92747009Y-94436985D01*
X92788812Y-94470730D01*
X92812189Y-94483626D01*
X92815056Y-94481190D01*
X92809328Y-94453900D01*
X92793754Y-94397830D01*
X92770754Y-94321302D01*
X92744317Y-94237524D01*
X92610017Y-93864551D01*
X92455573Y-93519733D01*
X92276969Y-93195632D01*
X92070188Y-92884809D01*
X91882584Y-92641699D01*
X91828365Y-92571871D01*
X91796580Y-92519854D01*
X91782103Y-92475757D01*
X91779519Y-92442848D01*
X91788678Y-92381313D01*
X91821788Y-92337035D01*
X91830999Y-92329419D01*
X91883043Y-92297390D01*
X91933032Y-92288665D01*
X91985508Y-92305478D01*
X92045015Y-92350060D01*
X92116096Y-92424644D01*
X92178639Y-92500239D01*
X92438210Y-92856643D01*
X92663929Y-93232263D01*
X92855352Y-93626034D01*
X93012031Y-94036896D01*
X93133521Y-94463786D01*
X93219374Y-94905642D01*
X93234507Y-95012886D01*
X93247902Y-95148612D01*
X93257135Y-95312823D01*
X93262190Y-95495147D01*
X93263054Y-95685213D01*
X93259713Y-95872648D01*
X93252151Y-96047082D01*
X93240356Y-96198144D01*
X93236190Y-96235693D01*
X93164682Y-96672716D01*
X93056915Y-97095536D01*
X92912668Y-97504709D01*
X92731718Y-97900786D01*
X92513845Y-98284322D01*
X92271455Y-98638924D01*
X92165117Y-98772628D01*
X92034691Y-98921501D01*
X91887822Y-99077902D01*
X91732147Y-99234190D01*
X91575308Y-99382723D01*
X91424948Y-99515860D01*
X91288707Y-99625960D01*
X91271518Y-99638861D01*
X90899428Y-99892157D01*
X90515324Y-100108316D01*
X90118653Y-100287561D01*
X89708860Y-100430114D01*
X89285395Y-100536197D01*
X88868287Y-100603596D01*
X88749292Y-100614376D01*
X88602924Y-100622115D01*
X88438303Y-100626825D01*
X88264547Y-100628519D01*
X88090773Y-100627206D01*
X87926101Y-100622901D01*
X87779648Y-100615613D01*
X87660535Y-100605355D01*
X87633777Y-100602015D01*
X87187373Y-100522270D01*
X86755913Y-100407086D01*
X86340622Y-100256983D01*
X85942728Y-100072480D01*
X85563457Y-99854098D01*
X85204035Y-99602356D01*
X85118916Y-99535469D01*
X85023816Y-99454242D01*
X84960809Y-99387247D01*
X84927749Y-99329879D01*
X84922494Y-99277532D01*
X84942899Y-99225602D01*
X84962013Y-99198405D01*
X85005155Y-99160055D01*
X85062187Y-99147186D01*
X85075442Y-99146925D01*
X85120005Y-99151995D01*
X85165260Y-99170627D01*
X85221099Y-99207946D01*
X85274293Y-99249990D01*
X85579861Y-99482097D01*
X85892780Y-99682826D01*
X86220489Y-99856194D01*
X86570427Y-100006218D01*
X86870118Y-100111723D01*
X86958345Y-100139531D01*
X87033995Y-100162198D01*
X87088744Y-100177309D01*
X87113784Y-100182462D01*
X87112207Y-100169760D01*
X87087569Y-100135764D01*
X87044623Y-100086635D01*
X87019731Y-100060347D01*
X86794167Y-99801550D01*
X86585833Y-99509400D01*
X86396014Y-99186216D01*
X86225993Y-98834319D01*
X86077054Y-98456032D01*
X85995808Y-98209078D01*
X85968309Y-98123517D01*
X85942521Y-98051078D01*
X85921709Y-98000502D01*
X85910887Y-97981708D01*
X85883911Y-97967175D01*
X85828129Y-97945074D01*
X85752280Y-97918668D01*
X85683518Y-97896788D01*
X85290022Y-97761574D01*
X84921478Y-97604481D01*
X84580206Y-97426796D01*
X84268528Y-97229798D01*
X83988764Y-97014773D01*
X83832249Y-96872864D01*
X83778180Y-96823016D01*
X83736377Y-96789271D01*
X83713001Y-96776375D01*
X83710133Y-96778811D01*
X83715861Y-96806101D01*
X83731434Y-96862171D01*
X83754435Y-96938699D01*
X83780873Y-97022477D01*
X83915172Y-97395450D01*
X84069616Y-97740268D01*
X84248220Y-98064369D01*
X84455001Y-98375192D01*
X84642606Y-98618302D01*
X84696824Y-98688130D01*
X84728609Y-98740147D01*
X84743086Y-98784243D01*
X84745672Y-98817153D01*
X84736512Y-98878689D01*
X84703401Y-98922966D01*
X84694191Y-98930583D01*
X84640744Y-98962992D01*
X84589180Y-98970810D01*
X84534894Y-98951895D01*
X84473279Y-98904101D01*
X84399730Y-98825284D01*
X84357125Y-98773679D01*
X84096872Y-98418882D01*
X83870202Y-98044451D01*
X83677584Y-97651490D01*
X83519482Y-97241105D01*
X83396363Y-96814400D01*
X83308691Y-96372479D01*
X83290046Y-96242259D01*
X83277018Y-96109804D01*
X83268024Y-95948715D01*
X83263068Y-95769228D01*
X83262256Y-95600961D01*
X83574786Y-95600961D01*
X83578329Y-95742086D01*
X83593836Y-95869772D01*
X83603592Y-95914088D01*
X83676571Y-96119263D01*
X83787047Y-96319860D01*
X83933590Y-96514714D01*
X84114772Y-96702662D01*
X84329162Y-96882537D01*
X84575329Y-97053175D01*
X84851845Y-97213412D01*
X85157279Y-97362083D01*
X85490200Y-97498023D01*
X85594854Y-97536017D01*
X85683410Y-97566982D01*
X85757261Y-97592223D01*
X85809387Y-97609382D01*
X85832768Y-97616103D01*
X85833359Y-97616069D01*
X85831068Y-97596994D01*
X85822181Y-97548340D01*
X85808318Y-97478729D01*
X85799715Y-97437262D01*
X85732726Y-97063027D01*
X85682343Y-96661632D01*
X85648796Y-96241397D01*
X85632316Y-95810641D01*
X85632657Y-95630001D01*
X85948063Y-95630001D01*
X85951613Y-95953398D01*
X85962944Y-96248849D01*
X85983081Y-96526896D01*
X86013052Y-96798082D01*
X86053877Y-97072946D01*
X86106583Y-97362036D01*
X86125657Y-97456979D01*
X86178346Y-97714248D01*
X86435616Y-97766938D01*
X87011526Y-97867025D01*
X87451749Y-97919271D01*
X87548987Y-97926277D01*
X87674754Y-97932046D01*
X87822514Y-97936562D01*
X87985729Y-97939810D01*
X88157865Y-97941772D01*
X88332382Y-97942433D01*
X88502745Y-97941774D01*
X88662417Y-97939781D01*
X88804862Y-97936437D01*
X88923542Y-97931725D01*
X89011922Y-97925629D01*
X89033834Y-97923248D01*
X89170072Y-97906231D01*
X88970679Y-97763939D01*
X88892489Y-97706365D01*
X88825296Y-97653578D01*
X88776073Y-97611279D01*
X88751783Y-97585169D01*
X88751402Y-97584493D01*
X88732291Y-97510925D01*
X88749276Y-97438754D01*
X88779477Y-97397343D01*
X88809358Y-97370971D01*
X88839547Y-97355301D01*
X88874279Y-97352072D01*
X88917795Y-97363026D01*
X88974332Y-97389904D01*
X89048130Y-97434443D01*
X89143427Y-97498387D01*
X89264461Y-97583476D01*
X89307543Y-97614186D01*
X89414907Y-97691136D01*
X89513088Y-97762026D01*
X89597100Y-97823214D01*
X89661955Y-97871056D01*
X89702664Y-97901909D01*
X89712927Y-97910291D01*
X89739621Y-97957211D01*
X89747518Y-98014108D01*
X89744732Y-98041153D01*
X89734634Y-98072992D01*
X89714612Y-98113945D01*
X89682054Y-98168333D01*
X89634350Y-98240478D01*
X89568886Y-98334701D01*
X89483053Y-98455323D01*
X89469095Y-98474797D01*
X89373968Y-98606408D01*
X89297533Y-98708877D01*
X89236428Y-98785317D01*
X89187287Y-98838840D01*
X89146746Y-98872562D01*
X89111439Y-98889597D01*
X89078003Y-98893056D01*
X89043074Y-98886055D01*
X89029525Y-98881587D01*
X88976991Y-98845094D01*
X88941597Y-98787072D01*
X88932024Y-98723288D01*
X88934508Y-98708971D01*
X88949960Y-98675675D01*
X88983376Y-98619195D01*
X89029606Y-98547849D01*
X89075765Y-98480835D01*
X89146457Y-98381721D01*
X89196290Y-98310969D01*
X89225643Y-98264141D01*
X89234897Y-98236797D01*
X89224430Y-98224500D01*
X89194625Y-98222810D01*
X89145860Y-98227290D01*
X89097073Y-98232030D01*
X88911596Y-98244825D01*
X88700945Y-98254271D01*
X88476317Y-98260228D01*
X88248911Y-98262554D01*
X88029924Y-98261110D01*
X87830555Y-98255756D01*
X87705749Y-98249421D01*
X87514977Y-98235143D01*
X87315931Y-98216533D01*
X87115218Y-98194484D01*
X86919443Y-98169885D01*
X86735213Y-98143633D01*
X86569136Y-98116619D01*
X86427818Y-98089737D01*
X86317865Y-98063880D01*
X86303711Y-98059922D01*
X86291396Y-98061005D01*
X86288343Y-98077175D01*
X86295665Y-98113505D01*
X86314476Y-98175070D01*
X86345889Y-98266943D01*
X86354594Y-98291703D01*
X86486552Y-98633249D01*
X86631548Y-98947754D01*
X86788419Y-99233782D01*
X86956000Y-99489895D01*
X87133131Y-99714655D01*
X87318646Y-99906626D01*
X87511385Y-100064370D01*
X87710183Y-100186449D01*
X87913878Y-100271426D01*
X87969518Y-100287810D01*
X88075158Y-100306872D01*
X88203013Y-100316072D01*
X88337476Y-100315377D01*
X88462943Y-100304755D01*
X88546682Y-100289003D01*
X88752505Y-100215856D01*
X88818401Y-100179636D01*
X89406963Y-100179636D01*
X89408858Y-100182462D01*
X89436297Y-100177297D01*
X89491412Y-100163478D01*
X89564432Y-100143516D01*
X89601105Y-100133032D01*
X89984845Y-100001741D01*
X90356038Y-99834912D01*
X90712197Y-99634766D01*
X91050833Y-99403526D01*
X91369459Y-99143414D01*
X91665587Y-98856651D01*
X91936727Y-98545459D01*
X92180394Y-98212060D01*
X92394099Y-97858676D01*
X92575353Y-97487529D01*
X92582811Y-97470201D01*
X92625257Y-97365995D01*
X92670018Y-97247637D01*
X92713714Y-97124939D01*
X92752964Y-97007713D01*
X92784390Y-96905772D01*
X92804611Y-96828925D01*
X92806127Y-96821847D01*
X92820242Y-96753462D01*
X92675468Y-96890922D01*
X92489628Y-97054290D01*
X92283592Y-97212824D01*
X92075216Y-97352794D01*
X92072595Y-97354416D01*
X91910714Y-97447106D01*
X91720409Y-97543882D01*
X91511446Y-97640550D01*
X91293590Y-97732911D01*
X91076605Y-97816770D01*
X90870258Y-97887933D01*
X90738948Y-97927504D01*
X90606917Y-97964443D01*
X90528961Y-98211707D01*
X90385319Y-98620672D01*
X90222305Y-98998169D01*
X90040353Y-99343420D01*
X89839894Y-99655646D01*
X89621359Y-99934066D01*
X89505458Y-100060347D01*
X89455296Y-100114472D01*
X89420833Y-100156296D01*
X89406963Y-100179636D01*
X88818401Y-100179636D01*
X88953138Y-100105578D01*
X89147426Y-99959900D01*
X89334218Y-99780561D01*
X89512359Y-99569294D01*
X89680697Y-99327834D01*
X89838079Y-99057917D01*
X89983351Y-98761278D01*
X90115360Y-98439651D01*
X90232954Y-98094771D01*
X90334980Y-97728375D01*
X90382066Y-97527331D01*
X90443796Y-97225380D01*
X90492412Y-96938201D01*
X90528954Y-96655728D01*
X90554459Y-96367895D01*
X90569968Y-96064635D01*
X90576519Y-95735882D01*
X90576888Y-95639770D01*
X90573736Y-95319233D01*
X90563078Y-95026894D01*
X90543915Y-94752422D01*
X90515252Y-94485482D01*
X90476087Y-94215743D01*
X90425427Y-93932872D01*
X90399532Y-93803022D01*
X90371812Y-93667674D01*
X90691719Y-93667674D01*
X90692516Y-93671117D01*
X90716245Y-93768021D01*
X90741597Y-93897060D01*
X90767628Y-94051376D01*
X90793391Y-94224111D01*
X90817946Y-94408410D01*
X90840347Y-94597413D01*
X90859652Y-94784262D01*
X90874914Y-94962101D01*
X90879877Y-95032226D01*
X90899086Y-95612812D01*
X90881243Y-96202180D01*
X90826458Y-96797017D01*
X90820910Y-96841385D01*
X90803566Y-96968889D01*
X90783261Y-97104138D01*
X90761427Y-97238789D01*
X90739496Y-97364504D01*
X90718900Y-97472938D01*
X90701071Y-97555753D01*
X90692636Y-97588506D01*
X90693106Y-97601861D01*
X90708540Y-97605426D01*
X90744543Y-97598151D01*
X90806720Y-97578982D01*
X90884388Y-97552536D01*
X90990991Y-97514415D01*
X91106314Y-97471383D01*
X91211755Y-97430443D01*
X91251979Y-97414176D01*
X91560046Y-97274675D01*
X91842952Y-97120966D01*
X92098678Y-96954762D01*
X92325207Y-96777776D01*
X92371241Y-96733924D01*
X92371242Y-96733923D01*
X92815056Y-96733923D01*
X92824825Y-96743693D01*
X92834595Y-96733924D01*
X92824825Y-96724155D01*
X92815056Y-96733923D01*
X92371242Y-96733923D01*
X92520521Y-96591720D01*
X92682600Y-96398307D01*
X92809429Y-96199248D01*
X92888530Y-96025489D01*
X92924091Y-95895263D01*
X92945058Y-95743937D01*
X92950619Y-95586864D01*
X92939959Y-95439399D01*
X92924009Y-95356218D01*
X92850739Y-95147387D01*
X92739900Y-94943895D01*
X92592760Y-94746781D01*
X92410589Y-94557082D01*
X92194657Y-94375835D01*
X91946233Y-94204078D01*
X91666587Y-94042848D01*
X91356988Y-93893182D01*
X91018707Y-93756121D01*
X90924297Y-93722000D01*
X90825081Y-93687667D01*
X90757290Y-93666181D01*
X90715849Y-93656430D01*
X90695683Y-93657298D01*
X90691719Y-93667674D01*
X90371812Y-93667674D01*
X90371812Y-93667673D01*
X90346842Y-93545752D01*
X90089573Y-93493063D01*
X89793877Y-93436433D01*
X89515699Y-93392004D01*
X89244495Y-93358751D01*
X88969727Y-93335651D01*
X88680847Y-93321677D01*
X88367317Y-93315805D01*
X88262595Y-93315469D01*
X87982013Y-93317673D01*
X87730567Y-93324900D01*
X87498531Y-93338076D01*
X87276178Y-93358128D01*
X87053784Y-93385981D01*
X86821622Y-93422562D01*
X86569967Y-93468795D01*
X86493007Y-93483930D01*
X86179035Y-93546441D01*
X86116524Y-93860413D01*
X86067359Y-94119436D01*
X86028111Y-94356183D01*
X85997855Y-94580379D01*
X85975665Y-94801750D01*
X85960616Y-95030022D01*
X85951781Y-95274921D01*
X85948235Y-95546172D01*
X85948063Y-95630001D01*
X85632657Y-95630001D01*
X85633133Y-95377686D01*
X85651477Y-94950851D01*
X85687579Y-94538456D01*
X85713696Y-94330693D01*
X85728320Y-94232796D01*
X85746458Y-94121133D01*
X85766505Y-94004600D01*
X85786856Y-93892092D01*
X85805908Y-93792506D01*
X85822055Y-93714739D01*
X85832673Y-93671117D01*
X85831590Y-93658802D01*
X85815421Y-93655749D01*
X85779090Y-93663071D01*
X85717526Y-93681882D01*
X85625653Y-93713295D01*
X85600893Y-93722000D01*
X85258354Y-93854323D01*
X84943229Y-93999590D01*
X84656905Y-94156677D01*
X84400765Y-94324455D01*
X84176197Y-94501799D01*
X83984586Y-94687581D01*
X83827316Y-94880676D01*
X83705775Y-95079957D01*
X83621345Y-95284298D01*
X83603592Y-95345913D01*
X83583207Y-95463277D01*
X83574786Y-95600961D01*
X83262256Y-95600961D01*
X83262162Y-95581577D01*
X83265313Y-95396000D01*
X83272531Y-95222729D01*
X83283824Y-95072001D01*
X83288999Y-95024308D01*
X83360508Y-94587286D01*
X83386900Y-94483737D01*
X83710133Y-94483737D01*
X83722863Y-94481014D01*
X83756930Y-94455442D01*
X83806150Y-94411913D01*
X83832249Y-94387137D01*
X83905792Y-94317942D01*
X83985722Y-94245886D01*
X84055880Y-94185508D01*
X84061825Y-94180599D01*
X84278098Y-94019929D01*
X84527857Y-93864343D01*
X84805594Y-93716340D01*
X85105807Y-93578419D01*
X85422985Y-93453077D01*
X85751625Y-93342813D01*
X86086222Y-93250124D01*
X86142672Y-93236445D01*
X86713376Y-93120925D01*
X87294735Y-93042350D01*
X87884328Y-93000838D01*
X88479733Y-92996510D01*
X89078526Y-93029484D01*
X89473979Y-93071685D01*
X89601775Y-93089069D01*
X89737234Y-93109410D01*
X89872022Y-93131275D01*
X89997804Y-93153234D01*
X90106247Y-93173852D01*
X90189015Y-93191702D01*
X90221478Y-93200079D01*
X90233793Y-93198995D01*
X90236846Y-93182827D01*
X90229524Y-93146496D01*
X90210714Y-93084932D01*
X90179301Y-92993059D01*
X90170596Y-92968299D01*
X90038273Y-92625760D01*
X89893005Y-92310635D01*
X89735918Y-92024311D01*
X89568140Y-91768171D01*
X89390796Y-91543603D01*
X89205014Y-91351992D01*
X89011919Y-91194722D01*
X88812638Y-91073181D01*
X88608298Y-90988751D01*
X88546682Y-90970998D01*
X88368943Y-90942616D01*
X88178196Y-90943648D01*
X87985810Y-90972970D01*
X87803155Y-91029453D01*
X87757000Y-91049206D01*
X87593026Y-91140158D01*
X87424643Y-91263363D01*
X87257622Y-91413347D01*
X87097738Y-91584636D01*
X86950768Y-91771756D01*
X86871799Y-91888385D01*
X86808985Y-91989279D01*
X86753032Y-92083547D01*
X86706797Y-92165917D01*
X86673136Y-92231117D01*
X86654906Y-92273875D01*
X86654790Y-92288924D01*
X86678962Y-92283009D01*
X86732429Y-92266866D01*
X86807503Y-92242899D01*
X86896501Y-92213511D01*
X86904672Y-92210770D01*
X87016473Y-92174042D01*
X87098470Y-92150063D01*
X87157546Y-92138130D01*
X87200586Y-92137541D01*
X87234474Y-92147591D01*
X87266093Y-92167577D01*
X87273267Y-92173111D01*
X87312029Y-92224705D01*
X87326510Y-92289974D01*
X87315685Y-92353958D01*
X87288403Y-92393913D01*
X87258981Y-92409942D01*
X87198652Y-92435197D01*
X87113888Y-92467496D01*
X87011157Y-92504663D01*
X86896930Y-92544517D01*
X86777677Y-92584880D01*
X86659867Y-92623571D01*
X86549971Y-92658413D01*
X86454458Y-92687226D01*
X86379798Y-92707831D01*
X86332461Y-92718049D01*
X86323891Y-92718770D01*
X86269337Y-92705676D01*
X86233032Y-92682131D01*
X86218229Y-92655343D01*
X86193742Y-92597661D01*
X86161771Y-92515413D01*
X86124512Y-92414932D01*
X86084165Y-92302550D01*
X86042927Y-92184595D01*
X86002999Y-92067400D01*
X85966577Y-91957297D01*
X85935860Y-91860616D01*
X85913045Y-91783687D01*
X85900332Y-91732843D01*
X85898441Y-91718504D01*
X85913717Y-91675401D01*
X85950728Y-91628994D01*
X85996245Y-91593432D01*
X86025441Y-91582648D01*
X86098006Y-91586883D01*
X86158639Y-91614851D01*
X86188136Y-91648512D01*
X86203376Y-91684211D01*
X86227299Y-91747867D01*
X86256545Y-91830262D01*
X86285772Y-91916222D01*
X86360084Y-92139445D01*
X86444835Y-91984607D01*
X86610302Y-91708365D01*
X86791026Y-91458994D01*
X86995516Y-91224877D01*
X87019731Y-91199655D01*
X87069894Y-91145530D01*
X87104356Y-91103705D01*
X87118225Y-91080365D01*
X87116331Y-91077539D01*
X87076115Y-91084144D01*
X87006917Y-91102342D01*
X86916233Y-91129709D01*
X86811557Y-91163822D01*
X86700386Y-91202257D01*
X86590214Y-91242589D01*
X86511289Y-91273209D01*
X86134615Y-91444550D01*
X85774552Y-91649869D01*
X85433539Y-91886725D01*
X85114016Y-92152678D01*
X84818424Y-92445289D01*
X84549202Y-92762117D01*
X84308789Y-93100724D01*
X84099627Y-93458668D01*
X83924153Y-93833511D01*
X83905803Y-93878695D01*
X83865655Y-93983045D01*
X83825551Y-94094125D01*
X83787914Y-94204444D01*
X83755170Y-94306503D01*
X83729741Y-94392808D01*
X83714051Y-94455863D01*
X83710133Y-94483737D01*
X83386900Y-94483737D01*
X83468275Y-94164465D01*
X83612521Y-93755293D01*
X83793470Y-93359215D01*
X84011344Y-92975680D01*
X84253734Y-92621078D01*
X84360072Y-92487375D01*
X84490497Y-92338500D01*
X84637368Y-92182100D01*
X84793043Y-92025812D01*
X84949881Y-91877279D01*
X85100241Y-91744141D01*
X85236482Y-91634042D01*
X85253672Y-91621140D01*
X85625761Y-91367845D01*
X86009865Y-91151685D01*
X86406537Y-90972440D01*
X86816329Y-90829887D01*
X87239795Y-90723804D01*
X87656902Y-90656405D01*
X87799348Y-90643393D01*
X87968139Y-90634619D01*
X88152908Y-90630068D01*
X88343280Y-90629728D01*
X88528884Y-90633583D01*
G37*
D13*
%TO.C,R4*%
X129685000Y-82807064D02*
X129685000Y-82352936D01*
X131155000Y-82807064D02*
X131155000Y-82352936D01*
%TO.C,R26*%
X129027064Y-91265000D02*
X128572936Y-91265000D01*
X129027064Y-92735000D02*
X128572936Y-92735000D01*
%TO.C,C27*%
X131841779Y-125572014D02*
X131841779Y-125049508D01*
X133311779Y-125572014D02*
X133311779Y-125049508D01*
%TO.C,J4*%
X118884999Y-98274999D02*
X120784999Y-98274999D01*
X118884999Y-100174999D02*
X118884999Y-98274999D01*
X120784999Y-98274999D02*
X120784999Y-100174999D01*
X120784999Y-100174999D02*
X118884999Y-100174999D01*
%TO.C,C22*%
X127696253Y-100575000D02*
X127173747Y-100575000D01*
X127696253Y-102045000D02*
X127173747Y-102045000D01*
%TO.C,C23*%
X127696253Y-98575001D02*
X127173747Y-98575001D01*
X127696253Y-100045001D02*
X127173747Y-100045001D01*
%TO.C,R11*%
X103892936Y-71645000D02*
X104347064Y-71645000D01*
X103892936Y-73115000D02*
X104347064Y-73115000D01*
%TO.C,R77*%
X79272936Y-126265000D02*
X79727064Y-126265000D01*
X79272936Y-127735000D02*
X79727064Y-127735000D01*
%TO.C,C37*%
X108000000Y-117988367D02*
X108000000Y-118510871D01*
X109470000Y-117988367D02*
X109470000Y-118510871D01*
%TO.C,R47*%
X108539510Y-69861881D02*
X108232228Y-69861881D01*
X108539510Y-70621881D02*
X108232228Y-70621881D01*
%TO.C,R19*%
X133597064Y-76975000D02*
X133142936Y-76975000D01*
X133597064Y-78445000D02*
X133142936Y-78445000D01*
%TO.C,R39*%
X107465835Y-115180282D02*
X107144718Y-114859165D01*
X108505282Y-114140835D02*
X108184165Y-113819718D01*
%TD*%
M02*
